<ttFont>
<head>
    <!-- Most of this table will be recalculated by the compiler -->
    <tableVersion value="1.0"/>
    <fontRevision value="5.0"/>
    <checkSumAdjustment value="0x5eab938"/>
    <magicNumber value="0x5f0f3cf5"/>
    <flags value="00000000 00001011"/>
    <unitsPerEm value="2048"/>
    <created value="Sun May 15 08:57:39 2005"/>
    <modified value="Thu Apr 14 14:54:39 2011"/>
    <xMin value="-31"/>
    <yMin value="-1038"/>
    <xMax value="8815"/>
    <yMax value="2289"/>
    <macStyle value="00000000 00000000"/>
    <lowestRecPPEM value="8"/>
    <fontDirectionHint value="2"/>
    <indexToLocFormat value="1"/>
    <glyphDataFormat value="0"/>
  </head>
    <TTGlyph name=".notdef" xMin="142" yMin="226" xMax="842" yMax="1588">
      <contour>
        <pt x="142" y="226" on="1"/>
        <pt x="142" y="1588" on="1"/>
        <pt x="842" y="1588" on="1"/>
        <pt x="842" y="226" on="1"/>
      </contour>
      <contour>
        <pt x="284" y="368" on="1"/>
        <pt x="700" y="368" on="1"/>
        <pt x="700" y="1447" on="1"/>
        <pt x="284" y="1447" on="1"/>
      </contour>
    </TTGlyph>
    <TTGlyph name=".null" xMin="142" yMin="226" xMax="842" yMax="1588">
      <contour>
        <pt x="142" y="226" on="1"/>
        <pt x="142" y="1588" on="1"/>
        <pt x="842" y="1588" on="1"/>
        <pt x="842" y="226" on="1"/>
      </contour>
      <contour>
        <pt x="284" y="368" on="1"/>
        <pt x="700" y="368" on="1"/>
        <pt x="700" y="1447" on="1"/>
        <pt x="284" y="1447" on="1"/>
      </contour>
    </TTGlyph>
    <TTGlyph name="afii57381" xMin="142" yMin="226" xMax="842" yMax="1588">
      <contour>
        <pt x="142" y="226" on="1"/>
        <pt x="142" y="1588" on="1"/>
        <pt x="842" y="1588" on="1"/>
        <pt x="842" y="226" on="1"/>
      </contour>
      <contour>
        <pt x="284" y="368" on="1"/>
        <pt x="700" y="368" on="1"/>
        <pt x="700" y="1447" on="1"/>
        <pt x="284" y="1447" on="1"/>
      </contour>
    </TTGlyph>
    <TTGlyph name="afii57388" xMin="142" yMin="226" xMax="842" yMax="1588">
      <contour>
        <pt x="142" y="226" on="1"/>
        <pt x="142" y="1588" on="1"/>
        <pt x="842" y="1588" on="1"/>
        <pt x="842" y="226" on="1"/>
      </contour>
      <contour>
        <pt x="284" y="368" on="1"/>
        <pt x="700" y="368" on="1"/>
        <pt x="700" y="1447" on="1"/>
        <pt x="284" y="1447" on="1"/>
      </contour>
    </TTGlyph>
    <TTGlyph name="afii57396" xMin="142" yMin="226" xMax="842" yMax="1588">
      <contour>
        <pt x="142" y="226" on="1"/>
        <pt x="142" y="1588" on="1"/>
        <pt x="842" y="1588" on="1"/>
        <pt x="842" y="226" on="1"/>
      </contour>
      <contour>
        <pt x="284" y="368" on="1"/>
        <pt x="700" y="368" on="1"/>
        <pt x="700" y="1447" on="1"/>
        <pt x="284" y="1447" on="1"/>
      </contour>
    </TTGlyph>
    <TTGlyph name="afii57397" xMin="142" yMin="226" xMax="842" yMax="1588">
      <contour>
        <pt x="142" y="226" on="1"/>
        <pt x="142" y="1588" on="1"/>
        <pt x="842" y="1588" on="1"/>
        <pt x="842" y="226" on="1"/>
      </contour>
      <contour>
        <pt x="284" y="368" on="1"/>
        <pt x="700" y="368" on="1"/>
        <pt x="700" y="1447" on="1"/>
        <pt x="284" y="1447" on="1"/>
      </contour>
    </TTGlyph>
    <TTGlyph name="afii57398" xMin="142" yMin="226" xMax="842" yMax="1588">
      <contour>
        <pt x="142" y="226" on="1"/>
        <pt x="142" y="1588" on="1"/>
        <pt x="842" y="1588" on="1"/>
        <pt x="842" y="226" on="1"/>
      </contour>
      <contour>
        <pt x="284" y="368" on="1"/>
        <pt x="700" y="368" on="1"/>
        <pt x="700" y="1447" on="1"/>
        <pt x="284" y="1447" on="1"/>
      </contour>
    </TTGlyph>
    <TTGlyph name="afii57403" xMin="142" yMin="226" xMax="842" yMax="1588">
      <contour>
        <pt x="142" y="226" on="1"/>
        <pt x="142" y="1588" on="1"/>
        <pt x="842" y="1588" on="1"/>
        <pt x="842" y="226" on="1"/>
      </contour>
      <contour>
        <pt x="284" y="368" on="1"/>
        <pt x="700" y="368" on="1"/>
        <pt x="700" y="1447" on="1"/>
        <pt x="284" y="1447" on="1"/>
      </contour>
    </TTGlyph>
    <TTGlyph name="afii57407" xMin="142" yMin="226" xMax="842" yMax="1588">
      <contour>
        <pt x="142" y="226" on="1"/>
        <pt x="142" y="1588" on="1"/>
        <pt x="842" y="1588" on="1"/>
        <pt x="842" y="226" on="1"/>
      </contour>
      <contour>
        <pt x="284" y="368" on="1"/>
        <pt x="700" y="368" on="1"/>
        <pt x="700" y="1447" on="1"/>
        <pt x="284" y="1447" on="1"/>
      </contour>
    </TTGlyph>
    <TTGlyph name="afii57440" xMin="142" yMin="226" xMax="842" yMax="1588">
      <contour>
        <pt x="142" y="226" on="1"/>
        <pt x="142" y="1588" on="1"/>
        <pt x="842" y="1588" on="1"/>
        <pt x="842" y="226" on="1"/>
      </contour>
      <contour>
        <pt x="284" y="368" on="1"/>
        <pt x="700" y="368" on="1"/>
        <pt x="700" y="1447" on="1"/>
        <pt x="284" y="1447" on="1"/>
      </contour>
    </TTGlyph>
    <TTGlyph name="afii57451" xMin="142" yMin="226" xMax="842" yMax="1588">
      <contour>
        <pt x="142" y="226" on="1"/>
        <pt x="142" y="1588" on="1"/>
        <pt x="842" y="1588" on="1"/>
        <pt x="842" y="226" on="1"/>
      </contour>
      <contour>
        <pt x="284" y="368" on="1"/>
        <pt x="700" y="368" on="1"/>
        <pt x="700" y="1447" on="1"/>
        <pt x="284" y="1447" on="1"/>
      </contour>
    </TTGlyph>
    <TTGlyph name="afii57452" xMin="142" yMin="226" xMax="842" yMax="1588">
      <contour>
        <pt x="142" y="226" on="1"/>
        <pt x="142" y="1588" on="1"/>
        <pt x="842" y="1588" on="1"/>
        <pt x="842" y="226" on="1"/>
      </contour>
      <contour>
        <pt x="284" y="368" on="1"/>
        <pt x="700" y="368" on="1"/>
        <pt x="700" y="1447" on="1"/>
        <pt x="284" y="1447" on="1"/>
      </contour>
    </TTGlyph>
    <TTGlyph name="afii57453" xMin="142" yMin="226" xMax="842" yMax="1588">
      <contour>
        <pt x="142" y="226" on="1"/>
        <pt x="142" y="1588" on="1"/>
        <pt x="842" y="1588" on="1"/>
        <pt x="842" y="226" on="1"/>
      </contour>
      <contour>
        <pt x="284" y="368" on="1"/>
        <pt x="700" y="368" on="1"/>
        <pt x="700" y="1447" on="1"/>
        <pt x="284" y="1447" on="1"/>
      </contour>
    </TTGlyph>
    <TTGlyph name="afii57454" xMin="142" yMin="226" xMax="842" yMax="1588">
      <contour>
        <pt x="142" y="226" on="1"/>
        <pt x="142" y="1588" on="1"/>
        <pt x="842" y="1588" on="1"/>
        <pt x="842" y="226" on="1"/>
      </contour>
      <contour>
        <pt x="284" y="368" on="1"/>
        <pt x="700" y="368" on="1"/>
        <pt x="700" y="1447" on="1"/>
        <pt x="284" y="1447" on="1"/>
      </contour>
    </TTGlyph>
    <TTGlyph name="afii57455" xMin="142" yMin="226" xMax="842" yMax="1588">
      <contour>
        <pt x="142" y="226" on="1"/>
        <pt x="142" y="1588" on="1"/>
        <pt x="842" y="1588" on="1"/>
        <pt x="842" y="226" on="1"/>
      </contour>
      <contour>
        <pt x="284" y="368" on="1"/>
        <pt x="700" y="368" on="1"/>
        <pt x="700" y="1447" on="1"/>
        <pt x="284" y="1447" on="1"/>
      </contour>
    </TTGlyph>
    <TTGlyph name="afii57456" xMin="142" yMin="226" xMax="842" yMax="1588">
      <contour>
        <pt x="142" y="226" on="1"/>
        <pt x="142" y="1588" on="1"/>
        <pt x="842" y="1588" on="1"/>
        <pt x="842" y="226" on="1"/>
      </contour>
      <contour>
        <pt x="284" y="368" on="1"/>
        <pt x="700" y="368" on="1"/>
        <pt x="700" y="1447" on="1"/>
        <pt x="284" y="1447" on="1"/>
      </contour>
    </TTGlyph>
    <TTGlyph name="afii57457" xMin="142" yMin="226" xMax="842" yMax="1588">
      <contour>
        <pt x="142" y="226" on="1"/>
        <pt x="142" y="1588" on="1"/>
        <pt x="842" y="1588" on="1"/>
        <pt x="842" y="226" on="1"/>
      </contour>
      <contour>
        <pt x="284" y="368" on="1"/>
        <pt x="700" y="368" on="1"/>
        <pt x="700" y="1447" on="1"/>
        <pt x="284" y="1447" on="1"/>
      </contour>
    </TTGlyph>
    <TTGlyph name="afii57458" xMin="142" yMin="226" xMax="842" yMax="1588">
      <contour>
        <pt x="142" y="226" on="1"/>
        <pt x="142" y="1588" on="1"/>
        <pt x="842" y="1588" on="1"/>
        <pt x="842" y="226" on="1"/>
      </contour>
      <contour>
        <pt x="284" y="368" on="1"/>
        <pt x="700" y="368" on="1"/>
        <pt x="700" y="1447" on="1"/>
        <pt x="284" y="1447" on="1"/>
      </contour>
    </TTGlyph>
    <TTGlyph name="afii57505" xMin="142" yMin="226" xMax="842" yMax="1588">
      <contour>
        <pt x="142" y="226" on="1"/>
        <pt x="142" y="1588" on="1"/>
        <pt x="842" y="1588" on="1"/>
        <pt x="842" y="226" on="1"/>
      </contour>
      <contour>
        <pt x="284" y="368" on="1"/>
        <pt x="700" y="368" on="1"/>
        <pt x="700" y="1447" on="1"/>
        <pt x="284" y="1447" on="1"/>
      </contour>
    </TTGlyph>
    <TTGlyph name="afii57506" xMin="142" yMin="226" xMax="842" yMax="1588">
      <contour>
        <pt x="142" y="226" on="1"/>
        <pt x="142" y="1588" on="1"/>
        <pt x="842" y="1588" on="1"/>
        <pt x="842" y="226" on="1"/>
      </contour>
      <contour>
        <pt x="284" y="368" on="1"/>
        <pt x="700" y="368" on="1"/>
        <pt x="700" y="1447" on="1"/>
        <pt x="284" y="1447" on="1"/>
      </contour>
    </TTGlyph>
    <TTGlyph name="afii57507" xMin="142" yMin="226" xMax="842" yMax="1588">
      <contour>
        <pt x="142" y="226" on="1"/>
        <pt x="142" y="1588" on="1"/>
        <pt x="842" y="1588" on="1"/>
        <pt x="842" y="226" on="1"/>
      </contour>
      <contour>
        <pt x="284" y="368" on="1"/>
        <pt x="700" y="368" on="1"/>
        <pt x="700" y="1447" on="1"/>
        <pt x="284" y="1447" on="1"/>
      </contour>
    </TTGlyph>
    <TTGlyph name="afii57508" xMin="142" yMin="226" xMax="842" yMax="1588">
      <contour>
        <pt x="142" y="226" on="1"/>
        <pt x="142" y="1588" on="1"/>
        <pt x="842" y="1588" on="1"/>
        <pt x="842" y="226" on="1"/>
      </contour>
      <contour>
        <pt x="284" y="368" on="1"/>
        <pt x="700" y="368" on="1"/>
        <pt x="700" y="1447" on="1"/>
        <pt x="284" y="1447" on="1"/>
      </contour>
    </TTGlyph>
    <TTGlyph name="afii57509" xMin="142" yMin="226" xMax="842" yMax="1588">
      <contour>
        <pt x="142" y="226" on="1"/>
        <pt x="142" y="1588" on="1"/>
        <pt x="842" y="1588" on="1"/>
        <pt x="842" y="226" on="1"/>
      </contour>
      <contour>
        <pt x="284" y="368" on="1"/>
        <pt x="700" y="368" on="1"/>
        <pt x="700" y="1447" on="1"/>
        <pt x="284" y="1447" on="1"/>
      </contour>
    </TTGlyph>
    <TTGlyph name="afii57511" xMin="142" yMin="226" xMax="842" yMax="1588">
      <contour>
        <pt x="142" y="226" on="1"/>
        <pt x="142" y="1588" on="1"/>
        <pt x="842" y="1588" on="1"/>
        <pt x="842" y="226" on="1"/>
      </contour>
      <contour>
        <pt x="284" y="368" on="1"/>
        <pt x="700" y="368" on="1"/>
        <pt x="700" y="1447" on="1"/>
        <pt x="284" y="1447" on="1"/>
      </contour>
    </TTGlyph>
    <TTGlyph name="afii57512" xMin="142" yMin="226" xMax="842" yMax="1588">
      <contour>
        <pt x="142" y="226" on="1"/>
        <pt x="142" y="1588" on="1"/>
        <pt x="842" y="1588" on="1"/>
        <pt x="842" y="226" on="1"/>
      </contour>
      <contour>
        <pt x="284" y="368" on="1"/>
        <pt x="700" y="368" on="1"/>
        <pt x="700" y="1447" on="1"/>
        <pt x="284" y="1447" on="1"/>
      </contour>
    </TTGlyph>
    <TTGlyph name="afii57513" xMin="142" yMin="226" xMax="842" yMax="1588">
      <contour>
        <pt x="142" y="226" on="1"/>
        <pt x="142" y="1588" on="1"/>
        <pt x="842" y="1588" on="1"/>
        <pt x="842" y="226" on="1"/>
      </contour>
      <contour>
        <pt x="284" y="368" on="1"/>
        <pt x="700" y="368" on="1"/>
        <pt x="700" y="1447" on="1"/>
        <pt x="284" y="1447" on="1"/>
      </contour>
    </TTGlyph>
    <TTGlyph name="afii57514" xMin="142" yMin="226" xMax="842" yMax="1588">
      <contour>
        <pt x="142" y="226" on="1"/>
        <pt x="142" y="1588" on="1"/>
        <pt x="842" y="1588" on="1"/>
        <pt x="842" y="226" on="1"/>
      </contour>
      <contour>
        <pt x="284" y="368" on="1"/>
        <pt x="700" y="368" on="1"/>
        <pt x="700" y="1447" on="1"/>
        <pt x="284" y="1447" on="1"/>
      </contour>
    </TTGlyph>
    <TTGlyph name="afii57519" xMin="142" yMin="226" xMax="842" yMax="1588">
      <contour>
        <pt x="142" y="226" on="1"/>
        <pt x="142" y="1588" on="1"/>
        <pt x="842" y="1588" on="1"/>
        <pt x="842" y="226" on="1"/>
      </contour>
      <contour>
        <pt x="284" y="368" on="1"/>
        <pt x="700" y="368" on="1"/>
        <pt x="700" y="1447" on="1"/>
        <pt x="284" y="1447" on="1"/>
      </contour>
    </TTGlyph>
    <TTGlyph name="afii57534" xMin="142" yMin="226" xMax="842" yMax="1588">
      <contour>
        <pt x="142" y="226" on="1"/>
        <pt x="142" y="1588" on="1"/>
        <pt x="842" y="1588" on="1"/>
        <pt x="842" y="226" on="1"/>
      </contour>
      <contour>
        <pt x="284" y="368" on="1"/>
        <pt x="700" y="368" on="1"/>
        <pt x="700" y="1447" on="1"/>
        <pt x="284" y="1447" on="1"/>
      </contour>
    </TTGlyph>
    <TTGlyph name="afii63167" xMin="142" yMin="226" xMax="842" yMax="1588">
      <contour>
        <pt x="142" y="226" on="1"/>
        <pt x="142" y="1588" on="1"/>
        <pt x="842" y="1588" on="1"/>
        <pt x="842" y="226" on="1"/>
      </contour>
      <contour>
        <pt x="284" y="368" on="1"/>
        <pt x="700" y="368" on="1"/>
        <pt x="700" y="1447" on="1"/>
        <pt x="284" y="1447" on="1"/>
      </contour>
    </TTGlyph>
    <TTGlyph name="alefmaksurainitial" xMin="142" yMin="226" xMax="842" yMax="1588">
      <contour>
        <pt x="142" y="226" on="1"/>
        <pt x="142" y="1588" on="1"/>
        <pt x="842" y="1588" on="1"/>
        <pt x="842" y="226" on="1"/>
      </contour>
      <contour>
        <pt x="284" y="368" on="1"/>
        <pt x="700" y="368" on="1"/>
        <pt x="700" y="1447" on="1"/>
        <pt x="284" y="1447" on="1"/>
      </contour>
    </TTGlyph>
    <TTGlyph name="alefwaslafinalarabic" xMin="142" yMin="226" xMax="842" yMax="1588">
      <contour>
        <pt x="142" y="226" on="1"/>
        <pt x="142" y="1588" on="1"/>
        <pt x="842" y="1588" on="1"/>
        <pt x="842" y="226" on="1"/>
      </contour>
      <contour>
        <pt x="284" y="368" on="1"/>
        <pt x="700" y="368" on="1"/>
        <pt x="700" y="1447" on="1"/>
        <pt x="284" y="1447" on="1"/>
      </contour>
    </TTGlyph>
    <TTGlyph name="ampersand" xMin="142" yMin="226" xMax="842" yMax="1588">
      <contour>
        <pt x="142" y="226" on="1"/>
        <pt x="142" y="1588" on="1"/>
        <pt x="842" y="1588" on="1"/>
        <pt x="842" y="226" on="1"/>
      </contour>
      <contour>
        <pt x="284" y="368" on="1"/>
        <pt x="700" y="368" on="1"/>
        <pt x="700" y="1447" on="1"/>
        <pt x="284" y="1447" on="1"/>
      </contour>
    </TTGlyph>
    <TTGlyph name="asterisk" xMin="142" yMin="226" xMax="842" yMax="1588">
      <contour>
        <pt x="142" y="226" on="1"/>
        <pt x="142" y="1588" on="1"/>
        <pt x="842" y="1588" on="1"/>
        <pt x="842" y="226" on="1"/>
      </contour>
      <contour>
        <pt x="284" y="368" on="1"/>
        <pt x="700" y="368" on="1"/>
        <pt x="700" y="1447" on="1"/>
        <pt x="284" y="1447" on="1"/>
      </contour>
    </TTGlyph>
    <TTGlyph name="behmeemisolatedarabic" xMin="142" yMin="226" xMax="842" yMax="1588">
      <contour>
        <pt x="142" y="226" on="1"/>
        <pt x="142" y="1588" on="1"/>
        <pt x="842" y="1588" on="1"/>
        <pt x="842" y="226" on="1"/>
      </contour>
      <contour>
        <pt x="284" y="368" on="1"/>
        <pt x="700" y="368" on="1"/>
        <pt x="700" y="1447" on="1"/>
        <pt x="284" y="1447" on="1"/>
      </contour>
    </TTGlyph>
    <TTGlyph name="behnoonfinalarabic" xMin="142" yMin="226" xMax="842" yMax="1588">
      <contour>
        <pt x="142" y="226" on="1"/>
        <pt x="142" y="1588" on="1"/>
        <pt x="842" y="1588" on="1"/>
        <pt x="842" y="226" on="1"/>
      </contour>
      <contour>
        <pt x="284" y="368" on="1"/>
        <pt x="700" y="368" on="1"/>
        <pt x="700" y="1447" on="1"/>
        <pt x="284" y="1447" on="1"/>
      </contour>
    </TTGlyph>
    <TTGlyph name="colon" xMin="142" yMin="226" xMax="842" yMax="1588">
      <contour>
        <pt x="142" y="226" on="1"/>
        <pt x="142" y="1588" on="1"/>
        <pt x="842" y="1588" on="1"/>
        <pt x="842" y="226" on="1"/>
      </contour>
      <contour>
        <pt x="284" y="368" on="1"/>
        <pt x="700" y="368" on="1"/>
        <pt x="700" y="1447" on="1"/>
        <pt x="284" y="1447" on="1"/>
      </contour>
    </TTGlyph>
    <TTGlyph name="dagger" xMin="142" yMin="226" xMax="842" yMax="1588">
      <contour>
        <pt x="142" y="226" on="1"/>
        <pt x="142" y="1588" on="1"/>
        <pt x="842" y="1588" on="1"/>
        <pt x="842" y="226" on="1"/>
      </contour>
      <contour>
        <pt x="284" y="368" on="1"/>
        <pt x="700" y="368" on="1"/>
        <pt x="700" y="1447" on="1"/>
        <pt x="284" y="1447" on="1"/>
      </contour>
    </TTGlyph>
    <TTGlyph name="dalringfinal" xMin="142" yMin="226" xMax="842" yMax="1588">
      <contour>
        <pt x="142" y="226" on="1"/>
        <pt x="142" y="1588" on="1"/>
        <pt x="842" y="1588" on="1"/>
        <pt x="842" y="226" on="1"/>
      </contour>
      <contour>
        <pt x="284" y="368" on="1"/>
        <pt x="700" y="368" on="1"/>
        <pt x="700" y="1447" on="1"/>
        <pt x="284" y="1447" on="1"/>
      </contour>
    </TTGlyph>
    <TTGlyph name="ddalfinalarabic" xMin="142" yMin="226" xMax="842" yMax="1588">
      <contour>
        <pt x="142" y="226" on="1"/>
        <pt x="142" y="1588" on="1"/>
        <pt x="842" y="1588" on="1"/>
        <pt x="842" y="226" on="1"/>
      </contour>
      <contour>
        <pt x="284" y="368" on="1"/>
        <pt x="700" y="368" on="1"/>
        <pt x="700" y="1447" on="1"/>
        <pt x="284" y="1447" on="1"/>
      </contour>
    </TTGlyph>
    <TTGlyph name="divide" xMin="142" yMin="226" xMax="842" yMax="1588">
      <contour>
        <pt x="142" y="226" on="1"/>
        <pt x="142" y="1588" on="1"/>
        <pt x="842" y="1588" on="1"/>
        <pt x="842" y="226" on="1"/>
      </contour>
      <contour>
        <pt x="284" y="368" on="1"/>
        <pt x="700" y="368" on="1"/>
        <pt x="700" y="1447" on="1"/>
        <pt x="284" y="1447" on="1"/>
      </contour>
    </TTGlyph>
    <TTGlyph name="dollar" xMin="142" yMin="226" xMax="842" yMax="1588">
      <contour>
        <pt x="142" y="226" on="1"/>
        <pt x="142" y="1588" on="1"/>
        <pt x="842" y="1588" on="1"/>
        <pt x="842" y="226" on="1"/>
      </contour>
      <contour>
        <pt x="284" y="368" on="1"/>
        <pt x="700" y="368" on="1"/>
        <pt x="700" y="1447" on="1"/>
        <pt x="284" y="1447" on="1"/>
      </contour>
    </TTGlyph>
    <TTGlyph name="dotlessyehfinalarabic" xMin="142" yMin="226" xMax="842" yMax="1588">
      <contour>
        <pt x="142" y="226" on="1"/>
        <pt x="142" y="1588" on="1"/>
        <pt x="842" y="1588" on="1"/>
        <pt x="842" y="226" on="1"/>
      </contour>
      <contour>
        <pt x="284" y="368" on="1"/>
        <pt x="700" y="368" on="1"/>
        <pt x="700" y="1447" on="1"/>
        <pt x="284" y="1447" on="1"/>
      </contour>
    </TTGlyph>
    <TTGlyph name="dotlessyehinitialarabic" xMin="142" yMin="226" xMax="842" yMax="1588">
      <contour>
        <pt x="142" y="226" on="1"/>
        <pt x="142" y="1588" on="1"/>
        <pt x="842" y="1588" on="1"/>
        <pt x="842" y="226" on="1"/>
      </contour>
      <contour>
        <pt x="284" y="368" on="1"/>
        <pt x="700" y="368" on="1"/>
        <pt x="700" y="1447" on="1"/>
        <pt x="284" y="1447" on="1"/>
      </contour>
    </TTGlyph>
    <TTGlyph name="dotlessyehmedialarabic" xMin="142" yMin="226" xMax="842" yMax="1588">
      <contour>
        <pt x="142" y="226" on="1"/>
        <pt x="142" y="1588" on="1"/>
        <pt x="842" y="1588" on="1"/>
        <pt x="842" y="226" on="1"/>
      </contour>
      <contour>
        <pt x="284" y="368" on="1"/>
        <pt x="700" y="368" on="1"/>
        <pt x="700" y="1447" on="1"/>
        <pt x="284" y="1447" on="1"/>
      </contour>
    </TTGlyph>
    <TTGlyph name="elefmaksuramedial" xMin="142" yMin="226" xMax="842" yMax="1588">
      <contour>
        <pt x="142" y="226" on="1"/>
        <pt x="142" y="1588" on="1"/>
        <pt x="842" y="1588" on="1"/>
        <pt x="842" y="226" on="1"/>
      </contour>
      <contour>
        <pt x="284" y="368" on="1"/>
        <pt x="700" y="368" on="1"/>
        <pt x="700" y="1447" on="1"/>
        <pt x="284" y="1447" on="1"/>
      </contour>
    </TTGlyph>
    <TTGlyph name="ellipsis" xMin="142" yMin="226" xMax="842" yMax="1588">
      <contour>
        <pt x="142" y="226" on="1"/>
        <pt x="142" y="1588" on="1"/>
        <pt x="842" y="1588" on="1"/>
        <pt x="842" y="226" on="1"/>
      </contour>
      <contour>
        <pt x="284" y="368" on="1"/>
        <pt x="700" y="368" on="1"/>
        <pt x="700" y="1447" on="1"/>
        <pt x="284" y="1447" on="1"/>
      </contour>
    </TTGlyph>
    <TTGlyph name="emdash" xMin="403" yMin="-446" xMax="2451" yMax="1919">
      <contour>
        <pt x="2435" y="1563" on="1"/>
        <pt x="2411" y="1499" on="0"/>
        <pt x="2362" y="1412" on="1"/>
        <pt x="2288" y="1281" on="0"/>
        <pt x="2285" y="1274" on="1"/>
        <pt x="2274" y="1274" on="1"/>
        <pt x="2270" y="1275" on="0"/>
        <pt x="2270" y="1299" on="1"/>
        <pt x="2270" y="1358" on="0"/>
        <pt x="2338" y="1482" on="1"/>
        <pt x="2379" y="1552" on="0"/>
        <pt x="2421" y="1620" on="1"/>
        <pt x="2435" y="1620" on="1"/>
      </contour>
      <contour>
        <pt x="2429" y="956" on="1"/>
        <pt x="2429" y="915" on="0"/>
        <pt x="2417" y="881" on="1"/>
        <pt x="2407" y="854" on="0"/>
        <pt x="2401" y="854" on="1"/>
        <pt x="2398" y="854" on="0"/>
        <pt x="2374" y="895" on="0"/>
        <pt x="2370" y="895" on="1"/>
        <pt x="2367" y="895" on="0"/>
        <pt x="2347" y="854" on="0"/>
        <pt x="2344" y="854" on="1"/>
        <pt x="2338" y="854" on="0"/>
        <pt x="2317" y="917" on="0"/>
        <pt x="2317" y="936" on="1"/>
        <pt x="2317" y="966" on="0"/>
        <pt x="2329" y="999" on="1"/>
        <pt x="2339" y="1028" on="0"/>
        <pt x="2342" y="1028" on="1"/>
        <pt x="2356" y="1028" on="0"/>
        <pt x="2369" y="986" on="1"/>
        <pt x="2373" y="991" on="0"/>
        <pt x="2382" y="1022" on="1"/>
        <pt x="2391" y="1049" on="0"/>
        <pt x="2395" y="1049" on="1"/>
        <pt x="2403" y="1049" on="0"/>
        <pt x="2429" y="973" on="0"/>
      </contour>
      <contour>
        <pt x="2252" y="1008" on="1"/>
        <pt x="2252" y="960" on="0"/>
        <pt x="2211" y="893" on="1"/>
        <pt x="2175" y="833" on="0"/>
        <pt x="2165" y="833" on="1"/>
        <pt x="2147" y="833" on="1"/>
        <pt x="2139" y="858" on="1"/>
        <pt x="2140" y="885" on="0"/>
        <pt x="2158" y="910" on="1"/>
        <pt x="2180" y="944" on="0"/>
        <pt x="2186" y="963" on="1"/>
        <pt x="2182" y="1008" on="0"/>
        <pt x="2164" y="1008" on="1"/>
        <pt x="2160" y="1008" on="0"/>
        <pt x="2149" y="990" on="1"/>
        <pt x="2133" y="968" on="0"/>
        <pt x="2131" y="967" on="1"/>
        <pt x="2129" y="968" on="0"/>
        <pt x="2124" y="981" on="1"/>
        <pt x="2153" y="1120" on="0"/>
        <pt x="2182" y="1120" on="1"/>
        <pt x="2186" y="1120" on="0"/>
        <pt x="2207" y="1091" on="1"/>
        <pt x="2237" y="1053" on="0"/>
        <pt x="2244" y="1044" on="1"/>
        <pt x="2252" y="1029" on="0"/>
      </contour>
      <contour>
        <pt x="1961" y="1430" on="1"/>
        <pt x="1940" y="1371" on="0"/>
        <pt x="1887" y="1278" on="1"/>
        <pt x="1800" y="1126" on="0"/>
        <pt x="1798" y="1122" on="1"/>
        <pt x="1796" y="1123" on="0"/>
        <pt x="1787" y="1140" on="1"/>
        <pt x="1788" y="1170" on="0"/>
        <pt x="1795" y="1212" on="1"/>
        <pt x="1823" y="1271" on="0"/>
        <pt x="1870" y="1352" on="1"/>
        <pt x="1940" y="1474" on="0"/>
        <pt x="1947" y="1488" on="1"/>
        <pt x="1961" y="1488" on="1"/>
      </contour>
      <contour>
        <pt x="1937" y="751" on="1"/>
        <pt x="1937" y="734" on="0"/>
        <pt x="1915" y="649" on="0"/>
        <pt x="1910" y="649" on="1"/>
        <pt x="1906" y="649" on="0"/>
        <pt x="1883" y="700" on="0"/>
        <pt x="1879" y="700" on="1"/>
        <pt x="1876" y="700" on="0"/>
        <pt x="1851" y="628" on="0"/>
        <pt x="1846" y="628" on="1"/>
        <pt x="1836" y="628" on="0"/>
        <pt x="1827" y="668" on="1"/>
        <pt x="1818" y="702" on="0"/>
        <pt x="1818" y="715" on="1"/>
        <pt x="1818" y="745" on="0"/>
        <pt x="1829" y="780" on="1"/>
        <pt x="1839" y="813" on="0"/>
        <pt x="1845" y="813" on="1"/>
        <pt x="1848" y="813" on="0"/>
        <pt x="1869" y="772" on="0"/>
        <pt x="1873" y="772" on="1"/>
        <pt x="1876" y="772" on="0"/>
        <pt x="1896" y="844" on="0"/>
        <pt x="1901" y="844" on="1"/>
        <pt x="1911" y="844" on="0"/>
        <pt x="1924" y="804" on="1"/>
        <pt x="1937" y="768" on="0"/>
      </contour>
      <contour>
        <pt x="1597" y="869" on="1"/>
        <pt x="1597" y="834" on="0"/>
        <pt x="1586" y="796" on="1"/>
        <pt x="1576" y="762" on="0"/>
        <pt x="1568" y="762" on="1"/>
        <pt x="1559" y="762" on="0"/>
        <pt x="1546" y="811" on="1"/>
        <pt x="1535" y="855" on="0"/>
        <pt x="1535" y="864" on="1"/>
        <pt x="1535" y="881" on="0"/>
        <pt x="1557" y="956" on="0"/>
        <pt x="1561" y="956" on="1"/>
        <pt x="1567" y="956" on="0"/>
        <pt x="1580" y="930" on="1"/>
        <pt x="1597" y="898" on="0"/>
      </contour>
      <contour>
        <pt x="1375" y="1563" on="1"/>
        <pt x="1374" y="1556" on="0"/>
        <pt x="1371" y="1540" on="0"/>
        <pt x="1367" y="1540" on="1"/>
        <pt x="1362" y="1540" on="0"/>
        <pt x="1333" y="1591" on="0"/>
        <pt x="1329" y="1591" on="1"/>
        <pt x="1325" y="1581" on="1"/>
        <pt x="1313" y="1533" on="0"/>
        <pt x="1288" y="1451" on="1"/>
        <pt x="1245" y="1345" on="0"/>
        <pt x="1234" y="1346" on="1"/>
        <pt x="1211" y="1346" on="1"/>
        <pt x="1210" y="1385" on="0"/>
        <pt x="1229" y="1434" on="1"/>
        <pt x="1247" y="1475" on="0"/>
        <pt x="1264" y="1515" on="1"/>
        <pt x="1298" y="1594" on="0"/>
        <pt x="1298" y="1611" on="1"/>
        <pt x="1298" y="1624" on="0"/>
        <pt x="1273" y="1716" on="0"/>
        <pt x="1273" y="1729" on="1"/>
        <pt x="1273" y="1774" on="0"/>
        <pt x="1287" y="1841" on="1"/>
        <pt x="1303" y="1919" on="0"/>
        <pt x="1321" y="1919" on="1"/>
        <pt x="1342" y="1919" on="0"/>
        <pt x="1342" y="1836" on="1"/>
        <pt x="1342" y="1815" on="0"/>
        <pt x="1340" y="1770" on="1"/>
        <pt x="1339" y="1732" on="0"/>
        <pt x="1339" y="1721" on="1"/>
        <pt x="1345" y="1700" on="0"/>
        <pt x="1357" y="1678" on="1"/>
        <pt x="1372" y="1649" on="0"/>
        <pt x="1375" y="1639" on="1"/>
      </contour>
      <contour>
        <pt x="2451" y="265" on="1"/>
        <pt x="2451" y="209" on="0"/>
        <pt x="2451" y="205" on="1"/>
        <pt x="2449" y="169" on="0"/>
        <pt x="2437" y="88" on="1"/>
        <pt x="2434" y="73" on="0"/>
        <pt x="2428" y="58" on="1"/>
        <pt x="2371" y="25" on="0"/>
        <pt x="2362" y="25" on="1"/>
        <pt x="2358" y="25" on="0"/>
        <pt x="2318" y="75" on="0"/>
        <pt x="2316" y="75" on="1"/>
        <pt x="2311" y="75" on="0"/>
        <pt x="2309" y="62" on="1"/>
        <pt x="2303" y="38" on="0"/>
        <pt x="2303" y="36" on="1"/>
        <pt x="2290" y="-6" on="0"/>
        <pt x="2272" y="-6" on="1"/>
        <pt x="2269" y="-6" on="0"/>
        <pt x="2249" y="14" on="0"/>
        <pt x="2245" y="14" on="1"/>
        <pt x="2241" y="14" on="0"/>
        <pt x="2201" y="-27" on="0"/>
        <pt x="2197" y="-27" on="1"/>
        <pt x="2189" y="-27" on="0"/>
        <pt x="2140" y="14" on="0"/>
        <pt x="2141" y="14" on="1"/>
        <pt x="2138" y="14" on="0"/>
        <pt x="2123" y="0" on="1"/>
        <pt x="2107" y="-16" on="0"/>
        <pt x="2098" y="-20" on="1"/>
        <pt x="2032" y="-47" on="0"/>
        <pt x="2012" y="-47" on="1"/>
        <pt x="1986" y="-47" on="0"/>
        <pt x="1947" y="-32" on="1"/>
        <pt x="1905" y="-18" on="0"/>
        <pt x="1894" y="-3" on="1"/>
        <pt x="1891" y="1" on="0"/>
        <pt x="1874" y="41" on="1"/>
        <pt x="1859" y="75" on="0"/>
        <pt x="1854" y="75" on="1"/>
        <pt x="1851" y="75" on="0"/>
        <pt x="1841" y="42" on="1"/>
        <pt x="1829" y="4" on="0"/>
        <pt x="1824" y="-3" on="1"/>
        <pt x="1791" y="-47" on="0"/>
        <pt x="1736" y="-47" on="1"/>
        <pt x="1694" y="-47" on="0"/>
        <pt x="1679" y="19" on="1"/>
        <pt x="1671" y="55" on="0"/>
        <pt x="1669" y="143" on="1"/>
        <pt x="1667" y="209" on="0"/>
        <pt x="1658" y="209" on="1"/>
        <pt x="1641" y="209" on="0"/>
        <pt x="1609" y="162" on="1"/>
        <pt x="1559" y="89" on="0"/>
        <pt x="1558" y="88" on="1"/>
        <pt x="1478" y="-6" on="0"/>
        <pt x="1441" y="-6" on="1"/>
        <pt x="1409" y="-6" on="0"/>
        <pt x="1340" y="75" on="0"/>
        <pt x="1338" y="75" on="1"/>
        <pt x="1331" y="75" on="0"/>
        <pt x="1302" y="49" on="1"/>
        <pt x="1268" y="19" on="0"/>
        <pt x="1253" y="-9" on="1"/>
        <pt x="1247" y="-22" on="0"/>
        <pt x="1241" y="-72" on="1"/>
        <pt x="1236" y="-114" on="0"/>
        <pt x="1231" y="-157" on="1"/>
        <pt x="1220" y="-233" on="0"/>
        <pt x="1173" y="-385" on="0"/>
        <pt x="1147" y="-422" on="1"/>
        <pt x="1131" y="-446" on="0"/>
        <pt x="1111" y="-446" on="1"/>
        <pt x="1083" y="-446" on="1"/>
        <pt x="1060" y="-446" on="0"/>
        <pt x="1035" y="-420" on="1"/>
        <pt x="1007" y="-389" on="0"/>
        <pt x="1002" y="-347" on="1"/>
        <pt x="1008" y="-340" on="0"/>
        <pt x="1030" y="-346" on="1"/>
        <pt x="1057" y="-354" on="0"/>
        <pt x="1056" y="-354" on="1"/>
        <pt x="1108" y="-354" on="0"/>
        <pt x="1140" y="-294" on="1"/>
        <pt x="1178" y="-227" on="0"/>
        <pt x="1223" y="-32" on="1"/>
        <pt x="1217" y="-18" on="0"/>
        <pt x="1175" y="15" on="1"/>
        <pt x="1145" y="39" on="0"/>
        <pt x="1145" y="96" on="1"/>
        <pt x="1145" y="169" on="0"/>
        <pt x="1158" y="270" on="1"/>
        <pt x="1175" y="393" on="0"/>
        <pt x="1196" y="393" on="1"/>
        <pt x="1215" y="393" on="0"/>
        <pt x="1245" y="147" on="0"/>
        <pt x="1256" y="147" on="1"/>
        <pt x="1278" y="147" on="0"/>
        <pt x="1296" y="170" on="1"/>
        <pt x="1301" y="175" on="0"/>
        <pt x="1309" y="205" on="1"/>
        <pt x="1315" y="277" on="0"/>
        <pt x="1327" y="421" on="1"/>
        <pt x="1332" y="442" on="0"/>
        <pt x="1333" y="462" on="1"/>
        <pt x="1369" y="608" on="0"/>
        <pt x="1388" y="608" on="1"/>
        <pt x="1408" y="608" on="0"/>
        <pt x="1412" y="574" on="1"/>
        <pt x="1426" y="454" on="0"/>
        <pt x="1426" y="393" on="1"/>
        <pt x="1426" y="368" on="0"/>
        <pt x="1417" y="302" on="1"/>
        <pt x="1408" y="233" on="0"/>
        <pt x="1401" y="211" on="1"/>
        <pt x="1401" y="185" on="1"/>
        <pt x="1402" y="181" on="0"/>
        <pt x="1406" y="170" on="1"/>
        <pt x="1413" y="170" on="0"/>
        <pt x="1452" y="147" on="0"/>
        <pt x="1455" y="147" on="1"/>
        <pt x="1478" y="147" on="0"/>
        <pt x="1518" y="188" on="1"/>
        <pt x="1560" y="230" on="0"/>
        <pt x="1575" y="275" on="1"/>
        <pt x="1543" y="373" on="0"/>
        <pt x="1521" y="373" on="1"/>
        <pt x="1504" y="373" on="0"/>
        <pt x="1473" y="333" on="1"/>
        <pt x="1473" y="366" on="1"/>
        <pt x="1473" y="425" on="0"/>
        <pt x="1504" y="486" on="1"/>
        <pt x="1531" y="537" on="0"/>
        <pt x="1541" y="537" on="1"/>
        <pt x="1544" y="537" on="0"/>
        <pt x="1560" y="504" on="1"/>
        <pt x="1578" y="465" on="0"/>
        <pt x="1584" y="456" on="1"/>
        <pt x="1669" y="338" on="0"/>
        <pt x="1736" y="338" on="1"/>
        <pt x="1747" y="338" on="0"/>
        <pt x="1758" y="341" on="1"/>
        <pt x="1762" y="340" on="0"/>
        <pt x="1762" y="316" on="1"/>
        <pt x="1762" y="284" on="0"/>
        <pt x="1735" y="188" on="0"/>
        <pt x="1725" y="188" on="1"/>
        <pt x="1721" y="188" on="0"/>
        <pt x="1705" y="188" on="0"/>
        <pt x="1702" y="188" on="1"/>
        <pt x="1697" y="172" on="1"/>
        <pt x="1707" y="117" on="0"/>
        <pt x="1722" y="108" on="1"/>
        <pt x="1725" y="106" on="0"/>
        <pt x="1757" y="106" on="1"/>
        <pt x="1803" y="106" on="0"/>
        <pt x="1825" y="139" on="1"/>
        <pt x="1831" y="147" on="0"/>
        <pt x="1846" y="196" on="1"/>
        <pt x="1860" y="239" on="0"/>
        <pt x="1865" y="239" on="1"/>
        <pt x="1869" y="239" on="0"/>
        <pt x="1885" y="201" on="1"/>
        <pt x="1904" y="156" on="0"/>
        <pt x="1908" y="149" on="1"/>
        <pt x="1935" y="106" on="0"/>
        <pt x="1985" y="106" on="1"/>
        <pt x="1989" y="106" on="0"/>
        <pt x="2051" y="86" on="0"/>
        <pt x="2055" y="86" on="1"/>
        <pt x="2059" y="86" on="0"/>
        <pt x="2125" y="129" on="1"/>
        <pt x="2134" y="135" on="0"/>
        <pt x="2149" y="170" on="1"/>
        <pt x="2157" y="199" on="0"/>
        <pt x="2175" y="259" on="1"/>
        <pt x="2186" y="259" on="1"/>
        <pt x="2186" y="181" on="0"/>
        <pt x="2177" y="122" on="1"/>
        <pt x="2181" y="96" on="0"/>
        <pt x="2191" y="96" on="1"/>
        <pt x="2206" y="96" on="0"/>
        <pt x="2221" y="117" on="1"/>
        <pt x="2235" y="136" on="0"/>
        <pt x="2238" y="155" on="1"/>
        <pt x="2260" y="265" on="0"/>
        <pt x="2270" y="259" on="1"/>
        <pt x="2273" y="234" on="0"/>
        <pt x="2267" y="174" on="1"/>
        <pt x="2271" y="147" on="0"/>
        <pt x="2283" y="147" on="1"/>
        <pt x="2303" y="147" on="0"/>
        <pt x="2313" y="223" on="1"/>
        <pt x="2324" y="308" on="0"/>
        <pt x="2335" y="321" on="1"/>
        <pt x="2340" y="271" on="0"/>
        <pt x="2336" y="224" on="1"/>
        <pt x="2350" y="178" on="0"/>
        <pt x="2368" y="178" on="1"/>
        <pt x="2383" y="178" on="0"/>
        <pt x="2423" y="197" on="1"/>
        <pt x="2423" y="200" on="0"/>
        <pt x="2426" y="204" on="0"/>
        <pt x="2426" y="219" on="1"/>
        <pt x="2426" y="236" on="0"/>
        <pt x="2411" y="343" on="1"/>
        <pt x="2396" y="455" on="0"/>
        <pt x="2390" y="483" on="1"/>
        <pt x="2385" y="489" on="0"/>
        <pt x="2377" y="499" on="1"/>
        <pt x="2367" y="556" on="0"/>
        <pt x="2367" y="578" on="1"/>
        <pt x="2367" y="632" on="0"/>
        <pt x="2380" y="720" on="1"/>
        <pt x="2399" y="707" on="0"/>
        <pt x="2425" y="535" on="1"/>
        <pt x="2451" y="366" on="0"/>
      </contour>
      <contour>
        <pt x="1379" y="1350" on="1"/>
        <pt x="1379" y="1215" on="0"/>
        <pt x="1356" y="1185" on="1"/>
        <pt x="1345" y="1176" on="0"/>
        <pt x="1325" y="1158" on="1"/>
        <pt x="1321" y="1153" on="0"/>
        <pt x="1307" y="1130" on="1"/>
        <pt x="1294" y="1110" on="0"/>
        <pt x="1290" y="1110" on="1"/>
        <pt x="1284" y="1110" on="0"/>
        <pt x="1267" y="1166" on="0"/>
        <pt x="1267" y="1186" on="1"/>
        <pt x="1267" y="1229" on="0"/>
        <pt x="1284" y="1304" on="1"/>
        <pt x="1288" y="1276" on="0"/>
        <pt x="1300" y="1222" on="1"/>
        <pt x="1312" y="1226" on="0"/>
        <pt x="1317" y="1272" on="1"/>
        <pt x="1325" y="1346" on="0"/>
        <pt x="1327" y="1356" on="1"/>
        <pt x="1331" y="1330" on="0"/>
        <pt x="1343" y="1273" on="1"/>
        <pt x="1349" y="1273" on="0"/>
        <pt x="1356" y="1301" on="1"/>
        <pt x="1357" y="1336" on="0"/>
        <pt x="1371" y="1427" on="1"/>
        <pt x="1379" y="1401" on="0"/>
      </contour>
      <contour>
        <pt x="1354" y="890" on="1"/>
        <pt x="1354" y="859" on="0"/>
        <pt x="1331" y="782" on="1"/>
        <pt x="1304" y="834" on="0"/>
        <pt x="1304" y="874" on="1"/>
        <pt x="1304" y="900" on="0"/>
        <pt x="1324" y="967" on="0"/>
        <pt x="1331" y="967" on="1"/>
        <pt x="1339" y="967" on="0"/>
        <pt x="1346" y="937" on="1"/>
        <pt x="1354" y="911" on="0"/>
      </contour>
      <contour>
        <pt x="1669" y="-175" on="1"/>
        <pt x="1669" y="-204" on="0"/>
        <pt x="1655" y="-228" on="1"/>
        <pt x="1624" y="-281" on="0"/>
        <pt x="1525" y="-425" on="0"/>
        <pt x="1519" y="-425" on="1"/>
        <pt x="1507" y="-425" on="0"/>
        <pt x="1507" y="-385" on="1"/>
        <pt x="1507" y="-336" on="0"/>
        <pt x="1520" y="-317" on="1"/>
        <pt x="1550" y="-274" on="0"/>
        <pt x="1654" y="-130" on="1"/>
        <pt x="1669" y="-130" on="1"/>
      </contour>
      <contour>
        <pt x="1058" y="1441" on="1"/>
        <pt x="1058" y="1411" on="0"/>
        <pt x="986" y="1262" on="1"/>
        <pt x="917" y="1120" on="0"/>
        <pt x="887" y="1079" on="1"/>
        <pt x="883" y="1081" on="0"/>
        <pt x="883" y="1104" on="1"/>
        <pt x="883" y="1162" on="0"/>
        <pt x="921" y="1239" on="1"/>
        <pt x="944" y="1283" on="0"/>
        <pt x="968" y="1326" on="1"/>
        <pt x="994" y="1380" on="0"/>
        <pt x="1043" y="1488" on="1"/>
        <pt x="1058" y="1488" on="1"/>
      </contour>
      <contour>
        <pt x="1020" y="797" on="1"/>
        <pt x="1020" y="781" on="0"/>
        <pt x="1001" y="710" on="0"/>
        <pt x="995" y="710" on="1"/>
        <pt x="988" y="710" on="0"/>
        <pt x="961" y="780" on="0"/>
        <pt x="961" y="797" on="1"/>
        <pt x="961" y="815" on="0"/>
        <pt x="968" y="851" on="1"/>
        <pt x="977" y="895" on="0"/>
        <pt x="988" y="895" on="1"/>
        <pt x="1000" y="895" on="0"/>
        <pt x="1010" y="862" on="1"/>
        <pt x="1020" y="830" on="0"/>
      </contour>
      <contour>
        <pt x="837" y="1443" on="1"/>
        <pt x="837" y="1389" on="0"/>
        <pt x="826" y="1369" on="1"/>
        <pt x="777" y="1279" on="0"/>
        <pt x="680" y="1096" on="1"/>
        <pt x="648" y="1034" on="0"/>
        <pt x="579" y="905" on="1"/>
        <pt x="575" y="920" on="0"/>
        <pt x="575" y="946" on="1"/>
        <pt x="575" y="1003" on="0"/>
        <pt x="634" y="1118" on="1"/>
        <pt x="664" y="1171" on="0"/>
        <pt x="694" y="1224" on="1"/>
        <pt x="734" y="1305" on="0"/>
        <pt x="815" y="1464" on="1"/>
        <pt x="820" y="1466" on="0"/>
        <pt x="832" y="1478" on="1"/>
        <pt x="837" y="1464" on="0"/>
      </contour>
      <contour>
        <pt x="1061" y="306" on="1"/>
        <pt x="1061" y="150" on="0"/>
        <pt x="1035" y="89" on="1"/>
        <pt x="1027" y="70" on="0"/>
        <pt x="1000" y="48" on="1"/>
        <pt x="936" y="-6" on="0"/>
        <pt x="896" y="-6" on="1"/>
        <pt x="893" y="-6" on="0"/>
        <pt x="860" y="-14" on="0"/>
        <pt x="852" y="-14" on="1"/>
        <pt x="861" y="-173" on="0"/>
        <pt x="861" y="-159" on="1"/>
        <pt x="861" y="-232" on="0"/>
        <pt x="852" y="-308" on="1"/>
        <pt x="840" y="-405" on="0"/>
        <pt x="821" y="-405" on="1"/>
        <pt x="784" y="-405" on="0"/>
        <pt x="763" y="-303" on="1"/>
        <pt x="757" y="-272" on="0"/>
        <pt x="739" y="-115" on="1"/>
        <pt x="734" y="-74" on="0"/>
        <pt x="718" y="-86" on="1"/>
        <pt x="720" y="-58" on="0"/>
        <pt x="721" y="-30" on="1"/>
        <pt x="723" y="4" on="0"/>
        <pt x="718" y="4" on="1"/>
        <pt x="714" y="4" on="0"/>
        <pt x="700" y="-22" on="0"/>
        <pt x="698" y="-23" on="1"/>
        <pt x="620" y="-67" on="0"/>
        <pt x="551" y="-67" on="1"/>
        <pt x="513" y="-67" on="0"/>
        <pt x="513" y="-67" on="1"/>
        <pt x="489" y="-56" on="0"/>
        <pt x="457" y="7" on="1"/>
        <pt x="447" y="26" on="0"/>
        <pt x="441" y="79" on="1"/>
        <pt x="432" y="165" on="0"/>
        <pt x="424" y="449" on="1"/>
        <pt x="420" y="502" on="0"/>
        <pt x="413" y="612" on="1"/>
        <pt x="403" y="804" on="0"/>
        <pt x="403" y="976" on="1"/>
        <pt x="403" y="1036" on="0"/>
        <pt x="420" y="1109" on="1"/>
        <pt x="427" y="1107" on="0"/>
        <pt x="431" y="1049" on="1"/>
        <pt x="434" y="1001" on="0"/>
        <pt x="436" y="952" on="1"/>
        <pt x="436" y="899" on="0"/>
        <pt x="438" y="801" on="1"/>
        <pt x="438" y="788" on="0"/>
        <pt x="438" y="777" on="1"/>
        <pt x="443" y="637" on="0"/>
        <pt x="448" y="496" on="1"/>
        <pt x="454" y="330" on="0"/>
        <pt x="463" y="215" on="1"/>
        <pt x="469" y="133" on="0"/>
        <pt x="505" y="109" on="1"/>
        <pt x="554" y="75" on="0"/>
        <pt x="571" y="75" on="1"/>
        <pt x="590" y="75" on="1"/>
        <pt x="594" y="75" on="0"/>
        <pt x="621" y="92" on="0"/>
        <pt x="626" y="93" on="1"/>
        <pt x="654" y="97" on="0"/>
        <pt x="694" y="123" on="1"/>
        <pt x="703" y="126" on="0"/>
        <pt x="713" y="129" on="1"/>
        <pt x="726" y="135" on="0"/>
        <pt x="731" y="158" on="1"/>
        <pt x="733" y="171" on="0"/>
        <pt x="760" y="360" on="1"/>
        <pt x="764" y="390" on="0"/>
        <pt x="783" y="481" on="1"/>
        <pt x="808" y="598" on="0"/>
        <pt x="818" y="598" on="1"/>
        <pt x="831" y="598" on="0"/>
        <pt x="841" y="505" on="1"/>
        <pt x="849" y="432" on="0"/>
        <pt x="849" y="373" on="1"/>
        <pt x="849" y="317" on="0"/>
        <pt x="832" y="222" on="1"/>
        <pt x="820" y="151" on="0"/>
        <pt x="812" y="122" on="1"/>
        <pt x="812" y="120" on="0"/>
        <pt x="813" y="111" on="1"/>
        <pt x="813" y="106" on="0"/>
        <pt x="818" y="106" on="1"/>
        <pt x="822" y="106" on="0"/>
        <pt x="887" y="127" on="0"/>
        <pt x="891" y="127" on="1"/>
        <pt x="923" y="127" on="0"/>
        <pt x="975" y="167" on="1"/>
        <pt x="1027" y="206" on="0"/>
        <pt x="1036" y="234" on="1"/>
        <pt x="1034" y="280" on="0"/>
        <pt x="998" y="426" on="0"/>
        <pt x="998" y="439" on="1"/>
        <pt x="998" y="482" on="0"/>
        <pt x="1012" y="546" on="1"/>
        <pt x="1026" y="546" on="1"/>
        <pt x="1061" y="440" on="0"/>
      </contour>
      <contour>
        <pt x="1322" y="1782" on="1"/>
        <pt x="1315" y="1806" on="0"/>
        <pt x="1308" y="1806" on="1"/>
        <pt x="1298" y="1773" on="0"/>
        <pt x="1298" y="1767" on="1"/>
        <pt x="1301" y="1762" on="0"/>
        <pt x="1315" y="1740" on="0"/>
        <pt x="1318" y="1734" on="1"/>
      </contour>
      <contour>
        <pt x="1394" y="367" on="1"/>
        <pt x="1392" y="455" on="0"/>
        <pt x="1379" y="455" on="1"/>
        <pt x="1371" y="455" on="0"/>
        <pt x="1338" y="349" on="0"/>
        <pt x="1338" y="326" on="1"/>
        <pt x="1338" y="306" on="0"/>
        <pt x="1350" y="260" on="0"/>
        <pt x="1357" y="260" on="1"/>
        <pt x="1369" y="260" on="0"/>
        <pt x="1381" y="290" on="1"/>
        <pt x="1394" y="324" on="0"/>
      </contour>
      <contour>
        <pt x="1201" y="170" on="1"/>
        <pt x="1201" y="194" on="0"/>
        <pt x="1187" y="239" on="1"/>
        <pt x="1176" y="204" on="0"/>
        <pt x="1176" y="193" on="1"/>
        <pt x="1176" y="170" on="0"/>
        <pt x="1180" y="170" on="1"/>
        <pt x="1190" y="152" on="0"/>
      </contour>
      <contour>
        <pt x="821" y="326" on="1"/>
        <pt x="821" y="377" on="0"/>
        <pt x="804" y="434" on="1"/>
        <pt x="765" y="247" on="0"/>
        <pt x="765" y="243" on="1"/>
        <pt x="765" y="210" on="1"/>
        <pt x="778" y="210" on="1"/>
        <pt x="788" y="209" on="0"/>
        <pt x="821" y="299" on="0"/>
      </contour>
      <contour>
        <pt x="836" y="-184" on="1"/>
        <pt x="826" y="-154" on="0"/>
        <pt x="780" y="-86" on="0"/>
        <pt x="771" y="-86" on="1"/>
        <pt x="768" y="-86" on="0"/>
        <pt x="768" y="-93" on="1"/>
        <pt x="768" y="-148" on="0"/>
        <pt x="787" y="-197" on="1"/>
        <pt x="804" y="-241" on="0"/>
        <pt x="816" y="-241" on="1"/>
        <pt x="830" y="-241" on="0"/>
      </contour>
    </TTGlyph>
    <TTGlyph name="endash" xMin="403" yMin="-446" xMax="1427" yMax="1919">
      <contour>
        <pt x="1419" y="1563" on="1"/>
        <pt x="1407" y="1499" on="0"/>
        <pt x="1383" y="1412" on="1"/>
        <pt x="1346" y="1281" on="0"/>
        <pt x="1344" y="1274" on="1"/>
        <pt x="1339" y="1274" on="1"/>
        <pt x="1337" y="1275" on="0"/>
        <pt x="1337" y="1299" on="1"/>
        <pt x="1337" y="1358" on="0"/>
        <pt x="1370" y="1482" on="1"/>
        <pt x="1391" y="1552" on="0"/>
        <pt x="1412" y="1620" on="1"/>
        <pt x="1419" y="1620" on="1"/>
      </contour>
      <contour>
        <pt x="1416" y="956" on="1"/>
        <pt x="1416" y="915" on="0"/>
        <pt x="1410" y="881" on="1"/>
        <pt x="1405" y="854" on="0"/>
        <pt x="1402" y="854" on="1"/>
        <pt x="1400" y="854" on="0"/>
        <pt x="1388" y="895" on="0"/>
        <pt x="1387" y="895" on="1"/>
        <pt x="1385" y="895" on="0"/>
        <pt x="1375" y="854" on="0"/>
        <pt x="1373" y="854" on="1"/>
        <pt x="1370" y="854" on="0"/>
        <pt x="1360" y="917" on="0"/>
        <pt x="1360" y="936" on="1"/>
        <pt x="1360" y="966" on="0"/>
        <pt x="1366" y="999" on="1"/>
        <pt x="1371" y="1028" on="0"/>
        <pt x="1372" y="1028" on="1"/>
        <pt x="1380" y="1028" on="0"/>
        <pt x="1386" y="986" on="1"/>
        <pt x="1388" y="991" on="0"/>
        <pt x="1393" y="1022" on="1"/>
        <pt x="1397" y="1049" on="0"/>
        <pt x="1399" y="1049" on="1"/>
        <pt x="1403" y="1049" on="0"/>
        <pt x="1416" y="973" on="0"/>
      </contour>
      <contour>
        <pt x="1327" y="1008" on="1"/>
        <pt x="1327" y="960" on="0"/>
        <pt x="1307" y="893" on="1"/>
        <pt x="1289" y="833" on="0"/>
        <pt x="1284" y="833" on="1"/>
        <pt x="1275" y="833" on="1"/>
        <pt x="1271" y="858" on="1"/>
        <pt x="1272" y="885" on="0"/>
        <pt x="1281" y="910" on="1"/>
        <pt x="1292" y="944" on="0"/>
        <pt x="1295" y="963" on="1"/>
        <pt x="1292" y="1008" on="0"/>
        <pt x="1284" y="1008" on="1"/>
        <pt x="1281" y="1008" on="0"/>
        <pt x="1276" y="990" on="1"/>
        <pt x="1268" y="968" on="0"/>
        <pt x="1267" y="967" on="1"/>
        <pt x="1266" y="968" on="0"/>
        <pt x="1263" y="981" on="1"/>
        <pt x="1278" y="1120" on="0"/>
        <pt x="1292" y="1120" on="1"/>
        <pt x="1294" y="1120" on="0"/>
        <pt x="1305" y="1091" on="1"/>
        <pt x="1320" y="1053" on="0"/>
        <pt x="1324" y="1044" on="1"/>
        <pt x="1327" y="1029" on="0"/>
      </contour>
      <contour>
        <pt x="1182" y="1430" on="1"/>
        <pt x="1172" y="1371" on="0"/>
        <pt x="1145" y="1278" on="1"/>
        <pt x="1101" y="1126" on="0"/>
        <pt x="1101" y="1122" on="1"/>
        <pt x="1099" y="1123" on="0"/>
        <pt x="1095" y="1140" on="1"/>
        <pt x="1096" y="1170" on="0"/>
        <pt x="1099" y="1212" on="1"/>
        <pt x="1113" y="1271" on="0"/>
        <pt x="1137" y="1352" on="1"/>
        <pt x="1171" y="1474" on="0"/>
        <pt x="1175" y="1488" on="1"/>
        <pt x="1182" y="1488" on="1"/>
      </contour>
      <contour>
        <pt x="1170" y="751" on="1"/>
        <pt x="1170" y="734" on="0"/>
        <pt x="1159" y="649" on="0"/>
        <pt x="1157" y="649" on="1"/>
        <pt x="1155" y="649" on="0"/>
        <pt x="1143" y="700" on="0"/>
        <pt x="1141" y="700" on="1"/>
        <pt x="1139" y="700" on="0"/>
        <pt x="1127" y="628" on="0"/>
        <pt x="1125" y="628" on="1"/>
        <pt x="1120" y="628" on="0"/>
        <pt x="1115" y="668" on="1"/>
        <pt x="1111" y="702" on="0"/>
        <pt x="1111" y="715" on="1"/>
        <pt x="1111" y="745" on="0"/>
        <pt x="1116" y="780" on="1"/>
        <pt x="1121" y="813" on="0"/>
        <pt x="1124" y="813" on="1"/>
        <pt x="1125" y="813" on="0"/>
        <pt x="1136" y="772" on="0"/>
        <pt x="1138" y="772" on="1"/>
        <pt x="1140" y="772" on="0"/>
        <pt x="1150" y="844" on="0"/>
        <pt x="1152" y="844" on="1"/>
        <pt x="1157" y="844" on="0"/>
        <pt x="1164" y="804" on="1"/>
        <pt x="1170" y="768" on="0"/>
      </contour>
      <contour>
        <pt x="1000" y="869" on="1"/>
        <pt x="1000" y="834" on="0"/>
        <pt x="994" y="796" on="1"/>
        <pt x="989" y="762" on="0"/>
        <pt x="985" y="762" on="1"/>
        <pt x="981" y="762" on="0"/>
        <pt x="974" y="811" on="1"/>
        <pt x="969" y="855" on="0"/>
        <pt x="969" y="864" on="1"/>
        <pt x="969" y="881" on="0"/>
        <pt x="980" y="956" on="0"/>
        <pt x="982" y="956" on="1"/>
        <pt x="985" y="956" on="0"/>
        <pt x="992" y="930" on="1"/>
        <pt x="1000" y="898" on="0"/>
      </contour>
      <contour>
        <pt x="889" y="1563" on="1"/>
        <pt x="889" y="1556" on="0"/>
        <pt x="887" y="1540" on="0"/>
        <pt x="883" y="1540" on="0"/>
        <pt x="868" y="1591" on="0"/>
        <pt x="866" y="1591" on="1"/>
        <pt x="864" y="1581" on="1"/>
        <pt x="858" y="1533" on="0"/>
        <pt x="846" y="1451" on="1"/>
        <pt x="824" y="1345" on="0"/>
        <pt x="818" y="1346" on="1"/>
        <pt x="807" y="1346" on="1"/>
        <pt x="806" y="1385" on="0"/>
        <pt x="816" y="1434" on="1"/>
        <pt x="825" y="1475" on="0"/>
        <pt x="834" y="1515" on="1"/>
        <pt x="850" y="1594" on="0"/>
        <pt x="850" y="1611" on="1"/>
        <pt x="850" y="1624" on="0"/>
        <pt x="838" y="1716" on="0"/>
        <pt x="838" y="1729" on="1"/>
        <pt x="838" y="1774" on="0"/>
        <pt x="845" y="1841" on="1"/>
        <pt x="853" y="1919" on="0"/>
        <pt x="862" y="1919" on="1"/>
        <pt x="872" y="1919" on="0"/>
        <pt x="872" y="1836" on="1"/>
        <pt x="872" y="1815" on="0"/>
        <pt x="872" y="1770" on="1"/>
        <pt x="871" y="1732" on="0"/>
        <pt x="871" y="1721" on="1"/>
        <pt x="874" y="1700" on="0"/>
        <pt x="880" y="1678" on="1"/>
        <pt x="887" y="1649" on="0"/>
        <pt x="889" y="1639" on="1"/>
      </contour>
      <contour>
        <pt x="1427" y="265" on="1"/>
        <pt x="1427" y="209" on="0"/>
        <pt x="1427" y="205" on="1"/>
        <pt x="1426" y="169" on="0"/>
        <pt x="1420" y="88" on="1"/>
        <pt x="1419" y="73" on="0"/>
        <pt x="1416" y="58" on="1"/>
        <pt x="1387" y="25" on="0"/>
        <pt x="1383" y="25" on="1"/>
        <pt x="1381" y="25" on="0"/>
        <pt x="1361" y="75" on="0"/>
        <pt x="1359" y="75" on="1"/>
        <pt x="1357" y="75" on="0"/>
        <pt x="1356" y="62" on="1"/>
        <pt x="1353" y="38" on="0"/>
        <pt x="1353" y="36" on="1"/>
        <pt x="1346" y="-6" on="0"/>
        <pt x="1337" y="-6" on="1"/>
        <pt x="1336" y="-6" on="0"/>
        <pt x="1326" y="14" on="0"/>
        <pt x="1322" y="14" on="0"/>
        <pt x="1302" y="-27" on="0"/>
        <pt x="1300" y="-27" on="1"/>
        <pt x="1296" y="-27" on="0"/>
        <pt x="1271" y="14" on="0"/>
        <pt x="1272" y="14" on="1"/>
        <pt x="1270" y="14" on="0"/>
        <pt x="1263" y="0" on="1"/>
        <pt x="1255" y="-16" on="0"/>
        <pt x="1250" y="-20" on="1"/>
        <pt x="1218" y="-47" on="0"/>
        <pt x="1207" y="-47" on="1"/>
        <pt x="1195" y="-47" on="0"/>
        <pt x="1175" y="-32" on="1"/>
        <pt x="1154" y="-18" on="0"/>
        <pt x="1149" y="-3" on="1"/>
        <pt x="1147" y="1" on="0"/>
        <pt x="1138" y="41" on="1"/>
        <pt x="1131" y="75" on="0"/>
        <pt x="1129" y="75" on="1"/>
        <pt x="1127" y="75" on="0"/>
        <pt x="1122" y="42" on="1"/>
        <pt x="1116" y="4" on="0"/>
        <pt x="1113" y="-3" on="1"/>
        <pt x="1097" y="-47" on="0"/>
        <pt x="1069" y="-47" on="1"/>
        <pt x="1048" y="-47" on="0"/>
        <pt x="1041" y="19" on="1"/>
        <pt x="1037" y="55" on="0"/>
        <pt x="1036" y="143" on="1"/>
        <pt x="1035" y="209" on="0"/>
        <pt x="1030" y="209" on="1"/>
        <pt x="1022" y="209" on="0"/>
        <pt x="1006" y="162" on="1"/>
        <pt x="981" y="89" on="0"/>
        <pt x="981" y="88" on="1"/>
        <pt x="941" y="-6" on="0"/>
        <pt x="922" y="-6" on="1"/>
        <pt x="906" y="-6" on="0"/>
        <pt x="871" y="75" on="0"/>
        <pt x="871" y="75" on="1"/>
        <pt x="867" y="75" on="0"/>
        <pt x="852" y="49" on="1"/>
        <pt x="836" y="19" on="0"/>
        <pt x="828" y="-9" on="1"/>
        <pt x="825" y="-22" on="0"/>
        <pt x="822" y="-72" on="1"/>
        <pt x="819" y="-114" on="0"/>
        <pt x="817" y="-157" on="1"/>
        <pt x="811" y="-233" on="0"/>
        <pt x="788" y="-385" on="0"/>
        <pt x="775" y="-422" on="1"/>
        <pt x="767" y="-446" on="0"/>
        <pt x="757" y="-446" on="1"/>
        <pt x="743" y="-446" on="1"/>
        <pt x="731" y="-446" on="0"/>
        <pt x="719" y="-420" on="1"/>
        <pt x="705" y="-389" on="0"/>
        <pt x="702" y="-347" on="1"/>
        <pt x="706" y="-340" on="0"/>
        <pt x="717" y="-346" on="1"/>
        <pt x="730" y="-354" on="0"/>
        <pt x="730" y="-354" on="1"/>
        <pt x="755" y="-354" on="0"/>
        <pt x="772" y="-294" on="1"/>
        <pt x="790" y="-227" on="0"/>
        <pt x="813" y="-32" on="1"/>
        <pt x="810" y="-18" on="0"/>
        <pt x="789" y="15" on="1"/>
        <pt x="774" y="39" on="0"/>
        <pt x="774" y="96" on="1"/>
        <pt x="774" y="169" on="0"/>
        <pt x="781" y="270" on="1"/>
        <pt x="789" y="393" on="0"/>
        <pt x="800" y="393" on="1"/>
        <pt x="809" y="393" on="0"/>
        <pt x="824" y="147" on="0"/>
        <pt x="829" y="147" on="1"/>
        <pt x="841" y="147" on="0"/>
        <pt x="849" y="170" on="1"/>
        <pt x="852" y="175" on="0"/>
        <pt x="856" y="205" on="1"/>
        <pt x="859" y="277" on="0"/>
        <pt x="865" y="421" on="1"/>
        <pt x="867" y="442" on="0"/>
        <pt x="868" y="462" on="1"/>
        <pt x="886" y="608" on="0"/>
        <pt x="905" y="608" on="0"/>
        <pt x="907" y="574" on="1"/>
        <pt x="914" y="454" on="0"/>
        <pt x="914" y="393" on="1"/>
        <pt x="914" y="368" on="0"/>
        <pt x="910" y="302" on="1"/>
        <pt x="905" y="233" on="0"/>
        <pt x="902" y="211" on="1"/>
        <pt x="902" y="185" on="1"/>
        <pt x="902" y="181" on="0"/>
        <pt x="904" y="170" on="1"/>
        <pt x="908" y="170" on="0"/>
        <pt x="927" y="147" on="0"/>
        <pt x="929" y="147" on="1"/>
        <pt x="940" y="147" on="0"/>
        <pt x="960" y="188" on="1"/>
        <pt x="981" y="230" on="0"/>
        <pt x="989" y="275" on="1"/>
        <pt x="973" y="373" on="0"/>
        <pt x="962" y="373" on="1"/>
        <pt x="953" y="373" on="0"/>
        <pt x="938" y="333" on="1"/>
        <pt x="938" y="366" on="1"/>
        <pt x="938" y="425" on="0"/>
        <pt x="954" y="486" on="1"/>
        <pt x="967" y="537" on="0"/>
        <pt x="972" y="537" on="1"/>
        <pt x="974" y="537" on="0"/>
        <pt x="981" y="504" on="1"/>
        <pt x="990" y="465" on="0"/>
        <pt x="993" y="456" on="1"/>
        <pt x="1036" y="338" on="0"/>
        <pt x="1069" y="338" on="1"/>
        <pt x="1075" y="338" on="0"/>
        <pt x="1081" y="341" on="1"/>
        <pt x="1083" y="340" on="0"/>
        <pt x="1083" y="316" on="1"/>
        <pt x="1083" y="284" on="0"/>
        <pt x="1069" y="188" on="0"/>
        <pt x="1064" y="188" on="1"/>
        <pt x="1062" y="188" on="0"/>
        <pt x="1054" y="188" on="0"/>
        <pt x="1052" y="188" on="1"/>
        <pt x="1050" y="172" on="1"/>
        <pt x="1055" y="117" on="0"/>
        <pt x="1063" y="108" on="1"/>
        <pt x="1064" y="106" on="0"/>
        <pt x="1080" y="106" on="1"/>
        <pt x="1103" y="106" on="0"/>
        <pt x="1114" y="139" on="1"/>
        <pt x="1117" y="147" on="0"/>
        <pt x="1125" y="196" on="1"/>
        <pt x="1132" y="239" on="0"/>
        <pt x="1134" y="239" on="1"/>
        <pt x="1136" y="239" on="0"/>
        <pt x="1144" y="201" on="1"/>
        <pt x="1153" y="156" on="0"/>
        <pt x="1155" y="149" on="1"/>
        <pt x="1169" y="106" on="0"/>
        <pt x="1194" y="106" on="1"/>
        <pt x="1196" y="106" on="0"/>
        <pt x="1227" y="86" on="0"/>
        <pt x="1231" y="86" on="0"/>
        <pt x="1264" y="129" on="1"/>
        <pt x="1268" y="135" on="0"/>
        <pt x="1276" y="170" on="1"/>
        <pt x="1280" y="199" on="0"/>
        <pt x="1289" y="259" on="1"/>
        <pt x="1294" y="259" on="1"/>
        <pt x="1294" y="181" on="0"/>
        <pt x="1290" y="122" on="1"/>
        <pt x="1292" y="96" on="0"/>
        <pt x="1297" y="96" on="1"/>
        <pt x="1304" y="96" on="0"/>
        <pt x="1312" y="117" on="1"/>
        <pt x="1319" y="136" on="0"/>
        <pt x="1321" y="155" on="1"/>
        <pt x="1331" y="265" on="0"/>
        <pt x="1336" y="259" on="1"/>
        <pt x="1338" y="234" on="0"/>
        <pt x="1335" y="174" on="1"/>
        <pt x="1337" y="147" on="0"/>
        <pt x="1343" y="147" on="1"/>
        <pt x="1353" y="147" on="0"/>
        <pt x="1358" y="223" on="1"/>
        <pt x="1363" y="308" on="0"/>
        <pt x="1369" y="321" on="1"/>
        <pt x="1372" y="271" on="0"/>
        <pt x="1369" y="224" on="1"/>
        <pt x="1377" y="178" on="0"/>
        <pt x="1386" y="178" on="1"/>
        <pt x="1393" y="178" on="0"/>
        <pt x="1413" y="197" on="1"/>
        <pt x="1413" y="200" on="0"/>
        <pt x="1415" y="204" on="0"/>
        <pt x="1415" y="219" on="1"/>
        <pt x="1415" y="236" on="0"/>
        <pt x="1407" y="343" on="1"/>
        <pt x="1400" y="455" on="0"/>
        <pt x="1396" y="483" on="1"/>
        <pt x="1394" y="489" on="0"/>
        <pt x="1390" y="499" on="1"/>
        <pt x="1385" y="556" on="0"/>
        <pt x="1385" y="578" on="1"/>
        <pt x="1385" y="632" on="0"/>
        <pt x="1392" y="720" on="1"/>
        <pt x="1401" y="707" on="0"/>
        <pt x="1414" y="535" on="1"/>
        <pt x="1427" y="366" on="0"/>
      </contour>
      <contour>
        <pt x="891" y="1350" on="1"/>
        <pt x="891" y="1215" on="0"/>
        <pt x="879" y="1185" on="1"/>
        <pt x="874" y="1176" on="0"/>
        <pt x="864" y="1158" on="1"/>
        <pt x="862" y="1153" on="0"/>
        <pt x="855" y="1130" on="1"/>
        <pt x="849" y="1110" on="0"/>
        <pt x="846" y="1110" on="1"/>
        <pt x="844" y="1110" on="0"/>
        <pt x="835" y="1166" on="0"/>
        <pt x="835" y="1186" on="1"/>
        <pt x="835" y="1229" on="0"/>
        <pt x="843" y="1304" on="1"/>
        <pt x="845" y="1276" on="0"/>
        <pt x="851" y="1222" on="1"/>
        <pt x="858" y="1226" on="0"/>
        <pt x="860" y="1272" on="1"/>
        <pt x="864" y="1346" on="0"/>
        <pt x="865" y="1356" on="1"/>
        <pt x="867" y="1330" on="0"/>
        <pt x="873" y="1273" on="1"/>
        <pt x="876" y="1273" on="0"/>
        <pt x="879" y="1301" on="1"/>
        <pt x="880" y="1336" on="0"/>
        <pt x="887" y="1427" on="1"/>
        <pt x="891" y="1401" on="0"/>
      </contour>
      <contour>
        <pt x="879" y="890" on="1"/>
        <pt x="879" y="859" on="0"/>
        <pt x="867" y="782" on="1"/>
        <pt x="854" y="834" on="0"/>
        <pt x="854" y="874" on="1"/>
        <pt x="854" y="900" on="0"/>
        <pt x="863" y="967" on="0"/>
        <pt x="867" y="967" on="1"/>
        <pt x="871" y="967" on="0"/>
        <pt x="875" y="937" on="1"/>
        <pt x="879" y="911" on="0"/>
      </contour>
      <contour>
        <pt x="1036" y="-175" on="1"/>
        <pt x="1036" y="-204" on="0"/>
        <pt x="1029" y="-228" on="1"/>
        <pt x="1014" y="-281" on="0"/>
        <pt x="964" y="-425" on="0"/>
        <pt x="961" y="-425" on="1"/>
        <pt x="955" y="-425" on="0"/>
        <pt x="955" y="-385" on="1"/>
        <pt x="955" y="-336" on="0"/>
        <pt x="962" y="-317" on="1"/>
        <pt x="977" y="-274" on="0"/>
        <pt x="1029" y="-130" on="1"/>
        <pt x="1036" y="-130" on="1"/>
      </contour>
      <contour>
        <pt x="730" y="1441" on="1"/>
        <pt x="730" y="1411" on="0"/>
        <pt x="694" y="1262" on="1"/>
        <pt x="660" y="1120" on="0"/>
        <pt x="645" y="1079" on="1"/>
        <pt x="643" y="1081" on="0"/>
        <pt x="643" y="1104" on="1"/>
        <pt x="643" y="1162" on="0"/>
        <pt x="662" y="1239" on="1"/>
        <pt x="674" y="1283" on="0"/>
        <pt x="685" y="1326" on="1"/>
        <pt x="699" y="1380" on="0"/>
        <pt x="723" y="1488" on="1"/>
        <pt x="730" y="1488" on="1"/>
      </contour>
      <contour>
        <pt x="712" y="797" on="1"/>
        <pt x="712" y="781" on="0"/>
        <pt x="702" y="710" on="0"/>
        <pt x="699" y="710" on="1"/>
        <pt x="695" y="710" on="0"/>
        <pt x="682" y="780" on="0"/>
        <pt x="682" y="797" on="1"/>
        <pt x="682" y="815" on="0"/>
        <pt x="686" y="851" on="1"/>
        <pt x="690" y="895" on="0"/>
        <pt x="695" y="895" on="1"/>
        <pt x="701" y="895" on="0"/>
        <pt x="707" y="862" on="1"/>
        <pt x="712" y="830" on="0"/>
      </contour>
      <contour>
        <pt x="620" y="1443" on="1"/>
        <pt x="620" y="1389" on="0"/>
        <pt x="615" y="1369" on="1"/>
        <pt x="590" y="1279" on="0"/>
        <pt x="541" y="1096" on="1"/>
        <pt x="526" y="1034" on="0"/>
        <pt x="491" y="905" on="1"/>
        <pt x="489" y="920" on="0"/>
        <pt x="489" y="946" on="1"/>
        <pt x="489" y="1003" on="0"/>
        <pt x="518" y="1118" on="1"/>
        <pt x="533" y="1171" on="0"/>
        <pt x="548" y="1224" on="1"/>
        <pt x="569" y="1305" on="0"/>
        <pt x="609" y="1464" on="1"/>
        <pt x="612" y="1466" on="0"/>
        <pt x="617" y="1478" on="1"/>
        <pt x="620" y="1464" on="0"/>
      </contour>
      <contour>
        <pt x="732" y="306" on="1"/>
        <pt x="732" y="150" on="0"/>
        <pt x="719" y="89" on="1"/>
        <pt x="715" y="70" on="0"/>
        <pt x="702" y="48" on="1"/>
        <pt x="669" y="-6" on="0"/>
        <pt x="649" y="-6" on="1"/>
        <pt x="648" y="-6" on="0"/>
        <pt x="632" y="-14" on="0"/>
        <pt x="627" y="-14" on="1"/>
        <pt x="632" y="-173" on="0"/>
        <pt x="632" y="-159" on="1"/>
        <pt x="632" y="-232" on="0"/>
        <pt x="628" y="-308" on="1"/>
        <pt x="622" y="-405" on="0"/>
        <pt x="612" y="-405" on="1"/>
        <pt x="594" y="-405" on="0"/>
        <pt x="583" y="-303" on="1"/>
        <pt x="580" y="-272" on="0"/>
        <pt x="571" y="-115" on="1"/>
        <pt x="568" y="-74" on="0"/>
        <pt x="561" y="-86" on="1"/>
        <pt x="561" y="-58" on="0"/>
        <pt x="562" y="-30" on="1"/>
        <pt x="563" y="4" on="0"/>
        <pt x="561" y="4" on="1"/>
        <pt x="559" y="4" on="0"/>
        <pt x="552" y="-22" on="0"/>
        <pt x="551" y="-23" on="1"/>
        <pt x="512" y="-67" on="0"/>
        <pt x="477" y="-67" on="1"/>
        <pt x="458" y="-67" on="0"/>
        <pt x="458" y="-67" on="1"/>
        <pt x="446" y="-56" on="0"/>
        <pt x="430" y="7" on="1"/>
        <pt x="425" y="26" on="0"/>
        <pt x="422" y="79" on="1"/>
        <pt x="417" y="165" on="0"/>
        <pt x="413" y="449" on="1"/>
        <pt x="412" y="502" on="0"/>
        <pt x="408" y="612" on="1"/>
        <pt x="403" y="804" on="0"/>
        <pt x="403" y="976" on="1"/>
        <pt x="403" y="1036" on="0"/>
        <pt x="411" y="1109" on="1"/>
        <pt x="415" y="1107" on="0"/>
        <pt x="417" y="1049" on="1"/>
        <pt x="418" y="1001" on="0"/>
        <pt x="420" y="952" on="1"/>
        <pt x="420" y="899" on="0"/>
        <pt x="420" y="801" on="1"/>
        <pt x="420" y="788" on="0"/>
        <pt x="421" y="777" on="1"/>
        <pt x="423" y="637" on="0"/>
        <pt x="426" y="496" on="1"/>
        <pt x="429" y="330" on="0"/>
        <pt x="433" y="215" on="1"/>
        <pt x="436" y="133" on="0"/>
        <pt x="454" y="109" on="1"/>
        <pt x="478" y="75" on="0"/>
        <pt x="487" y="75" on="1"/>
        <pt x="496" y="75" on="1"/>
        <pt x="498" y="75" on="0"/>
        <pt x="512" y="92" on="0"/>
        <pt x="514" y="93" on="1"/>
        <pt x="528" y="97" on="0"/>
        <pt x="549" y="123" on="1"/>
        <pt x="553" y="126" on="0"/>
        <pt x="558" y="129" on="1"/>
        <pt x="564" y="135" on="0"/>
        <pt x="567" y="158" on="1"/>
        <pt x="568" y="171" on="0"/>
        <pt x="581" y="360" on="1"/>
        <pt x="583" y="390" on="0"/>
        <pt x="593" y="481" on="1"/>
        <pt x="605" y="598" on="0"/>
        <pt x="610" y="598" on="1"/>
        <pt x="617" y="598" on="0"/>
        <pt x="622" y="505" on="1"/>
        <pt x="626" y="432" on="0"/>
        <pt x="626" y="373" on="1"/>
        <pt x="626" y="317" on="0"/>
        <pt x="618" y="222" on="1"/>
        <pt x="611" y="151" on="0"/>
        <pt x="607" y="122" on="1"/>
        <pt x="607" y="120" on="0"/>
        <pt x="608" y="111" on="1"/>
        <pt x="608" y="106" on="0"/>
        <pt x="610" y="106" on="1"/>
        <pt x="612" y="106" on="0"/>
        <pt x="645" y="127" on="0"/>
        <pt x="647" y="127" on="1"/>
        <pt x="663" y="127" on="0"/>
        <pt x="689" y="167" on="1"/>
        <pt x="715" y="206" on="0"/>
        <pt x="719" y="234" on="1"/>
        <pt x="719" y="280" on="0"/>
        <pt x="701" y="426" on="0"/>
        <pt x="701" y="439" on="1"/>
        <pt x="701" y="482" on="0"/>
        <pt x="707" y="546" on="1"/>
        <pt x="714" y="546" on="1"/>
        <pt x="732" y="440" on="0"/>
      </contour>
      <contour>
        <pt x="863" y="1782" on="1"/>
        <pt x="859" y="1806" on="0"/>
        <pt x="856" y="1806" on="1"/>
        <pt x="851" y="1773" on="0"/>
        <pt x="851" y="1767" on="1"/>
        <pt x="852" y="1762" on="0"/>
        <pt x="859" y="1740" on="0"/>
        <pt x="861" y="1734" on="1"/>
      </contour>
      <contour>
        <pt x="899" y="367" on="1"/>
        <pt x="897" y="455" on="0"/>
        <pt x="891" y="455" on="1"/>
        <pt x="887" y="455" on="0"/>
        <pt x="871" y="349" on="0"/>
        <pt x="871" y="326" on="1"/>
        <pt x="871" y="306" on="0"/>
        <pt x="877" y="260" on="0"/>
        <pt x="880" y="260" on="1"/>
        <pt x="886" y="260" on="0"/>
        <pt x="892" y="290" on="1"/>
        <pt x="899" y="324" on="0"/>
      </contour>
      <contour>
        <pt x="802" y="170" on="1"/>
        <pt x="802" y="194" on="0"/>
        <pt x="795" y="239" on="1"/>
        <pt x="790" y="204" on="0"/>
        <pt x="790" y="193" on="1"/>
        <pt x="790" y="170" on="0"/>
        <pt x="791" y="170" on="1"/>
        <pt x="796" y="152" on="0"/>
      </contour>
      <contour>
        <pt x="612" y="326" on="1"/>
        <pt x="612" y="377" on="0"/>
        <pt x="603" y="434" on="1"/>
        <pt x="584" y="247" on="0"/>
        <pt x="584" y="243" on="1"/>
        <pt x="584" y="210" on="1"/>
        <pt x="591" y="210" on="1"/>
        <pt x="595" y="209" on="0"/>
        <pt x="612" y="299" on="0"/>
      </contour>
      <contour>
        <pt x="620" y="-184" on="1"/>
        <pt x="614" y="-154" on="0"/>
        <pt x="592" y="-86" on="0"/>
        <pt x="587" y="-86" on="1"/>
        <pt x="585" y="-86" on="0"/>
        <pt x="585" y="-93" on="1"/>
        <pt x="585" y="-148" on="0"/>
        <pt x="595" y="-197" on="1"/>
        <pt x="603" y="-241" on="0"/>
        <pt x="610" y="-241" on="1"/>
        <pt x="617" y="-241" on="0"/>
      </contour>
    </TTGlyph>
    <TTGlyph name="equal" xMin="142" yMin="226" xMax="842" yMax="1588">
      <contour>
        <pt x="142" y="226" on="1"/>
        <pt x="142" y="1588" on="1"/>
        <pt x="842" y="1588" on="1"/>
        <pt x="842" y="226" on="1"/>
      </contour>
      <contour>
        <pt x="284" y="368" on="1"/>
        <pt x="700" y="368" on="1"/>
        <pt x="700" y="1447" on="1"/>
        <pt x="284" y="1447" on="1"/>
      </contour>
    </TTGlyph>
    <TTGlyph name="exclam" xMin="142" yMin="226" xMax="842" yMax="1588">
      <contour>
        <pt x="142" y="226" on="1"/>
        <pt x="142" y="1588" on="1"/>
        <pt x="842" y="1588" on="1"/>
        <pt x="842" y="226" on="1"/>
      </contour>
      <contour>
        <pt x="284" y="368" on="1"/>
        <pt x="700" y="368" on="1"/>
        <pt x="700" y="1447" on="1"/>
        <pt x="284" y="1447" on="1"/>
      </contour>
    </TTGlyph>
    <TTGlyph name="figuredash" xMin="403" yMin="-446" xMax="7130" yMax="1919">
      <contour>
        <pt x="7078" y="1563" on="1"/>
        <pt x="6999" y="1499" on="0"/>
        <pt x="6839" y="1412" on="1"/>
        <pt x="6596" y="1281" on="0"/>
        <pt x="6584" y="1274" on="1"/>
        <pt x="6549" y="1274" on="1"/>
        <pt x="6536" y="1275" on="0"/>
        <pt x="6536" y="1299" on="1"/>
        <pt x="6536" y="1358" on="0"/>
        <pt x="6758" y="1482" on="1"/>
        <pt x="6895" y="1552" on="0"/>
        <pt x="7032" y="1620" on="1"/>
        <pt x="7078" y="1620" on="1"/>
      </contour>
      <contour>
        <pt x="7058" y="956" on="1"/>
        <pt x="7058" y="915" on="0"/>
        <pt x="7018" y="881" on="1"/>
        <pt x="6984" y="854" on="0"/>
        <pt x="6966" y="854" on="1"/>
        <pt x="6955" y="854" on="0"/>
        <pt x="6877" y="895" on="0"/>
        <pt x="6864" y="895" on="1"/>
        <pt x="6854" y="895" on="0"/>
        <pt x="6790" y="854" on="0"/>
        <pt x="6777" y="854" on="1"/>
        <pt x="6758" y="854" on="0"/>
        <pt x="6690" y="917" on="0"/>
        <pt x="6690" y="936" on="1"/>
        <pt x="6690" y="966" on="0"/>
        <pt x="6730" y="999" on="1"/>
        <pt x="6762" y="1028" on="0"/>
        <pt x="6771" y="1028" on="1"/>
        <pt x="6819" y="1028" on="0"/>
        <pt x="6860" y="986" on="1"/>
        <pt x="6875" y="991" on="0"/>
        <pt x="6905" y="1022" on="1"/>
        <pt x="6932" y="1049" on="0"/>
        <pt x="6946" y="1049" on="1"/>
        <pt x="6971" y="1049" on="0"/>
        <pt x="7058" y="973" on="0"/>
      </contour>
      <contour>
        <pt x="6475" y="1008" on="1"/>
        <pt x="6475" y="960" on="0"/>
        <pt x="6341" y="893" on="1"/>
        <pt x="6223" y="833" on="0"/>
        <pt x="6192" y="833" on="1"/>
        <pt x="6130" y="833" on="1"/>
        <pt x="6106" y="858" on="1"/>
        <pt x="6110" y="885" on="0"/>
        <pt x="6168" y="910" on="1"/>
        <pt x="6241" y="944" on="0"/>
        <pt x="6260" y="963" on="1"/>
        <pt x="6246" y="1008" on="0"/>
        <pt x="6188" y="1008" on="1"/>
        <pt x="6173" y="1008" on="0"/>
        <pt x="6137" y="990" on="1"/>
        <pt x="6087" y="968" on="0"/>
        <pt x="6080" y="967" on="1"/>
        <pt x="6073" y="968" on="0"/>
        <pt x="6055" y="981" on="1"/>
        <pt x="6150" y="1120" on="0"/>
        <pt x="6245" y="1120" on="1"/>
        <pt x="6258" y="1120" on="0"/>
        <pt x="6330" y="1091" on="1"/>
        <pt x="6426" y="1053" on="0"/>
        <pt x="6451" y="1044" on="1"/>
        <pt x="6475" y="1029" on="0"/>
      </contour>
      <contour>
        <pt x="5522" y="1430" on="1"/>
        <pt x="5453" y="1371" on="0"/>
        <pt x="5278" y="1278" on="1"/>
        <pt x="4991" y="1126" on="0"/>
        <pt x="4986" y="1122" on="1"/>
        <pt x="4977" y="1123" on="0"/>
        <pt x="4950" y="1140" on="1"/>
        <pt x="4953" y="1170" on="0"/>
        <pt x="4975" y="1212" on="1"/>
        <pt x="5068" y="1271" on="0"/>
        <pt x="5222" y="1352" on="1"/>
        <pt x="5451" y="1474" on="0"/>
        <pt x="5475" y="1488" on="1"/>
        <pt x="5522" y="1488" on="1"/>
      </contour>
      <contour>
        <pt x="5441" y="751" on="1"/>
        <pt x="5441" y="734" on="0"/>
        <pt x="5371" y="649" on="0"/>
        <pt x="5353" y="649" on="1"/>
        <pt x="5341" y="649" on="0"/>
        <pt x="5264" y="700" on="0"/>
        <pt x="5251" y="700" on="1"/>
        <pt x="5241" y="700" on="0"/>
        <pt x="5160" y="628" on="0"/>
        <pt x="5144" y="628" on="1"/>
        <pt x="5111" y="628" on="0"/>
        <pt x="5079" y="668" on="1"/>
        <pt x="5052" y="702" on="0"/>
        <pt x="5052" y="715" on="1"/>
        <pt x="5052" y="745" on="0"/>
        <pt x="5088" y="780" on="1"/>
        <pt x="5121" y="813" on="0"/>
        <pt x="5139" y="813" on="1"/>
        <pt x="5149" y="813" on="0"/>
        <pt x="5217" y="772" on="0"/>
        <pt x="5231" y="772" on="1"/>
        <pt x="5242" y="772" on="0"/>
        <pt x="5308" y="844" on="0"/>
        <pt x="5323" y="844" on="1"/>
        <pt x="5356" y="844" on="0"/>
        <pt x="5400" y="804" on="1"/>
        <pt x="5441" y="768" on="0"/>
      </contour>
      <contour>
        <pt x="4325" y="869" on="1"/>
        <pt x="4325" y="834" on="0"/>
        <pt x="4288" y="796" on="1"/>
        <pt x="4255" y="762" on="0"/>
        <pt x="4228" y="762" on="1"/>
        <pt x="4199" y="762" on="0"/>
        <pt x="4157" y="811" on="1"/>
        <pt x="4120" y="855" on="0"/>
        <pt x="4120" y="864" on="1"/>
        <pt x="4120" y="881" on="0"/>
        <pt x="4192" y="956" on="0"/>
        <pt x="4207" y="956" on="1"/>
        <pt x="4225" y="956" on="0"/>
        <pt x="4270" y="930" on="1"/>
        <pt x="4325" y="898" on="0"/>
      </contour>
      <contour>
        <pt x="3597" y="1563" on="1"/>
        <pt x="3593" y="1556" on="0"/>
        <pt x="3583" y="1540" on="0"/>
        <pt x="3568" y="1540" on="1"/>
        <pt x="3554" y="1540" on="0"/>
        <pt x="3457" y="1591" on="0"/>
        <pt x="3445" y="1591" on="1"/>
        <pt x="3433" y="1581" on="1"/>
        <pt x="3393" y="1533" on="0"/>
        <pt x="3310" y="1451" on="1"/>
        <pt x="3169" y="1345" on="0"/>
        <pt x="3131" y="1346" on="1"/>
        <pt x="3057" y="1346" on="1"/>
        <pt x="3053" y="1385" on="0"/>
        <pt x="3115" y="1434" on="1"/>
        <pt x="3174" y="1475" on="0"/>
        <pt x="3232" y="1515" on="1"/>
        <pt x="3342" y="1594" on="0"/>
        <pt x="3342" y="1611" on="1"/>
        <pt x="3342" y="1624" on="0"/>
        <pt x="3260" y="1716" on="0"/>
        <pt x="3260" y="1729" on="1"/>
        <pt x="3260" y="1774" on="0"/>
        <pt x="3306" y="1841" on="1"/>
        <pt x="3359" y="1919" on="0"/>
        <pt x="3418" y="1919" on="1"/>
        <pt x="3486" y="1919" on="0"/>
        <pt x="3486" y="1836" on="1"/>
        <pt x="3486" y="1815" on="0"/>
        <pt x="3481" y="1770" on="1"/>
        <pt x="3476" y="1732" on="0"/>
        <pt x="3477" y="1721" on="1"/>
        <pt x="3497" y="1700" on="0"/>
        <pt x="3535" y="1678" on="1"/>
        <pt x="3585" y="1649" on="0"/>
        <pt x="3597" y="1639" on="1"/>
      </contour>
      <contour>
        <pt x="7130" y="265" on="1"/>
        <pt x="7130" y="209" on="0"/>
        <pt x="7129" y="205" on="1"/>
        <pt x="7123" y="169" on="0"/>
        <pt x="7084" y="88" on="1"/>
        <pt x="7075" y="73" on="0"/>
        <pt x="7056" y="58" on="1"/>
        <pt x="6866" y="25" on="0"/>
        <pt x="6839" y="25" on="1"/>
        <pt x="6826" y="25" on="0"/>
        <pt x="6694" y="75" on="0"/>
        <pt x="6685" y="75" on="1"/>
        <pt x="6671" y="75" on="0"/>
        <pt x="6662" y="62" on="1"/>
        <pt x="6644" y="38" on="0"/>
        <pt x="6644" y="36" on="1"/>
        <pt x="6601" y="-6" on="0"/>
        <pt x="6541" y="-6" on="1"/>
        <pt x="6531" y="-6" on="0"/>
        <pt x="6468" y="14" on="0"/>
        <pt x="6454" y="14" on="1"/>
        <pt x="6441" y="14" on="0"/>
        <pt x="6309" y="-27" on="0"/>
        <pt x="6296" y="-27" on="1"/>
        <pt x="6268" y="-27" on="0"/>
        <pt x="6108" y="14" on="0"/>
        <pt x="6111" y="14" on="1"/>
        <pt x="6101" y="14" on="0"/>
        <pt x="6054" y="0" on="1"/>
        <pt x="6001" y="-16" on="0"/>
        <pt x="5969" y="-20" on="1"/>
        <pt x="5755" y="-47" on="0"/>
        <pt x="5687" y="-47" on="1"/>
        <pt x="5603" y="-47" on="0"/>
        <pt x="5473" y="-32" on="1"/>
        <pt x="5336" y="-18" on="0"/>
        <pt x="5301" y="-3" on="1"/>
        <pt x="5290" y="1" on="0"/>
        <pt x="5234" y="41" on="1"/>
        <pt x="5184" y="75" on="0"/>
        <pt x="5170" y="75" on="1"/>
        <pt x="5158" y="75" on="0"/>
        <pt x="5125" y="42" on="1"/>
        <pt x="5088" y="4" on="0"/>
        <pt x="5069" y="-3" on="1"/>
        <pt x="4963" y="-47" on="0"/>
        <pt x="4781" y="-47" on="1"/>
        <pt x="4642" y="-47" on="0"/>
        <pt x="4594" y="19" on="1"/>
        <pt x="4568" y="55" on="0"/>
        <pt x="4561" y="143" on="1"/>
        <pt x="4556" y="209" on="0"/>
        <pt x="4524" y="209" on="1"/>
        <pt x="4468" y="209" on="0"/>
        <pt x="4365" y="162" on="1"/>
        <pt x="4201" y="89" on="0"/>
        <pt x="4198" y="88" on="1"/>
        <pt x="3935" y="-6" on="0"/>
        <pt x="3813" y="-6" on="1"/>
        <pt x="3708" y="-6" on="0"/>
        <pt x="3480" y="75" on="0"/>
        <pt x="3475" y="75" on="1"/>
        <pt x="3450" y="75" on="0"/>
        <pt x="3355" y="49" on="1"/>
        <pt x="3245" y="19" on="0"/>
        <pt x="3196" y="-9" on="1"/>
        <pt x="3174" y="-22" on="0"/>
        <pt x="3154" y="-72" on="1"/>
        <pt x="3138" y="-114" on="0"/>
        <pt x="3123" y="-157" on="1"/>
        <pt x="3085" y="-233" on="0"/>
        <pt x="2933" y="-385" on="0"/>
        <pt x="2847" y="-422" on="1"/>
        <pt x="2794" y="-446" on="0"/>
        <pt x="2728" y="-446" on="1"/>
        <pt x="2635" y="-446" on="1"/>
        <pt x="2561" y="-446" on="0"/>
        <pt x="2480" y="-420" on="1"/>
        <pt x="2388" y="-389" on="0"/>
        <pt x="2370" y="-347" on="1"/>
        <pt x="2391" y="-340" on="0"/>
        <pt x="2463" y="-346" on="1"/>
        <pt x="2552" y="-354" on="0"/>
        <pt x="2548" y="-354" on="1"/>
        <pt x="2718" y="-354" on="0"/>
        <pt x="2825" y="-294" on="1"/>
        <pt x="2947" y="-227" on="0"/>
        <pt x="3097" y="-32" on="1"/>
        <pt x="3076" y="-18" on="0"/>
        <pt x="2940" y="15" on="1"/>
        <pt x="2840" y="39" on="0"/>
        <pt x="2840" y="96" on="1"/>
        <pt x="2840" y="169" on="0"/>
        <pt x="2884" y="270" on="1"/>
        <pt x="2938" y="393" on="0"/>
        <pt x="3009" y="393" on="1"/>
        <pt x="3069" y="393" on="0"/>
        <pt x="3168" y="147" on="0"/>
        <pt x="3204" y="147" on="1"/>
        <pt x="3278" y="147" on="0"/>
        <pt x="3335" y="170" on="1"/>
        <pt x="3353" y="175" on="0"/>
        <pt x="3379" y="205" on="1"/>
        <pt x="3397" y="277" on="0"/>
        <pt x="3437" y="421" on="1"/>
        <pt x="3453" y="442" on="0"/>
        <pt x="3458" y="462" on="1"/>
        <pt x="3575" y="608" on="0"/>
        <pt x="3639" y="608" on="1"/>
        <pt x="3704" y="608" on="0"/>
        <pt x="3717" y="574" on="1"/>
        <pt x="3762" y="454" on="0"/>
        <pt x="3762" y="393" on="1"/>
        <pt x="3762" y="368" on="0"/>
        <pt x="3733" y="302" on="1"/>
        <pt x="3703" y="233" on="0"/>
        <pt x="3680" y="211" on="1"/>
        <pt x="3680" y="185" on="1"/>
        <pt x="3683" y="181" on="0"/>
        <pt x="3697" y="170" on="1"/>
        <pt x="3722" y="170" on="0"/>
        <pt x="3848" y="147" on="0"/>
        <pt x="3859" y="147" on="1"/>
        <pt x="3934" y="147" on="0"/>
        <pt x="4064" y="188" on="1"/>
        <pt x="4202" y="230" on="0"/>
        <pt x="4253" y="275" on="1"/>
        <pt x="4147" y="373" on="0"/>
        <pt x="4074" y="373" on="1"/>
        <pt x="4019" y="373" on="0"/>
        <pt x="3917" y="333" on="1"/>
        <pt x="3917" y="366" on="1"/>
        <pt x="3916" y="425" on="0"/>
        <pt x="4021" y="486" on="1"/>
        <pt x="4108" y="537" on="0"/>
        <pt x="4140" y="537" on="1"/>
        <pt x="4152" y="537" on="0"/>
        <pt x="4202" y="504" on="1"/>
        <pt x="4261" y="465" on="0"/>
        <pt x="4281" y="456" on="1"/>
        <pt x="4560" y="338" on="0"/>
        <pt x="4780" y="338" on="1"/>
        <pt x="4818" y="338" on="0"/>
        <pt x="4855" y="341" on="1"/>
        <pt x="4868" y="340" on="0"/>
        <pt x="4868" y="316" on="1"/>
        <pt x="4868" y="284" on="0"/>
        <pt x="4778" y="188" on="0"/>
        <pt x="4745" y="188" on="1"/>
        <pt x="4732" y="188" on="0"/>
        <pt x="4680" y="188" on="0"/>
        <pt x="4669" y="188" on="1"/>
        <pt x="4652" y="172" on="1"/>
        <pt x="4687" y="117" on="0"/>
        <pt x="4736" y="108" on="1"/>
        <pt x="4744" y="106" on="0"/>
        <pt x="4852" y="106" on="1"/>
        <pt x="5003" y="106" on="0"/>
        <pt x="5075" y="139" on="1"/>
        <pt x="5093" y="147" on="0"/>
        <pt x="5144" y="196" on="1"/>
        <pt x="5189" y="239" on="0"/>
        <pt x="5205" y="239" on="1"/>
        <pt x="5217" y="239" on="0"/>
        <pt x="5271" y="201" on="1"/>
        <pt x="5332" y="156" on="0"/>
        <pt x="5346" y="149" on="1"/>
        <pt x="5435" y="106" on="0"/>
        <pt x="5599" y="106" on="1"/>
        <pt x="5612" y="106" on="0"/>
        <pt x="5817" y="86" on="0"/>
        <pt x="5830" y="86" on="1"/>
        <pt x="5842" y="86" on="0"/>
        <pt x="6060" y="129" on="1"/>
        <pt x="6088" y="135" on="0"/>
        <pt x="6139" y="170" on="1"/>
        <pt x="6165" y="199" on="0"/>
        <pt x="6222" y="259" on="1"/>
        <pt x="6259" y="259" on="1"/>
        <pt x="6259" y="181" on="0"/>
        <pt x="6229" y="122" on="1"/>
        <pt x="6243" y="96" on="0"/>
        <pt x="6275" y="96" on="1"/>
        <pt x="6324" y="96" on="0"/>
        <pt x="6374" y="117" on="1"/>
        <pt x="6419" y="136" on="0"/>
        <pt x="6431" y="155" on="1"/>
        <pt x="6502" y="265" on="0"/>
        <pt x="6535" y="259" on="1"/>
        <pt x="6546" y="234" on="0"/>
        <pt x="6526" y="174" on="1"/>
        <pt x="6540" y="147" on="0"/>
        <pt x="6577" y="147" on="1"/>
        <pt x="6643" y="147" on="0"/>
        <pt x="6676" y="223" on="1"/>
        <pt x="6712" y="308" on="0"/>
        <pt x="6749" y="321" on="1"/>
        <pt x="6767" y="271" on="0"/>
        <pt x="6751" y="224" on="1"/>
        <pt x="6799" y="178" on="0"/>
        <pt x="6859" y="178" on="1"/>
        <pt x="6908" y="178" on="0"/>
        <pt x="7039" y="197" on="1"/>
        <pt x="7039" y="200" on="0"/>
        <pt x="7048" y="204" on="0"/>
        <pt x="7048" y="219" on="1"/>
        <pt x="7048" y="236" on="0"/>
        <pt x="7000" y="343" on="1"/>
        <pt x="6950" y="455" on="0"/>
        <pt x="6928" y="483" on="1"/>
        <pt x="6912" y="489" on="0"/>
        <pt x="6886" y="499" on="1"/>
        <pt x="6853" y="556" on="0"/>
        <pt x="6853" y="578" on="1"/>
        <pt x="6853" y="632" on="0"/>
        <pt x="6898" y="720" on="1"/>
        <pt x="6960" y="707" on="0"/>
        <pt x="7046" y="535" on="1"/>
        <pt x="7130" y="366" on="0"/>
      </contour>
      <contour>
        <pt x="3609" y="1350" on="1"/>
        <pt x="3609" y="1215" on="0"/>
        <pt x="3533" y="1185" on="1"/>
        <pt x="3496" y="1176" on="0"/>
        <pt x="3431" y="1158" on="1"/>
        <pt x="3419" y="1153" on="0"/>
        <pt x="3371" y="1130" on="1"/>
        <pt x="3331" y="1110" on="0"/>
        <pt x="3316" y="1110" on="1"/>
        <pt x="3298" y="1110" on="0"/>
        <pt x="3240" y="1166" on="0"/>
        <pt x="3240" y="1186" on="1"/>
        <pt x="3240" y="1229" on="0"/>
        <pt x="3296" y="1304" on="1"/>
        <pt x="3309" y="1276" on="0"/>
        <pt x="3349" y="1222" on="1"/>
        <pt x="3390" y="1226" on="0"/>
        <pt x="3405" y="1272" on="1"/>
        <pt x="3432" y="1346" on="0"/>
        <pt x="3439" y="1356" on="1"/>
        <pt x="3450" y="1330" on="0"/>
        <pt x="3492" y="1273" on="1"/>
        <pt x="3510" y="1273" on="0"/>
        <pt x="3533" y="1301" on="1"/>
        <pt x="3536" y="1336" on="0"/>
        <pt x="3581" y="1427" on="1"/>
        <pt x="3609" y="1401" on="0"/>
      </contour>
      <contour>
        <pt x="3527" y="890" on="1"/>
        <pt x="3527" y="859" on="0"/>
        <pt x="3450" y="782" on="1"/>
        <pt x="3363" y="834" on="0"/>
        <pt x="3363" y="874" on="1"/>
        <pt x="3363" y="900" on="0"/>
        <pt x="3427" y="967" on="0"/>
        <pt x="3450" y="967" on="1"/>
        <pt x="3476" y="967" on="0"/>
        <pt x="3502" y="937" on="1"/>
        <pt x="3527" y="911" on="0"/>
      </contour>
      <contour>
        <pt x="4560" y="-175" on="1"/>
        <pt x="4560" y="-204" on="0"/>
        <pt x="4517" y="-228" on="1"/>
        <pt x="4415" y="-281" on="0"/>
        <pt x="4089" y="-425" on="0"/>
        <pt x="4069" y="-425" on="1"/>
        <pt x="4028" y="-425" on="0"/>
        <pt x="4028" y="-385" on="1"/>
        <pt x="4028" y="-336" on="0"/>
        <pt x="4072" y="-317" on="1"/>
        <pt x="4172" y="-274" on="0"/>
        <pt x="4513" y="-130" on="1"/>
        <pt x="4560" y="-130" on="1"/>
      </contour>
      <contour>
        <pt x="2553" y="1441" on="1"/>
        <pt x="2553" y="1411" on="0"/>
        <pt x="2317" y="1262" on="1"/>
        <pt x="2092" y="1120" on="0"/>
        <pt x="1994" y="1079" on="1"/>
        <pt x="1980" y="1081" on="0"/>
        <pt x="1980" y="1104" on="1"/>
        <pt x="1980" y="1162" on="0"/>
        <pt x="2104" y="1239" on="1"/>
        <pt x="2181" y="1283" on="0"/>
        <pt x="2258" y="1326" on="1"/>
        <pt x="2345" y="1380" on="0"/>
        <pt x="2506" y="1488" on="1"/>
        <pt x="2553" y="1488" on="1"/>
      </contour>
      <contour>
        <pt x="2431" y="797" on="1"/>
        <pt x="2431" y="781" on="0"/>
        <pt x="2366" y="710" on="0"/>
        <pt x="2349" y="710" on="1"/>
        <pt x="2323" y="710" on="0"/>
        <pt x="2236" y="780" on="0"/>
        <pt x="2236" y="797" on="1"/>
        <pt x="2236" y="815" on="0"/>
        <pt x="2260" y="851" on="1"/>
        <pt x="2290" y="895" on="0"/>
        <pt x="2323" y="895" on="1"/>
        <pt x="2363" y="895" on="0"/>
        <pt x="2398" y="862" on="1"/>
        <pt x="2431" y="830" on="0"/>
      </contour>
      <contour>
        <pt x="1827" y="1443" on="1"/>
        <pt x="1827" y="1389" on="0"/>
        <pt x="1793" y="1369" on="1"/>
        <pt x="1632" y="1279" on="0"/>
        <pt x="1312" y="1096" on="1"/>
        <pt x="1208" y="1034" on="0"/>
        <pt x="981" y="905" on="1"/>
        <pt x="967" y="920" on="0"/>
        <pt x="967" y="946" on="1"/>
        <pt x="967" y="1003" on="0"/>
        <pt x="1161" y="1118" on="1"/>
        <pt x="1259" y="1171" on="0"/>
        <pt x="1358" y="1224" on="1"/>
        <pt x="1491" y="1305" on="0"/>
        <pt x="1757" y="1464" on="1"/>
        <pt x="1774" y="1466" on="0"/>
        <pt x="1812" y="1478" on="1"/>
        <pt x="1827" y="1464" on="0"/>
      </contour>
      <contour>
        <pt x="2564" y="306" on="1"/>
        <pt x="2564" y="150" on="0"/>
        <pt x="2480" y="89" on="1"/>
        <pt x="2453" y="70" on="0"/>
        <pt x="2365" y="48" on="1"/>
        <pt x="2153" y="-6" on="0"/>
        <pt x="2021" y="-6" on="1"/>
        <pt x="2013" y="-6" on="0"/>
        <pt x="1905" y="-14" on="0"/>
        <pt x="1877" y="-14" on="1"/>
        <pt x="1909" y="-173" on="0"/>
        <pt x="1909" y="-159" on="1"/>
        <pt x="1909" y="-232" on="0"/>
        <pt x="1878" y="-308" on="1"/>
        <pt x="1839" y="-405" on="0"/>
        <pt x="1775" y="-405" on="1"/>
        <pt x="1655" y="-405" on="0"/>
        <pt x="1587" y="-303" on="1"/>
        <pt x="1566" y="-272" on="0"/>
        <pt x="1506" y="-115" on="1"/>
        <pt x="1489" y="-74" on="0"/>
        <pt x="1439" y="-86" on="1"/>
        <pt x="1444" y="-58" on="0"/>
        <pt x="1449" y="-30" on="1"/>
        <pt x="1455" y="4" on="0"/>
        <pt x="1438" y="4" on="1"/>
        <pt x="1425" y="4" on="0"/>
        <pt x="1380" y="-22" on="0"/>
        <pt x="1372" y="-23" on="1"/>
        <pt x="1116" y="-67" on="0"/>
        <pt x="890" y="-67" on="1"/>
        <pt x="765" y="-67" on="0"/>
        <pt x="763" y="-67" on="1"/>
        <pt x="685" y="-56" on="0"/>
        <pt x="580" y="7" on="1"/>
        <pt x="549" y="26" on="0"/>
        <pt x="529" y="79" on="1"/>
        <pt x="497" y="165" on="0"/>
        <pt x="471" y="449" on="1"/>
        <pt x="459" y="502" on="0"/>
        <pt x="437" y="612" on="1"/>
        <pt x="403" y="804" on="0"/>
        <pt x="403" y="976" on="1"/>
        <pt x="403" y="1036" on="0"/>
        <pt x="458" y="1109" on="1"/>
        <pt x="483" y="1107" on="0"/>
        <pt x="496" y="1049" on="1"/>
        <pt x="504" y="1001" on="0"/>
        <pt x="512" y="952" on="1"/>
        <pt x="513" y="899" on="0"/>
        <pt x="517" y="801" on="1"/>
        <pt x="517" y="788" on="0"/>
        <pt x="519" y="777" on="1"/>
        <pt x="535" y="637" on="0"/>
        <pt x="551" y="496" on="1"/>
        <pt x="572" y="330" on="0"/>
        <pt x="600" y="215" on="1"/>
        <pt x="620" y="133" on="0"/>
        <pt x="737" y="109" on="1"/>
        <pt x="898" y="75" on="0"/>
        <pt x="956" y="75" on="1"/>
        <pt x="1017" y="75" on="1"/>
        <pt x="1030" y="75" on="0"/>
        <pt x="1119" y="92" on="0"/>
        <pt x="1135" y="93" on="1"/>
        <pt x="1227" y="97" on="0"/>
        <pt x="1360" y="123" on="1"/>
        <pt x="1390" y="126" on="0"/>
        <pt x="1420" y="129" on="1"/>
        <pt x="1463" y="135" on="0"/>
        <pt x="1479" y="158" on="1"/>
        <pt x="1488" y="171" on="0"/>
        <pt x="1574" y="360" on="1"/>
        <pt x="1588" y="390" on="0"/>
        <pt x="1651" y="481" on="1"/>
        <pt x="1732" y="598" on="0"/>
        <pt x="1765" y="598" on="1"/>
        <pt x="1810" y="598" on="0"/>
        <pt x="1842" y="505" on="1"/>
        <pt x="1868" y="432" on="0"/>
        <pt x="1868" y="373" on="1"/>
        <pt x="1868" y="317" on="0"/>
        <pt x="1813" y="222" on="1"/>
        <pt x="1772" y="151" on="0"/>
        <pt x="1745" y="122" on="1"/>
        <pt x="1746" y="120" on="0"/>
        <pt x="1749" y="111" on="1"/>
        <pt x="1750" y="106" on="0"/>
        <pt x="1765" y="106" on="1"/>
        <pt x="1778" y="106" on="0"/>
        <pt x="1993" y="127" on="0"/>
        <pt x="2005" y="127" on="1"/>
        <pt x="2110" y="127" on="0"/>
        <pt x="2283" y="167" on="1"/>
        <pt x="2453" y="206" on="0"/>
        <pt x="2482" y="234" on="1"/>
        <pt x="2476" y="280" on="0"/>
        <pt x="2359" y="426" on="0"/>
        <pt x="2359" y="439" on="1"/>
        <pt x="2359" y="482" on="0"/>
        <pt x="2403" y="546" on="1"/>
        <pt x="2448" y="546" on="1"/>
        <pt x="2564" y="440" on="0"/>
      </contour>
      <contour>
        <pt x="3423" y="1782" on="1"/>
        <pt x="3400" y="1806" on="0"/>
        <pt x="3376" y="1806" on="1"/>
        <pt x="3343" y="1773" on="0"/>
        <pt x="3343" y="1767" on="1"/>
        <pt x="3353" y="1762" on="0"/>
        <pt x="3400" y="1740" on="0"/>
        <pt x="3410" y="1734" on="1"/>
      </contour>
      <contour>
        <pt x="3659" y="367" on="1"/>
        <pt x="3651" y="455" on="0"/>
        <pt x="3609" y="455" on="1"/>
        <pt x="3582" y="455" on="0"/>
        <pt x="3475" y="349" on="0"/>
        <pt x="3475" y="326" on="1"/>
        <pt x="3475" y="306" on="0"/>
        <pt x="3515" y="260" on="0"/>
        <pt x="3536" y="260" on="1"/>
        <pt x="3575" y="260" on="0"/>
        <pt x="3615" y="290" on="1"/>
        <pt x="3659" y="324" on="0"/>
      </contour>
      <contour>
        <pt x="3024" y="170" on="1"/>
        <pt x="3024" y="194" on="0"/>
        <pt x="2979" y="239" on="1"/>
        <pt x="2943" y="204" on="0"/>
        <pt x="2943" y="193" on="1"/>
        <pt x="2943" y="170" on="0"/>
        <pt x="2955" y="170" on="1"/>
        <pt x="2988" y="152" on="0"/>
      </contour>
      <contour>
        <pt x="1775" y="326" on="1"/>
        <pt x="1775" y="377" on="0"/>
        <pt x="1719" y="434" on="1"/>
        <pt x="1592" y="247" on="0"/>
        <pt x="1592" y="243" on="1"/>
        <pt x="1592" y="210" on="1"/>
        <pt x="1636" y="210" on="1"/>
        <pt x="1666" y="209" on="0"/>
        <pt x="1775" y="299" on="0"/>
      </contour>
      <contour>
        <pt x="1826" y="-184" on="1"/>
        <pt x="1792" y="-154" on="0"/>
        <pt x="1642" y="-86" on="0"/>
        <pt x="1613" y="-86" on="1"/>
        <pt x="1601" y="-86" on="0"/>
        <pt x="1601" y="-93" on="1"/>
        <pt x="1601" y="-148" on="0"/>
        <pt x="1664" y="-197" on="1"/>
        <pt x="1719" y="-241" on="0"/>
        <pt x="1760" y="-241" on="1"/>
        <pt x="1807" y="-241" on="0"/>
      </contour>
    </TTGlyph>
    <TTGlyph name="gaffinalarabic" xMin="142" yMin="226" xMax="842" yMax="1588">
      <contour>
        <pt x="142" y="226" on="1"/>
        <pt x="142" y="1588" on="1"/>
        <pt x="842" y="1588" on="1"/>
        <pt x="842" y="226" on="1"/>
      </contour>
      <contour>
        <pt x="284" y="368" on="1"/>
        <pt x="700" y="368" on="1"/>
        <pt x="700" y="1447" on="1"/>
        <pt x="284" y="1447" on="1"/>
      </contour>
    </TTGlyph>
    <TTGlyph name="gafinitialarabic" xMin="142" yMin="226" xMax="842" yMax="1588">
      <contour>
        <pt x="142" y="226" on="1"/>
        <pt x="142" y="1588" on="1"/>
        <pt x="842" y="1588" on="1"/>
        <pt x="842" y="226" on="1"/>
      </contour>
      <contour>
        <pt x="284" y="368" on="1"/>
        <pt x="700" y="368" on="1"/>
        <pt x="700" y="1447" on="1"/>
        <pt x="284" y="1447" on="1"/>
      </contour>
    </TTGlyph>
    <TTGlyph name="gafmedialarabic" xMin="142" yMin="226" xMax="842" yMax="1588">
      <contour>
        <pt x="142" y="226" on="1"/>
        <pt x="142" y="1588" on="1"/>
        <pt x="842" y="1588" on="1"/>
        <pt x="842" y="226" on="1"/>
      </contour>
      <contour>
        <pt x="284" y="368" on="1"/>
        <pt x="700" y="368" on="1"/>
        <pt x="700" y="1447" on="1"/>
        <pt x="284" y="1447" on="1"/>
      </contour>
    </TTGlyph>
    <TTGlyph name="glyph41" xMin="142" yMin="226" xMax="842" yMax="1588">
      <contour>
        <pt x="142" y="226" on="1"/>
        <pt x="142" y="1588" on="1"/>
        <pt x="842" y="1588" on="1"/>
        <pt x="842" y="226" on="1"/>
      </contour>
      <contour>
        <pt x="284" y="368" on="1"/>
        <pt x="700" y="368" on="1"/>
        <pt x="700" y="1447" on="1"/>
        <pt x="284" y="1447" on="1"/>
      </contour>
    </TTGlyph>
    <TTGlyph name="glyph42" xMin="142" yMin="226" xMax="842" yMax="1588">
      <contour>
        <pt x="142" y="226" on="1"/>
        <pt x="142" y="1588" on="1"/>
        <pt x="842" y="1588" on="1"/>
        <pt x="842" y="226" on="1"/>
      </contour>
      <contour>
        <pt x="284" y="368" on="1"/>
        <pt x="700" y="368" on="1"/>
        <pt x="700" y="1447" on="1"/>
        <pt x="284" y="1447" on="1"/>
      </contour>
    </TTGlyph>
    <TTGlyph name="glyph43" xMin="142" yMin="226" xMax="842" yMax="1588">
      <contour>
        <pt x="142" y="226" on="1"/>
        <pt x="142" y="1588" on="1"/>
        <pt x="842" y="1588" on="1"/>
        <pt x="842" y="226" on="1"/>
      </contour>
      <contour>
        <pt x="284" y="368" on="1"/>
        <pt x="700" y="368" on="1"/>
        <pt x="700" y="1447" on="1"/>
        <pt x="284" y="1447" on="1"/>
      </contour>
    </TTGlyph>
    <TTGlyph name="glyph44" xMin="142" yMin="226" xMax="842" yMax="1588">
      <contour>
        <pt x="142" y="226" on="1"/>
        <pt x="142" y="1588" on="1"/>
        <pt x="842" y="1588" on="1"/>
        <pt x="842" y="226" on="1"/>
      </contour>
      <contour>
        <pt x="284" y="368" on="1"/>
        <pt x="700" y="368" on="1"/>
        <pt x="700" y="1447" on="1"/>
        <pt x="284" y="1447" on="1"/>
      </contour>
    </TTGlyph>
    <TTGlyph name="glyph45" xMin="142" yMin="226" xMax="842" yMax="1588">
      <contour>
        <pt x="142" y="226" on="1"/>
        <pt x="142" y="1588" on="1"/>
        <pt x="842" y="1588" on="1"/>
        <pt x="842" y="226" on="1"/>
      </contour>
      <contour>
        <pt x="284" y="368" on="1"/>
        <pt x="700" y="368" on="1"/>
        <pt x="700" y="1447" on="1"/>
        <pt x="284" y="1447" on="1"/>
      </contour>
    </TTGlyph>
    <TTGlyph name="glyph46" xMin="142" yMin="226" xMax="842" yMax="1588">
      <contour>
        <pt x="142" y="226" on="1"/>
        <pt x="142" y="1588" on="1"/>
        <pt x="842" y="1588" on="1"/>
        <pt x="842" y="226" on="1"/>
      </contour>
      <contour>
        <pt x="284" y="368" on="1"/>
        <pt x="700" y="368" on="1"/>
        <pt x="700" y="1447" on="1"/>
        <pt x="284" y="1447" on="1"/>
      </contour>
    </TTGlyph>
    <TTGlyph name="glyph47" xMin="142" yMin="226" xMax="842" yMax="1588">
      <contour>
        <pt x="142" y="226" on="1"/>
        <pt x="142" y="1588" on="1"/>
        <pt x="842" y="1588" on="1"/>
        <pt x="842" y="226" on="1"/>
      </contour>
      <contour>
        <pt x="284" y="368" on="1"/>
        <pt x="700" y="368" on="1"/>
        <pt x="700" y="1447" on="1"/>
        <pt x="284" y="1447" on="1"/>
      </contour>
    </TTGlyph>
    <TTGlyph name="glyph48" xMin="142" yMin="226" xMax="842" yMax="1588">
      <contour>
        <pt x="142" y="226" on="1"/>
        <pt x="142" y="1588" on="1"/>
        <pt x="842" y="1588" on="1"/>
        <pt x="842" y="226" on="1"/>
      </contour>
      <contour>
        <pt x="284" y="368" on="1"/>
        <pt x="700" y="368" on="1"/>
        <pt x="700" y="1447" on="1"/>
        <pt x="284" y="1447" on="1"/>
      </contour>
    </TTGlyph>
    <TTGlyph name="glyph50" xMin="142" yMin="226" xMax="842" yMax="1588">
      <contour>
        <pt x="142" y="226" on="1"/>
        <pt x="142" y="1588" on="1"/>
        <pt x="842" y="1588" on="1"/>
        <pt x="842" y="226" on="1"/>
      </contour>
      <contour>
        <pt x="284" y="368" on="1"/>
        <pt x="700" y="368" on="1"/>
        <pt x="700" y="1447" on="1"/>
        <pt x="284" y="1447" on="1"/>
      </contour>
    </TTGlyph>
    <TTGlyph name="glyph51" xMin="142" yMin="226" xMax="842" yMax="1588">
      <contour>
        <pt x="142" y="226" on="1"/>
        <pt x="142" y="1588" on="1"/>
        <pt x="842" y="1588" on="1"/>
        <pt x="842" y="226" on="1"/>
      </contour>
      <contour>
        <pt x="284" y="368" on="1"/>
        <pt x="700" y="368" on="1"/>
        <pt x="700" y="1447" on="1"/>
        <pt x="284" y="1447" on="1"/>
      </contour>
    </TTGlyph>
    <TTGlyph name="greater" xMin="142" yMin="226" xMax="842" yMax="1588">
      <contour>
        <pt x="142" y="226" on="1"/>
        <pt x="142" y="1588" on="1"/>
        <pt x="842" y="1588" on="1"/>
        <pt x="842" y="226" on="1"/>
      </contour>
      <contour>
        <pt x="284" y="368" on="1"/>
        <pt x="700" y="368" on="1"/>
        <pt x="700" y="1447" on="1"/>
        <pt x="284" y="1447" on="1"/>
      </contour>
    </TTGlyph>
    <TTGlyph name="hahhamzabovefinal" xMin="142" yMin="226" xMax="842" yMax="1588">
      <contour>
        <pt x="142" y="226" on="1"/>
        <pt x="142" y="1588" on="1"/>
        <pt x="842" y="1588" on="1"/>
        <pt x="842" y="226" on="1"/>
      </contour>
      <contour>
        <pt x="284" y="368" on="1"/>
        <pt x="700" y="368" on="1"/>
        <pt x="700" y="1447" on="1"/>
        <pt x="284" y="1447" on="1"/>
      </contour>
    </TTGlyph>
    <TTGlyph name="hahhamzaboveinitial" xMin="142" yMin="226" xMax="842" yMax="1588">
      <contour>
        <pt x="142" y="226" on="1"/>
        <pt x="142" y="1588" on="1"/>
        <pt x="842" y="1588" on="1"/>
        <pt x="842" y="226" on="1"/>
      </contour>
      <contour>
        <pt x="284" y="368" on="1"/>
        <pt x="700" y="368" on="1"/>
        <pt x="700" y="1447" on="1"/>
        <pt x="284" y="1447" on="1"/>
      </contour>
    </TTGlyph>
    <TTGlyph name="hahhamzabovemedial" xMin="142" yMin="226" xMax="842" yMax="1588">
      <contour>
        <pt x="142" y="226" on="1"/>
        <pt x="142" y="1588" on="1"/>
        <pt x="842" y="1588" on="1"/>
        <pt x="842" y="226" on="1"/>
      </contour>
      <contour>
        <pt x="284" y="368" on="1"/>
        <pt x="700" y="368" on="1"/>
        <pt x="700" y="1447" on="1"/>
        <pt x="284" y="1447" on="1"/>
      </contour>
    </TTGlyph>
    <TTGlyph name="hahthreedotsabovefinal" xMin="142" yMin="226" xMax="842" yMax="1588">
      <contour>
        <pt x="142" y="226" on="1"/>
        <pt x="142" y="1588" on="1"/>
        <pt x="842" y="1588" on="1"/>
        <pt x="842" y="226" on="1"/>
      </contour>
      <contour>
        <pt x="284" y="368" on="1"/>
        <pt x="700" y="368" on="1"/>
        <pt x="700" y="1447" on="1"/>
        <pt x="284" y="1447" on="1"/>
      </contour>
    </TTGlyph>
    <TTGlyph name="hahthreedotsaboveinitial" xMin="142" yMin="226" xMax="842" yMax="1588">
      <contour>
        <pt x="142" y="226" on="1"/>
        <pt x="142" y="1588" on="1"/>
        <pt x="842" y="1588" on="1"/>
        <pt x="842" y="226" on="1"/>
      </contour>
      <contour>
        <pt x="284" y="368" on="1"/>
        <pt x="700" y="368" on="1"/>
        <pt x="700" y="1447" on="1"/>
        <pt x="284" y="1447" on="1"/>
      </contour>
    </TTGlyph>
    <TTGlyph name="hahthreedotsabovemedial" xMin="142" yMin="226" xMax="842" yMax="1588">
      <contour>
        <pt x="142" y="226" on="1"/>
        <pt x="142" y="1588" on="1"/>
        <pt x="842" y="1588" on="1"/>
        <pt x="842" y="226" on="1"/>
      </contour>
      <contour>
        <pt x="284" y="368" on="1"/>
        <pt x="700" y="368" on="1"/>
        <pt x="700" y="1447" on="1"/>
        <pt x="284" y="1447" on="1"/>
      </contour>
    </TTGlyph>
    <TTGlyph name="hehdoachashmeefinalarabic" xMin="142" yMin="226" xMax="842" yMax="1588">
      <contour>
        <pt x="142" y="226" on="1"/>
        <pt x="142" y="1588" on="1"/>
        <pt x="842" y="1588" on="1"/>
        <pt x="842" y="226" on="1"/>
      </contour>
      <contour>
        <pt x="284" y="368" on="1"/>
        <pt x="700" y="368" on="1"/>
        <pt x="700" y="1447" on="1"/>
        <pt x="284" y="1447" on="1"/>
      </contour>
    </TTGlyph>
    <TTGlyph name="hehdoachashmeeinitialarabic" xMin="142" yMin="226" xMax="842" yMax="1588">
      <contour>
        <pt x="142" y="226" on="1"/>
        <pt x="142" y="1588" on="1"/>
        <pt x="842" y="1588" on="1"/>
        <pt x="842" y="226" on="1"/>
      </contour>
      <contour>
        <pt x="284" y="368" on="1"/>
        <pt x="700" y="368" on="1"/>
        <pt x="700" y="1447" on="1"/>
        <pt x="284" y="1447" on="1"/>
      </contour>
    </TTGlyph>
    <TTGlyph name="hehdoachashmeemedialarabic" xMin="142" yMin="226" xMax="842" yMax="1588">
      <contour>
        <pt x="142" y="226" on="1"/>
        <pt x="142" y="1588" on="1"/>
        <pt x="842" y="1588" on="1"/>
        <pt x="842" y="226" on="1"/>
      </contour>
      <contour>
        <pt x="284" y="368" on="1"/>
        <pt x="700" y="368" on="1"/>
        <pt x="700" y="1447" on="1"/>
        <pt x="284" y="1447" on="1"/>
      </contour>
    </TTGlyph>
    <TTGlyph name="hehfinalaltonearabic" xMin="142" yMin="226" xMax="842" yMax="1588">
      <contour>
        <pt x="142" y="226" on="1"/>
        <pt x="142" y="1588" on="1"/>
        <pt x="842" y="1588" on="1"/>
        <pt x="842" y="226" on="1"/>
      </contour>
      <contour>
        <pt x="284" y="368" on="1"/>
        <pt x="700" y="368" on="1"/>
        <pt x="700" y="1447" on="1"/>
        <pt x="284" y="1447" on="1"/>
      </contour>
    </TTGlyph>
    <TTGlyph name="hehhamzaabovefinalarabic" xMin="142" yMin="226" xMax="842" yMax="1588">
      <contour>
        <pt x="142" y="226" on="1"/>
        <pt x="142" y="1588" on="1"/>
        <pt x="842" y="1588" on="1"/>
        <pt x="842" y="226" on="1"/>
      </contour>
      <contour>
        <pt x="284" y="368" on="1"/>
        <pt x="700" y="368" on="1"/>
        <pt x="700" y="1447" on="1"/>
        <pt x="284" y="1447" on="1"/>
      </contour>
    </TTGlyph>
    <TTGlyph name="hehinitialaltonearabic" xMin="142" yMin="226" xMax="842" yMax="1588">
      <contour>
        <pt x="142" y="226" on="1"/>
        <pt x="142" y="1588" on="1"/>
        <pt x="842" y="1588" on="1"/>
        <pt x="842" y="226" on="1"/>
      </contour>
      <contour>
        <pt x="284" y="368" on="1"/>
        <pt x="700" y="368" on="1"/>
        <pt x="700" y="1447" on="1"/>
        <pt x="284" y="1447" on="1"/>
      </contour>
    </TTGlyph>
    <TTGlyph name="hehmedialaltonearabic" xMin="142" yMin="226" xMax="842" yMax="1588">
      <contour>
        <pt x="142" y="226" on="1"/>
        <pt x="142" y="1588" on="1"/>
        <pt x="842" y="1588" on="1"/>
        <pt x="842" y="226" on="1"/>
      </contour>
      <contour>
        <pt x="284" y="368" on="1"/>
        <pt x="700" y="368" on="1"/>
        <pt x="700" y="1447" on="1"/>
        <pt x="284" y="1447" on="1"/>
      </contour>
    </TTGlyph>
    <TTGlyph name="hyphen" xMin="403" yMin="-446" xMax="7130" yMax="1919">
      <contour>
        <pt x="7078" y="1563" on="1"/>
        <pt x="6999" y="1499" on="0"/>
        <pt x="6839" y="1412" on="1"/>
        <pt x="6596" y="1281" on="0"/>
        <pt x="6584" y="1274" on="1"/>
        <pt x="6549" y="1274" on="1"/>
        <pt x="6536" y="1275" on="0"/>
        <pt x="6536" y="1299" on="1"/>
        <pt x="6536" y="1358" on="0"/>
        <pt x="6758" y="1482" on="1"/>
        <pt x="6895" y="1552" on="0"/>
        <pt x="7032" y="1620" on="1"/>
        <pt x="7078" y="1620" on="1"/>
      </contour>
      <contour>
        <pt x="7058" y="956" on="1"/>
        <pt x="7058" y="915" on="0"/>
        <pt x="7018" y="881" on="1"/>
        <pt x="6984" y="854" on="0"/>
        <pt x="6966" y="854" on="1"/>
        <pt x="6955" y="854" on="0"/>
        <pt x="6877" y="895" on="0"/>
        <pt x="6864" y="895" on="1"/>
        <pt x="6854" y="895" on="0"/>
        <pt x="6790" y="854" on="0"/>
        <pt x="6777" y="854" on="1"/>
        <pt x="6758" y="854" on="0"/>
        <pt x="6690" y="917" on="0"/>
        <pt x="6690" y="936" on="1"/>
        <pt x="6690" y="966" on="0"/>
        <pt x="6730" y="999" on="1"/>
        <pt x="6762" y="1028" on="0"/>
        <pt x="6771" y="1028" on="1"/>
        <pt x="6819" y="1028" on="0"/>
        <pt x="6860" y="986" on="1"/>
        <pt x="6875" y="991" on="0"/>
        <pt x="6905" y="1022" on="1"/>
        <pt x="6932" y="1049" on="0"/>
        <pt x="6946" y="1049" on="1"/>
        <pt x="6971" y="1049" on="0"/>
        <pt x="7058" y="973" on="0"/>
      </contour>
      <contour>
        <pt x="6475" y="1008" on="1"/>
        <pt x="6475" y="960" on="0"/>
        <pt x="6341" y="893" on="1"/>
        <pt x="6223" y="833" on="0"/>
        <pt x="6192" y="833" on="1"/>
        <pt x="6130" y="833" on="1"/>
        <pt x="6106" y="858" on="1"/>
        <pt x="6110" y="885" on="0"/>
        <pt x="6168" y="910" on="1"/>
        <pt x="6241" y="944" on="0"/>
        <pt x="6260" y="963" on="1"/>
        <pt x="6246" y="1008" on="0"/>
        <pt x="6188" y="1008" on="1"/>
        <pt x="6173" y="1008" on="0"/>
        <pt x="6137" y="990" on="1"/>
        <pt x="6087" y="968" on="0"/>
        <pt x="6080" y="967" on="1"/>
        <pt x="6073" y="968" on="0"/>
        <pt x="6055" y="981" on="1"/>
        <pt x="6150" y="1120" on="0"/>
        <pt x="6245" y="1120" on="1"/>
        <pt x="6258" y="1120" on="0"/>
        <pt x="6330" y="1091" on="1"/>
        <pt x="6426" y="1053" on="0"/>
        <pt x="6451" y="1044" on="1"/>
        <pt x="6475" y="1029" on="0"/>
      </contour>
      <contour>
        <pt x="5522" y="1430" on="1"/>
        <pt x="5453" y="1371" on="0"/>
        <pt x="5278" y="1278" on="1"/>
        <pt x="4991" y="1126" on="0"/>
        <pt x="4986" y="1122" on="1"/>
        <pt x="4977" y="1123" on="0"/>
        <pt x="4950" y="1140" on="1"/>
        <pt x="4953" y="1170" on="0"/>
        <pt x="4975" y="1212" on="1"/>
        <pt x="5068" y="1271" on="0"/>
        <pt x="5222" y="1352" on="1"/>
        <pt x="5451" y="1474" on="0"/>
        <pt x="5475" y="1488" on="1"/>
        <pt x="5522" y="1488" on="1"/>
      </contour>
      <contour>
        <pt x="5441" y="751" on="1"/>
        <pt x="5441" y="734" on="0"/>
        <pt x="5371" y="649" on="0"/>
        <pt x="5353" y="649" on="1"/>
        <pt x="5341" y="649" on="0"/>
        <pt x="5264" y="700" on="0"/>
        <pt x="5251" y="700" on="1"/>
        <pt x="5241" y="700" on="0"/>
        <pt x="5160" y="628" on="0"/>
        <pt x="5144" y="628" on="1"/>
        <pt x="5111" y="628" on="0"/>
        <pt x="5079" y="668" on="1"/>
        <pt x="5052" y="702" on="0"/>
        <pt x="5052" y="715" on="1"/>
        <pt x="5052" y="745" on="0"/>
        <pt x="5088" y="780" on="1"/>
        <pt x="5121" y="813" on="0"/>
        <pt x="5139" y="813" on="1"/>
        <pt x="5149" y="813" on="0"/>
        <pt x="5217" y="772" on="0"/>
        <pt x="5231" y="772" on="1"/>
        <pt x="5242" y="772" on="0"/>
        <pt x="5308" y="844" on="0"/>
        <pt x="5323" y="844" on="1"/>
        <pt x="5356" y="844" on="0"/>
        <pt x="5400" y="804" on="1"/>
        <pt x="5441" y="768" on="0"/>
      </contour>
      <contour>
        <pt x="4325" y="869" on="1"/>
        <pt x="4325" y="834" on="0"/>
        <pt x="4288" y="796" on="1"/>
        <pt x="4255" y="762" on="0"/>
        <pt x="4228" y="762" on="1"/>
        <pt x="4199" y="762" on="0"/>
        <pt x="4157" y="811" on="1"/>
        <pt x="4120" y="855" on="0"/>
        <pt x="4120" y="864" on="1"/>
        <pt x="4120" y="881" on="0"/>
        <pt x="4192" y="956" on="0"/>
        <pt x="4207" y="956" on="1"/>
        <pt x="4225" y="956" on="0"/>
        <pt x="4270" y="930" on="1"/>
        <pt x="4325" y="898" on="0"/>
      </contour>
      <contour>
        <pt x="3597" y="1563" on="1"/>
        <pt x="3593" y="1556" on="0"/>
        <pt x="3583" y="1540" on="0"/>
        <pt x="3568" y="1540" on="1"/>
        <pt x="3554" y="1540" on="0"/>
        <pt x="3457" y="1591" on="0"/>
        <pt x="3445" y="1591" on="1"/>
        <pt x="3433" y="1581" on="1"/>
        <pt x="3393" y="1533" on="0"/>
        <pt x="3310" y="1451" on="1"/>
        <pt x="3169" y="1345" on="0"/>
        <pt x="3131" y="1346" on="1"/>
        <pt x="3057" y="1346" on="1"/>
        <pt x="3053" y="1385" on="0"/>
        <pt x="3115" y="1434" on="1"/>
        <pt x="3174" y="1475" on="0"/>
        <pt x="3232" y="1515" on="1"/>
        <pt x="3342" y="1594" on="0"/>
        <pt x="3342" y="1611" on="1"/>
        <pt x="3342" y="1624" on="0"/>
        <pt x="3260" y="1716" on="0"/>
        <pt x="3260" y="1729" on="1"/>
        <pt x="3260" y="1774" on="0"/>
        <pt x="3306" y="1841" on="1"/>
        <pt x="3359" y="1919" on="0"/>
        <pt x="3418" y="1919" on="1"/>
        <pt x="3486" y="1919" on="0"/>
        <pt x="3486" y="1836" on="1"/>
        <pt x="3486" y="1815" on="0"/>
        <pt x="3481" y="1770" on="1"/>
        <pt x="3476" y="1732" on="0"/>
        <pt x="3477" y="1721" on="1"/>
        <pt x="3497" y="1700" on="0"/>
        <pt x="3535" y="1678" on="1"/>
        <pt x="3585" y="1649" on="0"/>
        <pt x="3597" y="1639" on="1"/>
      </contour>
      <contour>
        <pt x="7130" y="265" on="1"/>
        <pt x="7130" y="209" on="0"/>
        <pt x="7129" y="205" on="1"/>
        <pt x="7123" y="169" on="0"/>
        <pt x="7084" y="88" on="1"/>
        <pt x="7075" y="73" on="0"/>
        <pt x="7056" y="58" on="1"/>
        <pt x="6866" y="25" on="0"/>
        <pt x="6839" y="25" on="1"/>
        <pt x="6826" y="25" on="0"/>
        <pt x="6694" y="75" on="0"/>
        <pt x="6685" y="75" on="1"/>
        <pt x="6671" y="75" on="0"/>
        <pt x="6662" y="62" on="1"/>
        <pt x="6644" y="38" on="0"/>
        <pt x="6644" y="36" on="1"/>
        <pt x="6601" y="-6" on="0"/>
        <pt x="6541" y="-6" on="1"/>
        <pt x="6531" y="-6" on="0"/>
        <pt x="6468" y="14" on="0"/>
        <pt x="6454" y="14" on="1"/>
        <pt x="6441" y="14" on="0"/>
        <pt x="6309" y="-27" on="0"/>
        <pt x="6296" y="-27" on="1"/>
        <pt x="6268" y="-27" on="0"/>
        <pt x="6108" y="14" on="0"/>
        <pt x="6111" y="14" on="1"/>
        <pt x="6101" y="14" on="0"/>
        <pt x="6054" y="0" on="1"/>
        <pt x="6001" y="-16" on="0"/>
        <pt x="5969" y="-20" on="1"/>
        <pt x="5755" y="-47" on="0"/>
        <pt x="5687" y="-47" on="1"/>
        <pt x="5603" y="-47" on="0"/>
        <pt x="5473" y="-32" on="1"/>
        <pt x="5336" y="-18" on="0"/>
        <pt x="5301" y="-3" on="1"/>
        <pt x="5290" y="1" on="0"/>
        <pt x="5234" y="41" on="1"/>
        <pt x="5184" y="75" on="0"/>
        <pt x="5170" y="75" on="1"/>
        <pt x="5158" y="75" on="0"/>
        <pt x="5125" y="42" on="1"/>
        <pt x="5088" y="4" on="0"/>
        <pt x="5069" y="-3" on="1"/>
        <pt x="4963" y="-47" on="0"/>
        <pt x="4781" y="-47" on="1"/>
        <pt x="4642" y="-47" on="0"/>
        <pt x="4594" y="19" on="1"/>
        <pt x="4568" y="55" on="0"/>
        <pt x="4561" y="143" on="1"/>
        <pt x="4556" y="209" on="0"/>
        <pt x="4524" y="209" on="1"/>
        <pt x="4468" y="209" on="0"/>
        <pt x="4365" y="162" on="1"/>
        <pt x="4201" y="89" on="0"/>
        <pt x="4198" y="88" on="1"/>
        <pt x="3935" y="-6" on="0"/>
        <pt x="3813" y="-6" on="1"/>
        <pt x="3708" y="-6" on="0"/>
        <pt x="3480" y="75" on="0"/>
        <pt x="3475" y="75" on="1"/>
        <pt x="3450" y="75" on="0"/>
        <pt x="3355" y="49" on="1"/>
        <pt x="3245" y="19" on="0"/>
        <pt x="3196" y="-9" on="1"/>
        <pt x="3174" y="-22" on="0"/>
        <pt x="3154" y="-72" on="1"/>
        <pt x="3138" y="-114" on="0"/>
        <pt x="3123" y="-157" on="1"/>
        <pt x="3085" y="-233" on="0"/>
        <pt x="2933" y="-385" on="0"/>
        <pt x="2847" y="-422" on="1"/>
        <pt x="2794" y="-446" on="0"/>
        <pt x="2728" y="-446" on="1"/>
        <pt x="2635" y="-446" on="1"/>
        <pt x="2561" y="-446" on="0"/>
        <pt x="2480" y="-420" on="1"/>
        <pt x="2388" y="-389" on="0"/>
        <pt x="2370" y="-347" on="1"/>
        <pt x="2391" y="-340" on="0"/>
        <pt x="2463" y="-346" on="1"/>
        <pt x="2552" y="-354" on="0"/>
        <pt x="2548" y="-354" on="1"/>
        <pt x="2718" y="-354" on="0"/>
        <pt x="2825" y="-294" on="1"/>
        <pt x="2947" y="-227" on="0"/>
        <pt x="3097" y="-32" on="1"/>
        <pt x="3076" y="-18" on="0"/>
        <pt x="2940" y="15" on="1"/>
        <pt x="2840" y="39" on="0"/>
        <pt x="2840" y="96" on="1"/>
        <pt x="2840" y="169" on="0"/>
        <pt x="2884" y="270" on="1"/>
        <pt x="2938" y="393" on="0"/>
        <pt x="3009" y="393" on="1"/>
        <pt x="3069" y="393" on="0"/>
        <pt x="3168" y="147" on="0"/>
        <pt x="3204" y="147" on="1"/>
        <pt x="3278" y="147" on="0"/>
        <pt x="3335" y="170" on="1"/>
        <pt x="3353" y="175" on="0"/>
        <pt x="3379" y="205" on="1"/>
        <pt x="3397" y="277" on="0"/>
        <pt x="3437" y="421" on="1"/>
        <pt x="3453" y="442" on="0"/>
        <pt x="3458" y="462" on="1"/>
        <pt x="3575" y="608" on="0"/>
        <pt x="3639" y="608" on="1"/>
        <pt x="3704" y="608" on="0"/>
        <pt x="3717" y="574" on="1"/>
        <pt x="3762" y="454" on="0"/>
        <pt x="3762" y="393" on="1"/>
        <pt x="3762" y="368" on="0"/>
        <pt x="3733" y="302" on="1"/>
        <pt x="3703" y="233" on="0"/>
        <pt x="3680" y="211" on="1"/>
        <pt x="3680" y="185" on="1"/>
        <pt x="3683" y="181" on="0"/>
        <pt x="3697" y="170" on="1"/>
        <pt x="3722" y="170" on="0"/>
        <pt x="3848" y="147" on="0"/>
        <pt x="3859" y="147" on="1"/>
        <pt x="3934" y="147" on="0"/>
        <pt x="4064" y="188" on="1"/>
        <pt x="4202" y="230" on="0"/>
        <pt x="4253" y="275" on="1"/>
        <pt x="4147" y="373" on="0"/>
        <pt x="4074" y="373" on="1"/>
        <pt x="4019" y="373" on="0"/>
        <pt x="3917" y="333" on="1"/>
        <pt x="3917" y="366" on="1"/>
        <pt x="3916" y="425" on="0"/>
        <pt x="4021" y="486" on="1"/>
        <pt x="4108" y="537" on="0"/>
        <pt x="4140" y="537" on="1"/>
        <pt x="4152" y="537" on="0"/>
        <pt x="4202" y="504" on="1"/>
        <pt x="4261" y="465" on="0"/>
        <pt x="4281" y="456" on="1"/>
        <pt x="4560" y="338" on="0"/>
        <pt x="4780" y="338" on="1"/>
        <pt x="4818" y="338" on="0"/>
        <pt x="4855" y="341" on="1"/>
        <pt x="4868" y="340" on="0"/>
        <pt x="4868" y="316" on="1"/>
        <pt x="4868" y="284" on="0"/>
        <pt x="4778" y="188" on="0"/>
        <pt x="4745" y="188" on="1"/>
        <pt x="4732" y="188" on="0"/>
        <pt x="4680" y="188" on="0"/>
        <pt x="4669" y="188" on="1"/>
        <pt x="4652" y="172" on="1"/>
        <pt x="4687" y="117" on="0"/>
        <pt x="4736" y="108" on="1"/>
        <pt x="4744" y="106" on="0"/>
        <pt x="4852" y="106" on="1"/>
        <pt x="5003" y="106" on="0"/>
        <pt x="5075" y="139" on="1"/>
        <pt x="5093" y="147" on="0"/>
        <pt x="5144" y="196" on="1"/>
        <pt x="5189" y="239" on="0"/>
        <pt x="5205" y="239" on="1"/>
        <pt x="5217" y="239" on="0"/>
        <pt x="5271" y="201" on="1"/>
        <pt x="5332" y="156" on="0"/>
        <pt x="5346" y="149" on="1"/>
        <pt x="5435" y="106" on="0"/>
        <pt x="5599" y="106" on="1"/>
        <pt x="5612" y="106" on="0"/>
        <pt x="5817" y="86" on="0"/>
        <pt x="5830" y="86" on="1"/>
        <pt x="5842" y="86" on="0"/>
        <pt x="6060" y="129" on="1"/>
        <pt x="6088" y="135" on="0"/>
        <pt x="6139" y="170" on="1"/>
        <pt x="6165" y="199" on="0"/>
        <pt x="6222" y="259" on="1"/>
        <pt x="6259" y="259" on="1"/>
        <pt x="6259" y="181" on="0"/>
        <pt x="6229" y="122" on="1"/>
        <pt x="6243" y="96" on="0"/>
        <pt x="6275" y="96" on="1"/>
        <pt x="6324" y="96" on="0"/>
        <pt x="6374" y="117" on="1"/>
        <pt x="6419" y="136" on="0"/>
        <pt x="6431" y="155" on="1"/>
        <pt x="6502" y="265" on="0"/>
        <pt x="6535" y="259" on="1"/>
        <pt x="6546" y="234" on="0"/>
        <pt x="6526" y="174" on="1"/>
        <pt x="6540" y="147" on="0"/>
        <pt x="6577" y="147" on="1"/>
        <pt x="6643" y="147" on="0"/>
        <pt x="6676" y="223" on="1"/>
        <pt x="6712" y="308" on="0"/>
        <pt x="6749" y="321" on="1"/>
        <pt x="6767" y="271" on="0"/>
        <pt x="6751" y="224" on="1"/>
        <pt x="6799" y="178" on="0"/>
        <pt x="6859" y="178" on="1"/>
        <pt x="6908" y="178" on="0"/>
        <pt x="7039" y="197" on="1"/>
        <pt x="7039" y="200" on="0"/>
        <pt x="7048" y="204" on="0"/>
        <pt x="7048" y="219" on="1"/>
        <pt x="7048" y="236" on="0"/>
        <pt x="7000" y="343" on="1"/>
        <pt x="6950" y="455" on="0"/>
        <pt x="6928" y="483" on="1"/>
        <pt x="6912" y="489" on="0"/>
        <pt x="6886" y="499" on="1"/>
        <pt x="6853" y="556" on="0"/>
        <pt x="6853" y="578" on="1"/>
        <pt x="6853" y="632" on="0"/>
        <pt x="6898" y="720" on="1"/>
        <pt x="6960" y="707" on="0"/>
        <pt x="7046" y="535" on="1"/>
        <pt x="7130" y="366" on="0"/>
      </contour>
      <contour>
        <pt x="3609" y="1350" on="1"/>
        <pt x="3609" y="1215" on="0"/>
        <pt x="3533" y="1185" on="1"/>
        <pt x="3496" y="1176" on="0"/>
        <pt x="3431" y="1158" on="1"/>
        <pt x="3419" y="1153" on="0"/>
        <pt x="3371" y="1130" on="1"/>
        <pt x="3331" y="1110" on="0"/>
        <pt x="3316" y="1110" on="1"/>
        <pt x="3298" y="1110" on="0"/>
        <pt x="3240" y="1166" on="0"/>
        <pt x="3240" y="1186" on="1"/>
        <pt x="3240" y="1229" on="0"/>
        <pt x="3296" y="1304" on="1"/>
        <pt x="3309" y="1276" on="0"/>
        <pt x="3349" y="1222" on="1"/>
        <pt x="3390" y="1226" on="0"/>
        <pt x="3405" y="1272" on="1"/>
        <pt x="3432" y="1346" on="0"/>
        <pt x="3439" y="1356" on="1"/>
        <pt x="3450" y="1330" on="0"/>
        <pt x="3492" y="1273" on="1"/>
        <pt x="3510" y="1273" on="0"/>
        <pt x="3533" y="1301" on="1"/>
        <pt x="3536" y="1336" on="0"/>
        <pt x="3581" y="1427" on="1"/>
        <pt x="3609" y="1401" on="0"/>
      </contour>
      <contour>
        <pt x="3527" y="890" on="1"/>
        <pt x="3527" y="859" on="0"/>
        <pt x="3450" y="782" on="1"/>
        <pt x="3363" y="834" on="0"/>
        <pt x="3363" y="874" on="1"/>
        <pt x="3363" y="900" on="0"/>
        <pt x="3427" y="967" on="0"/>
        <pt x="3450" y="967" on="1"/>
        <pt x="3476" y="967" on="0"/>
        <pt x="3502" y="937" on="1"/>
        <pt x="3527" y="911" on="0"/>
      </contour>
      <contour>
        <pt x="4560" y="-175" on="1"/>
        <pt x="4560" y="-204" on="0"/>
        <pt x="4517" y="-228" on="1"/>
        <pt x="4415" y="-281" on="0"/>
        <pt x="4089" y="-425" on="0"/>
        <pt x="4069" y="-425" on="1"/>
        <pt x="4028" y="-425" on="0"/>
        <pt x="4028" y="-385" on="1"/>
        <pt x="4028" y="-336" on="0"/>
        <pt x="4072" y="-317" on="1"/>
        <pt x="4172" y="-274" on="0"/>
        <pt x="4513" y="-130" on="1"/>
        <pt x="4560" y="-130" on="1"/>
      </contour>
      <contour>
        <pt x="2553" y="1441" on="1"/>
        <pt x="2553" y="1411" on="0"/>
        <pt x="2317" y="1262" on="1"/>
        <pt x="2092" y="1120" on="0"/>
        <pt x="1994" y="1079" on="1"/>
        <pt x="1980" y="1081" on="0"/>
        <pt x="1980" y="1104" on="1"/>
        <pt x="1980" y="1162" on="0"/>
        <pt x="2104" y="1239" on="1"/>
        <pt x="2181" y="1283" on="0"/>
        <pt x="2258" y="1326" on="1"/>
        <pt x="2345" y="1380" on="0"/>
        <pt x="2506" y="1488" on="1"/>
        <pt x="2553" y="1488" on="1"/>
      </contour>
      <contour>
        <pt x="2431" y="797" on="1"/>
        <pt x="2431" y="781" on="0"/>
        <pt x="2366" y="710" on="0"/>
        <pt x="2349" y="710" on="1"/>
        <pt x="2323" y="710" on="0"/>
        <pt x="2236" y="780" on="0"/>
        <pt x="2236" y="797" on="1"/>
        <pt x="2236" y="815" on="0"/>
        <pt x="2260" y="851" on="1"/>
        <pt x="2290" y="895" on="0"/>
        <pt x="2323" y="895" on="1"/>
        <pt x="2363" y="895" on="0"/>
        <pt x="2398" y="862" on="1"/>
        <pt x="2431" y="830" on="0"/>
      </contour>
      <contour>
        <pt x="1827" y="1443" on="1"/>
        <pt x="1827" y="1389" on="0"/>
        <pt x="1793" y="1369" on="1"/>
        <pt x="1632" y="1279" on="0"/>
        <pt x="1312" y="1096" on="1"/>
        <pt x="1208" y="1034" on="0"/>
        <pt x="981" y="905" on="1"/>
        <pt x="967" y="920" on="0"/>
        <pt x="967" y="946" on="1"/>
        <pt x="967" y="1003" on="0"/>
        <pt x="1161" y="1118" on="1"/>
        <pt x="1259" y="1171" on="0"/>
        <pt x="1358" y="1224" on="1"/>
        <pt x="1491" y="1305" on="0"/>
        <pt x="1757" y="1464" on="1"/>
        <pt x="1774" y="1466" on="0"/>
        <pt x="1812" y="1478" on="1"/>
        <pt x="1827" y="1464" on="0"/>
      </contour>
      <contour>
        <pt x="2564" y="306" on="1"/>
        <pt x="2564" y="150" on="0"/>
        <pt x="2480" y="89" on="1"/>
        <pt x="2453" y="70" on="0"/>
        <pt x="2365" y="48" on="1"/>
        <pt x="2153" y="-6" on="0"/>
        <pt x="2021" y="-6" on="1"/>
        <pt x="2013" y="-6" on="0"/>
        <pt x="1905" y="-14" on="0"/>
        <pt x="1877" y="-14" on="1"/>
        <pt x="1909" y="-173" on="0"/>
        <pt x="1909" y="-159" on="1"/>
        <pt x="1909" y="-232" on="0"/>
        <pt x="1878" y="-308" on="1"/>
        <pt x="1839" y="-405" on="0"/>
        <pt x="1775" y="-405" on="1"/>
        <pt x="1655" y="-405" on="0"/>
        <pt x="1587" y="-303" on="1"/>
        <pt x="1566" y="-272" on="0"/>
        <pt x="1506" y="-115" on="1"/>
        <pt x="1489" y="-74" on="0"/>
        <pt x="1439" y="-86" on="1"/>
        <pt x="1444" y="-58" on="0"/>
        <pt x="1449" y="-30" on="1"/>
        <pt x="1455" y="4" on="0"/>
        <pt x="1438" y="4" on="1"/>
        <pt x="1425" y="4" on="0"/>
        <pt x="1380" y="-22" on="0"/>
        <pt x="1372" y="-23" on="1"/>
        <pt x="1116" y="-67" on="0"/>
        <pt x="890" y="-67" on="1"/>
        <pt x="765" y="-67" on="0"/>
        <pt x="763" y="-67" on="1"/>
        <pt x="685" y="-56" on="0"/>
        <pt x="580" y="7" on="1"/>
        <pt x="549" y="26" on="0"/>
        <pt x="529" y="79" on="1"/>
        <pt x="497" y="165" on="0"/>
        <pt x="471" y="449" on="1"/>
        <pt x="459" y="502" on="0"/>
        <pt x="437" y="612" on="1"/>
        <pt x="403" y="804" on="0"/>
        <pt x="403" y="976" on="1"/>
        <pt x="403" y="1036" on="0"/>
        <pt x="458" y="1109" on="1"/>
        <pt x="483" y="1107" on="0"/>
        <pt x="496" y="1049" on="1"/>
        <pt x="504" y="1001" on="0"/>
        <pt x="512" y="952" on="1"/>
        <pt x="513" y="899" on="0"/>
        <pt x="517" y="801" on="1"/>
        <pt x="517" y="788" on="0"/>
        <pt x="519" y="777" on="1"/>
        <pt x="535" y="637" on="0"/>
        <pt x="551" y="496" on="1"/>
        <pt x="572" y="330" on="0"/>
        <pt x="600" y="215" on="1"/>
        <pt x="620" y="133" on="0"/>
        <pt x="737" y="109" on="1"/>
        <pt x="898" y="75" on="0"/>
        <pt x="956" y="75" on="1"/>
        <pt x="1017" y="75" on="1"/>
        <pt x="1030" y="75" on="0"/>
        <pt x="1119" y="92" on="0"/>
        <pt x="1135" y="93" on="1"/>
        <pt x="1227" y="97" on="0"/>
        <pt x="1360" y="123" on="1"/>
        <pt x="1390" y="126" on="0"/>
        <pt x="1420" y="129" on="1"/>
        <pt x="1463" y="135" on="0"/>
        <pt x="1479" y="158" on="1"/>
        <pt x="1488" y="171" on="0"/>
        <pt x="1574" y="360" on="1"/>
        <pt x="1588" y="390" on="0"/>
        <pt x="1651" y="481" on="1"/>
        <pt x="1732" y="598" on="0"/>
        <pt x="1765" y="598" on="1"/>
        <pt x="1810" y="598" on="0"/>
        <pt x="1842" y="505" on="1"/>
        <pt x="1868" y="432" on="0"/>
        <pt x="1868" y="373" on="1"/>
        <pt x="1868" y="317" on="0"/>
        <pt x="1813" y="222" on="1"/>
        <pt x="1772" y="151" on="0"/>
        <pt x="1745" y="122" on="1"/>
        <pt x="1746" y="120" on="0"/>
        <pt x="1749" y="111" on="1"/>
        <pt x="1750" y="106" on="0"/>
        <pt x="1765" y="106" on="1"/>
        <pt x="1778" y="106" on="0"/>
        <pt x="1993" y="127" on="0"/>
        <pt x="2005" y="127" on="1"/>
        <pt x="2110" y="127" on="0"/>
        <pt x="2283" y="167" on="1"/>
        <pt x="2453" y="206" on="0"/>
        <pt x="2482" y="234" on="1"/>
        <pt x="2476" y="280" on="0"/>
        <pt x="2359" y="426" on="0"/>
        <pt x="2359" y="439" on="1"/>
        <pt x="2359" y="482" on="0"/>
        <pt x="2403" y="546" on="1"/>
        <pt x="2448" y="546" on="1"/>
        <pt x="2564" y="440" on="0"/>
      </contour>
      <contour>
        <pt x="3423" y="1782" on="1"/>
        <pt x="3400" y="1806" on="0"/>
        <pt x="3376" y="1806" on="1"/>
        <pt x="3343" y="1773" on="0"/>
        <pt x="3343" y="1767" on="1"/>
        <pt x="3353" y="1762" on="0"/>
        <pt x="3400" y="1740" on="0"/>
        <pt x="3410" y="1734" on="1"/>
      </contour>
      <contour>
        <pt x="3659" y="367" on="1"/>
        <pt x="3651" y="455" on="0"/>
        <pt x="3609" y="455" on="1"/>
        <pt x="3582" y="455" on="0"/>
        <pt x="3475" y="349" on="0"/>
        <pt x="3475" y="326" on="1"/>
        <pt x="3475" y="306" on="0"/>
        <pt x="3515" y="260" on="0"/>
        <pt x="3536" y="260" on="1"/>
        <pt x="3575" y="260" on="0"/>
        <pt x="3615" y="290" on="1"/>
        <pt x="3659" y="324" on="0"/>
      </contour>
      <contour>
        <pt x="3024" y="170" on="1"/>
        <pt x="3024" y="194" on="0"/>
        <pt x="2979" y="239" on="1"/>
        <pt x="2943" y="204" on="0"/>
        <pt x="2943" y="193" on="1"/>
        <pt x="2943" y="170" on="0"/>
        <pt x="2955" y="170" on="1"/>
        <pt x="2988" y="152" on="0"/>
      </contour>
      <contour>
        <pt x="1775" y="326" on="1"/>
        <pt x="1775" y="377" on="0"/>
        <pt x="1719" y="434" on="1"/>
        <pt x="1592" y="247" on="0"/>
        <pt x="1592" y="243" on="1"/>
        <pt x="1592" y="210" on="1"/>
        <pt x="1636" y="210" on="1"/>
        <pt x="1666" y="209" on="0"/>
        <pt x="1775" y="299" on="0"/>
      </contour>
      <contour>
        <pt x="1826" y="-184" on="1"/>
        <pt x="1792" y="-154" on="0"/>
        <pt x="1642" y="-86" on="0"/>
        <pt x="1613" y="-86" on="1"/>
        <pt x="1601" y="-86" on="0"/>
        <pt x="1601" y="-93" on="1"/>
        <pt x="1601" y="-148" on="0"/>
        <pt x="1664" y="-197" on="1"/>
        <pt x="1719" y="-241" on="0"/>
        <pt x="1760" y="-241" on="1"/>
        <pt x="1807" y="-241" on="0"/>
      </contour>
    </TTGlyph>
    <TTGlyph name="irghizufinal" xMin="142" yMin="226" xMax="842" yMax="1588">
      <contour>
        <pt x="142" y="226" on="1"/>
        <pt x="142" y="1588" on="1"/>
        <pt x="842" y="1588" on="1"/>
        <pt x="842" y="226" on="1"/>
      </contour>
      <contour>
        <pt x="284" y="368" on="1"/>
        <pt x="700" y="368" on="1"/>
        <pt x="700" y="1447" on="1"/>
        <pt x="284" y="1447" on="1"/>
      </contour>
    </TTGlyph>
    <TTGlyph name="jehfinalarabic" xMin="142" yMin="226" xMax="842" yMax="1588">
      <contour>
        <pt x="142" y="226" on="1"/>
        <pt x="142" y="1588" on="1"/>
        <pt x="842" y="1588" on="1"/>
        <pt x="842" y="226" on="1"/>
      </contour>
      <contour>
        <pt x="284" y="368" on="1"/>
        <pt x="700" y="368" on="1"/>
        <pt x="700" y="1447" on="1"/>
        <pt x="284" y="1447" on="1"/>
      </contour>
    </TTGlyph>
    <TTGlyph name="kafringfinal" xMin="142" yMin="226" xMax="842" yMax="1588">
      <contour>
        <pt x="142" y="226" on="1"/>
        <pt x="142" y="1588" on="1"/>
        <pt x="842" y="1588" on="1"/>
        <pt x="842" y="226" on="1"/>
      </contour>
      <contour>
        <pt x="284" y="368" on="1"/>
        <pt x="700" y="368" on="1"/>
        <pt x="700" y="1447" on="1"/>
        <pt x="284" y="1447" on="1"/>
      </contour>
    </TTGlyph>
    <TTGlyph name="kafringinitial" xMin="142" yMin="226" xMax="842" yMax="1588">
      <contour>
        <pt x="142" y="226" on="1"/>
        <pt x="142" y="1588" on="1"/>
        <pt x="842" y="1588" on="1"/>
        <pt x="842" y="226" on="1"/>
      </contour>
      <contour>
        <pt x="284" y="368" on="1"/>
        <pt x="700" y="368" on="1"/>
        <pt x="700" y="1447" on="1"/>
        <pt x="284" y="1447" on="1"/>
      </contour>
    </TTGlyph>
    <TTGlyph name="kafringmedial" xMin="142" yMin="226" xMax="842" yMax="1588">
      <contour>
        <pt x="142" y="226" on="1"/>
        <pt x="142" y="1588" on="1"/>
        <pt x="842" y="1588" on="1"/>
        <pt x="842" y="226" on="1"/>
      </contour>
      <contour>
        <pt x="284" y="368" on="1"/>
        <pt x="700" y="368" on="1"/>
        <pt x="700" y="1447" on="1"/>
        <pt x="284" y="1447" on="1"/>
      </contour>
    </TTGlyph>
    <TTGlyph name="kashidaautoarabic" xMin="142" yMin="226" xMax="842" yMax="1588">
      <contour>
        <pt x="142" y="226" on="1"/>
        <pt x="142" y="1588" on="1"/>
        <pt x="842" y="1588" on="1"/>
        <pt x="842" y="226" on="1"/>
      </contour>
      <contour>
        <pt x="284" y="368" on="1"/>
        <pt x="700" y="368" on="1"/>
        <pt x="700" y="1447" on="1"/>
        <pt x="284" y="1447" on="1"/>
      </contour>
    </TTGlyph>
    <TTGlyph name="kashidaautonosidebearingarabic" xMin="142" yMin="226" xMax="842" yMax="1588">
      <contour>
        <pt x="142" y="226" on="1"/>
        <pt x="142" y="1588" on="1"/>
        <pt x="842" y="1588" on="1"/>
        <pt x="842" y="226" on="1"/>
      </contour>
      <contour>
        <pt x="284" y="368" on="1"/>
        <pt x="700" y="368" on="1"/>
        <pt x="700" y="1447" on="1"/>
        <pt x="284" y="1447" on="1"/>
      </contour>
    </TTGlyph>
    <TTGlyph name="kehehfinalarabic" xMin="142" yMin="226" xMax="842" yMax="1588">
      <contour>
        <pt x="142" y="226" on="1"/>
        <pt x="142" y="1588" on="1"/>
        <pt x="842" y="1588" on="1"/>
        <pt x="842" y="226" on="1"/>
      </contour>
      <contour>
        <pt x="284" y="368" on="1"/>
        <pt x="700" y="368" on="1"/>
        <pt x="700" y="1447" on="1"/>
        <pt x="284" y="1447" on="1"/>
      </contour>
    </TTGlyph>
    <TTGlyph name="kehehinitialarabic" xMin="142" yMin="226" xMax="842" yMax="1588">
      <contour>
        <pt x="142" y="226" on="1"/>
        <pt x="142" y="1588" on="1"/>
        <pt x="842" y="1588" on="1"/>
        <pt x="842" y="226" on="1"/>
      </contour>
      <contour>
        <pt x="284" y="368" on="1"/>
        <pt x="700" y="368" on="1"/>
        <pt x="700" y="1447" on="1"/>
        <pt x="284" y="1447" on="1"/>
      </contour>
    </TTGlyph>
    <TTGlyph name="kehehmedialarabic" xMin="142" yMin="226" xMax="842" yMax="1588">
      <contour>
        <pt x="142" y="226" on="1"/>
        <pt x="142" y="1588" on="1"/>
        <pt x="842" y="1588" on="1"/>
        <pt x="842" y="226" on="1"/>
      </contour>
      <contour>
        <pt x="284" y="368" on="1"/>
        <pt x="700" y="368" on="1"/>
        <pt x="700" y="1447" on="1"/>
        <pt x="284" y="1447" on="1"/>
      </contour>
    </TTGlyph>
    <TTGlyph name="kirghizyifinal" xMin="142" yMin="226" xMax="842" yMax="1588">
      <contour>
        <pt x="142" y="226" on="1"/>
        <pt x="142" y="1588" on="1"/>
        <pt x="842" y="1588" on="1"/>
        <pt x="842" y="226" on="1"/>
      </contour>
      <contour>
        <pt x="284" y="368" on="1"/>
        <pt x="700" y="368" on="1"/>
        <pt x="700" y="1447" on="1"/>
        <pt x="284" y="1447" on="1"/>
      </contour>
    </TTGlyph>
    <TTGlyph name="lammeemjeeminitialarabic" xMin="142" yMin="226" xMax="842" yMax="1588">
      <contour>
        <pt x="142" y="226" on="1"/>
        <pt x="142" y="1588" on="1"/>
        <pt x="842" y="1588" on="1"/>
        <pt x="842" y="226" on="1"/>
      </contour>
      <contour>
        <pt x="284" y="368" on="1"/>
        <pt x="700" y="368" on="1"/>
        <pt x="700" y="1447" on="1"/>
        <pt x="284" y="1447" on="1"/>
      </contour>
    </TTGlyph>
    <TTGlyph name="lammeemkhahinitialarabic" xMin="142" yMin="226" xMax="842" yMax="1588">
      <contour>
        <pt x="142" y="226" on="1"/>
        <pt x="142" y="1588" on="1"/>
        <pt x="842" y="1588" on="1"/>
        <pt x="842" y="226" on="1"/>
      </contour>
      <contour>
        <pt x="284" y="368" on="1"/>
        <pt x="700" y="368" on="1"/>
        <pt x="700" y="1447" on="1"/>
        <pt x="284" y="1447" on="1"/>
      </contour>
    </TTGlyph>
    <TTGlyph name="lamthreedotsabovefinal" xMin="142" yMin="226" xMax="842" yMax="1588">
      <contour>
        <pt x="142" y="226" on="1"/>
        <pt x="142" y="1588" on="1"/>
        <pt x="842" y="1588" on="1"/>
        <pt x="842" y="226" on="1"/>
      </contour>
      <contour>
        <pt x="284" y="368" on="1"/>
        <pt x="700" y="368" on="1"/>
        <pt x="700" y="1447" on="1"/>
        <pt x="284" y="1447" on="1"/>
      </contour>
    </TTGlyph>
    <TTGlyph name="lamthreedotsaboveinitial" xMin="142" yMin="226" xMax="842" yMax="1588">
      <contour>
        <pt x="142" y="226" on="1"/>
        <pt x="142" y="1588" on="1"/>
        <pt x="842" y="1588" on="1"/>
        <pt x="842" y="226" on="1"/>
      </contour>
      <contour>
        <pt x="284" y="368" on="1"/>
        <pt x="700" y="368" on="1"/>
        <pt x="700" y="1447" on="1"/>
        <pt x="284" y="1447" on="1"/>
      </contour>
    </TTGlyph>
    <TTGlyph name="lamthreedotsabovemedial" xMin="142" yMin="226" xMax="842" yMax="1588">
      <contour>
        <pt x="142" y="226" on="1"/>
        <pt x="142" y="1588" on="1"/>
        <pt x="842" y="1588" on="1"/>
        <pt x="842" y="226" on="1"/>
      </contour>
      <contour>
        <pt x="284" y="368" on="1"/>
        <pt x="700" y="368" on="1"/>
        <pt x="700" y="1447" on="1"/>
        <pt x="284" y="1447" on="1"/>
      </contour>
    </TTGlyph>
    <TTGlyph name="less" xMin="142" yMin="226" xMax="842" yMax="1588">
      <contour>
        <pt x="142" y="226" on="1"/>
        <pt x="142" y="1588" on="1"/>
        <pt x="842" y="1588" on="1"/>
        <pt x="842" y="226" on="1"/>
      </contour>
      <contour>
        <pt x="284" y="368" on="1"/>
        <pt x="700" y="368" on="1"/>
        <pt x="700" y="1447" on="1"/>
        <pt x="284" y="1447" on="1"/>
      </contour>
    </TTGlyph>
    <TTGlyph name="meemmeemisolatedarabic" xMin="142" yMin="226" xMax="842" yMax="1588">
      <contour>
        <pt x="142" y="226" on="1"/>
        <pt x="142" y="1588" on="1"/>
        <pt x="842" y="1588" on="1"/>
        <pt x="842" y="226" on="1"/>
      </contour>
      <contour>
        <pt x="284" y="368" on="1"/>
        <pt x="700" y="368" on="1"/>
        <pt x="700" y="1447" on="1"/>
        <pt x="284" y="1447" on="1"/>
      </contour>
    </TTGlyph>
    <TTGlyph name="multiply" xMin="142" yMin="226" xMax="842" yMax="1588">
      <contour>
        <pt x="142" y="226" on="1"/>
        <pt x="142" y="1588" on="1"/>
        <pt x="842" y="1588" on="1"/>
        <pt x="842" y="226" on="1"/>
      </contour>
      <contour>
        <pt x="284" y="368" on="1"/>
        <pt x="700" y="368" on="1"/>
        <pt x="700" y="1447" on="1"/>
        <pt x="284" y="1447" on="1"/>
      </contour>
    </TTGlyph>
    <TTGlyph name="noonghunnafinalarabic" xMin="142" yMin="226" xMax="842" yMax="1588">
      <contour>
        <pt x="142" y="226" on="1"/>
        <pt x="142" y="1588" on="1"/>
        <pt x="842" y="1588" on="1"/>
        <pt x="842" y="226" on="1"/>
      </contour>
      <contour>
        <pt x="284" y="368" on="1"/>
        <pt x="700" y="368" on="1"/>
        <pt x="700" y="1447" on="1"/>
        <pt x="284" y="1447" on="1"/>
      </contour>
    </TTGlyph>
    <TTGlyph name="noonjeemisolatedarabic" xMin="142" yMin="226" xMax="842" yMax="1588">
      <contour>
        <pt x="142" y="226" on="1"/>
        <pt x="142" y="1588" on="1"/>
        <pt x="842" y="1588" on="1"/>
        <pt x="842" y="226" on="1"/>
      </contour>
      <contour>
        <pt x="284" y="368" on="1"/>
        <pt x="700" y="368" on="1"/>
        <pt x="700" y="1447" on="1"/>
        <pt x="284" y="1447" on="1"/>
      </contour>
    </TTGlyph>
    <TTGlyph name="noonmeemisolatedarabic" xMin="142" yMin="226" xMax="842" yMax="1588">
      <contour>
        <pt x="142" y="226" on="1"/>
        <pt x="142" y="1588" on="1"/>
        <pt x="842" y="1588" on="1"/>
        <pt x="842" y="226" on="1"/>
      </contour>
      <contour>
        <pt x="284" y="368" on="1"/>
        <pt x="700" y="368" on="1"/>
        <pt x="700" y="1447" on="1"/>
        <pt x="284" y="1447" on="1"/>
      </contour>
    </TTGlyph>
    <TTGlyph name="noonringfinal" xMin="142" yMin="226" xMax="842" yMax="1588">
      <contour>
        <pt x="142" y="226" on="1"/>
        <pt x="142" y="1588" on="1"/>
        <pt x="842" y="1588" on="1"/>
        <pt x="842" y="226" on="1"/>
      </contour>
      <contour>
        <pt x="284" y="368" on="1"/>
        <pt x="700" y="368" on="1"/>
        <pt x="700" y="1447" on="1"/>
        <pt x="284" y="1447" on="1"/>
      </contour>
    </TTGlyph>
    <TTGlyph name="noonringinitial" xMin="142" yMin="226" xMax="842" yMax="1588">
      <contour>
        <pt x="142" y="226" on="1"/>
        <pt x="142" y="1588" on="1"/>
        <pt x="842" y="1588" on="1"/>
        <pt x="842" y="226" on="1"/>
      </contour>
      <contour>
        <pt x="284" y="368" on="1"/>
        <pt x="700" y="368" on="1"/>
        <pt x="700" y="1447" on="1"/>
        <pt x="284" y="1447" on="1"/>
      </contour>
    </TTGlyph>
    <TTGlyph name="noonringmedial" xMin="142" yMin="226" xMax="842" yMax="1588">
      <contour>
        <pt x="142" y="226" on="1"/>
        <pt x="142" y="1588" on="1"/>
        <pt x="842" y="1588" on="1"/>
        <pt x="842" y="226" on="1"/>
      </contour>
      <contour>
        <pt x="284" y="368" on="1"/>
        <pt x="700" y="368" on="1"/>
        <pt x="700" y="1447" on="1"/>
        <pt x="284" y="1447" on="1"/>
      </contour>
    </TTGlyph>
    <TTGlyph name="numbersign" xMin="142" yMin="226" xMax="842" yMax="1588">
      <contour>
        <pt x="142" y="226" on="1"/>
        <pt x="142" y="1588" on="1"/>
        <pt x="842" y="1588" on="1"/>
        <pt x="842" y="226" on="1"/>
      </contour>
      <contour>
        <pt x="284" y="368" on="1"/>
        <pt x="700" y="368" on="1"/>
        <pt x="700" y="1447" on="1"/>
        <pt x="284" y="1447" on="1"/>
      </contour>
    </TTGlyph>
    <TTGlyph name="parenleft" xMin="142" yMin="226" xMax="842" yMax="1588">
      <contour>
        <pt x="142" y="226" on="1"/>
        <pt x="142" y="1588" on="1"/>
        <pt x="842" y="1588" on="1"/>
        <pt x="842" y="226" on="1"/>
      </contour>
      <contour>
        <pt x="284" y="368" on="1"/>
        <pt x="700" y="368" on="1"/>
        <pt x="700" y="1447" on="1"/>
        <pt x="284" y="1447" on="1"/>
      </contour>
    </TTGlyph>
    <TTGlyph name="parenright" xMin="142" yMin="226" xMax="842" yMax="1588">
      <contour>
        <pt x="142" y="226" on="1"/>
        <pt x="142" y="1588" on="1"/>
        <pt x="842" y="1588" on="1"/>
        <pt x="842" y="226" on="1"/>
      </contour>
      <contour>
        <pt x="284" y="368" on="1"/>
        <pt x="700" y="368" on="1"/>
        <pt x="700" y="1447" on="1"/>
        <pt x="284" y="1447" on="1"/>
      </contour>
    </TTGlyph>
    <TTGlyph name="pashtoefinal" xMin="142" yMin="226" xMax="842" yMax="1588">
      <contour>
        <pt x="142" y="226" on="1"/>
        <pt x="142" y="1588" on="1"/>
        <pt x="842" y="1588" on="1"/>
        <pt x="842" y="226" on="1"/>
      </contour>
      <contour>
        <pt x="284" y="368" on="1"/>
        <pt x="700" y="368" on="1"/>
        <pt x="700" y="1447" on="1"/>
        <pt x="284" y="1447" on="1"/>
      </contour>
    </TTGlyph>
    <TTGlyph name="pashtoeinitial" xMin="142" yMin="226" xMax="842" yMax="1588">
      <contour>
        <pt x="142" y="226" on="1"/>
        <pt x="142" y="1588" on="1"/>
        <pt x="842" y="1588" on="1"/>
        <pt x="842" y="226" on="1"/>
      </contour>
      <contour>
        <pt x="284" y="368" on="1"/>
        <pt x="700" y="368" on="1"/>
        <pt x="700" y="1447" on="1"/>
        <pt x="284" y="1447" on="1"/>
      </contour>
    </TTGlyph>
    <TTGlyph name="pashtoemedial" xMin="142" yMin="226" xMax="842" yMax="1588">
      <contour>
        <pt x="142" y="226" on="1"/>
        <pt x="142" y="1588" on="1"/>
        <pt x="842" y="1588" on="1"/>
        <pt x="842" y="226" on="1"/>
      </contour>
      <contour>
        <pt x="284" y="368" on="1"/>
        <pt x="700" y="368" on="1"/>
        <pt x="700" y="1447" on="1"/>
        <pt x="284" y="1447" on="1"/>
      </contour>
    </TTGlyph>
    <TTGlyph name="pehfinalarabic" xMin="142" yMin="226" xMax="842" yMax="1588">
      <contour>
        <pt x="142" y="226" on="1"/>
        <pt x="142" y="1588" on="1"/>
        <pt x="842" y="1588" on="1"/>
        <pt x="842" y="226" on="1"/>
      </contour>
      <contour>
        <pt x="284" y="368" on="1"/>
        <pt x="700" y="368" on="1"/>
        <pt x="700" y="1447" on="1"/>
        <pt x="284" y="1447" on="1"/>
      </contour>
    </TTGlyph>
    <TTGlyph name="pehinitialarabic" xMin="142" yMin="226" xMax="842" yMax="1588">
      <contour>
        <pt x="142" y="226" on="1"/>
        <pt x="142" y="1588" on="1"/>
        <pt x="842" y="1588" on="1"/>
        <pt x="842" y="226" on="1"/>
      </contour>
      <contour>
        <pt x="284" y="368" on="1"/>
        <pt x="700" y="368" on="1"/>
        <pt x="700" y="1447" on="1"/>
        <pt x="284" y="1447" on="1"/>
      </contour>
    </TTGlyph>
    <TTGlyph name="pehmedialarabic" xMin="142" yMin="226" xMax="842" yMax="1588">
      <contour>
        <pt x="142" y="226" on="1"/>
        <pt x="142" y="1588" on="1"/>
        <pt x="842" y="1588" on="1"/>
        <pt x="842" y="226" on="1"/>
      </contour>
      <contour>
        <pt x="284" y="368" on="1"/>
        <pt x="700" y="368" on="1"/>
        <pt x="700" y="1447" on="1"/>
        <pt x="284" y="1447" on="1"/>
      </contour>
    </TTGlyph>
    <TTGlyph name="percent" xMin="142" yMin="226" xMax="842" yMax="1588">
      <contour>
        <pt x="142" y="226" on="1"/>
        <pt x="142" y="1588" on="1"/>
        <pt x="842" y="1588" on="1"/>
        <pt x="842" y="226" on="1"/>
      </contour>
      <contour>
        <pt x="284" y="368" on="1"/>
        <pt x="700" y="368" on="1"/>
        <pt x="700" y="1447" on="1"/>
        <pt x="284" y="1447" on="1"/>
      </contour>
    </TTGlyph>
    <TTGlyph name="period" xMin="142" yMin="226" xMax="842" yMax="1588">
      <contour>
        <pt x="142" y="226" on="1"/>
        <pt x="142" y="1588" on="1"/>
        <pt x="842" y="1588" on="1"/>
        <pt x="842" y="226" on="1"/>
      </contour>
      <contour>
        <pt x="284" y="368" on="1"/>
        <pt x="700" y="368" on="1"/>
        <pt x="700" y="1447" on="1"/>
        <pt x="284" y="1447" on="1"/>
      </contour>
    </TTGlyph>
    <TTGlyph name="plus" xMin="142" yMin="226" xMax="842" yMax="1588">
      <contour>
        <pt x="142" y="226" on="1"/>
        <pt x="142" y="1588" on="1"/>
        <pt x="842" y="1588" on="1"/>
        <pt x="842" y="226" on="1"/>
      </contour>
      <contour>
        <pt x="284" y="368" on="1"/>
        <pt x="700" y="368" on="1"/>
        <pt x="700" y="1447" on="1"/>
        <pt x="284" y="1447" on="1"/>
      </contour>
    </TTGlyph>
    <TTGlyph name="quotedbl" xMin="142" yMin="226" xMax="842" yMax="1588">
      <contour>
        <pt x="142" y="226" on="1"/>
        <pt x="142" y="1588" on="1"/>
        <pt x="842" y="1588" on="1"/>
        <pt x="842" y="226" on="1"/>
      </contour>
      <contour>
        <pt x="284" y="368" on="1"/>
        <pt x="700" y="368" on="1"/>
        <pt x="700" y="1447" on="1"/>
        <pt x="284" y="1447" on="1"/>
      </contour>
    </TTGlyph>
    <TTGlyph name="quotesingle" xMin="142" yMin="226" xMax="842" yMax="1588">
      <contour>
        <pt x="142" y="226" on="1"/>
        <pt x="142" y="1588" on="1"/>
        <pt x="842" y="1588" on="1"/>
        <pt x="842" y="226" on="1"/>
      </contour>
      <contour>
        <pt x="284" y="368" on="1"/>
        <pt x="700" y="368" on="1"/>
        <pt x="700" y="1447" on="1"/>
        <pt x="284" y="1447" on="1"/>
      </contour>
    </TTGlyph>
    <TTGlyph name="rehdotbelowdotabovefinal" xMin="142" yMin="226" xMax="842" yMax="1588">
      <contour>
        <pt x="142" y="226" on="1"/>
        <pt x="142" y="1588" on="1"/>
        <pt x="842" y="1588" on="1"/>
        <pt x="842" y="226" on="1"/>
      </contour>
      <contour>
        <pt x="284" y="368" on="1"/>
        <pt x="700" y="368" on="1"/>
        <pt x="700" y="1447" on="1"/>
        <pt x="284" y="1447" on="1"/>
      </contour>
    </TTGlyph>
    <TTGlyph name="rehringfinal" xMin="142" yMin="226" xMax="842" yMax="1588">
      <contour>
        <pt x="142" y="226" on="1"/>
        <pt x="142" y="1588" on="1"/>
        <pt x="842" y="1588" on="1"/>
        <pt x="842" y="226" on="1"/>
      </contour>
      <contour>
        <pt x="284" y="368" on="1"/>
        <pt x="700" y="368" on="1"/>
        <pt x="700" y="1447" on="1"/>
        <pt x="284" y="1447" on="1"/>
      </contour>
    </TTGlyph>
    <TTGlyph name="rrehfinalarabic" xMin="142" yMin="226" xMax="842" yMax="1588">
      <contour>
        <pt x="142" y="226" on="1"/>
        <pt x="142" y="1588" on="1"/>
        <pt x="842" y="1588" on="1"/>
        <pt x="842" y="226" on="1"/>
      </contour>
      <contour>
        <pt x="284" y="368" on="1"/>
        <pt x="700" y="368" on="1"/>
        <pt x="700" y="1447" on="1"/>
        <pt x="284" y="1447" on="1"/>
      </contour>
    </TTGlyph>
    <TTGlyph name="seendotbelowdotabovefinal" xMin="142" yMin="226" xMax="842" yMax="1588">
      <contour>
        <pt x="142" y="226" on="1"/>
        <pt x="142" y="1588" on="1"/>
        <pt x="842" y="1588" on="1"/>
        <pt x="842" y="226" on="1"/>
      </contour>
      <contour>
        <pt x="284" y="368" on="1"/>
        <pt x="700" y="368" on="1"/>
        <pt x="700" y="1447" on="1"/>
        <pt x="284" y="1447" on="1"/>
      </contour>
    </TTGlyph>
    <TTGlyph name="seendotbelowdotaboveinitial" xMin="142" yMin="226" xMax="842" yMax="1588">
      <contour>
        <pt x="142" y="226" on="1"/>
        <pt x="142" y="1588" on="1"/>
        <pt x="842" y="1588" on="1"/>
        <pt x="842" y="226" on="1"/>
      </contour>
      <contour>
        <pt x="284" y="368" on="1"/>
        <pt x="700" y="368" on="1"/>
        <pt x="700" y="1447" on="1"/>
        <pt x="284" y="1447" on="1"/>
      </contour>
    </TTGlyph>
    <TTGlyph name="seendotbelowdotabovemedial" xMin="142" yMin="226" xMax="842" yMax="1588">
      <contour>
        <pt x="142" y="226" on="1"/>
        <pt x="142" y="1588" on="1"/>
        <pt x="842" y="1588" on="1"/>
        <pt x="842" y="226" on="1"/>
      </contour>
      <contour>
        <pt x="284" y="368" on="1"/>
        <pt x="700" y="368" on="1"/>
        <pt x="700" y="1447" on="1"/>
        <pt x="284" y="1447" on="1"/>
      </contour>
    </TTGlyph>
    <TTGlyph name="shaddadammaarabic" xMin="142" yMin="226" xMax="842" yMax="1588">
      <contour>
        <pt x="142" y="226" on="1"/>
        <pt x="142" y="1588" on="1"/>
        <pt x="842" y="1588" on="1"/>
        <pt x="842" y="226" on="1"/>
      </contour>
      <contour>
        <pt x="284" y="368" on="1"/>
        <pt x="700" y="368" on="1"/>
        <pt x="700" y="1447" on="1"/>
        <pt x="284" y="1447" on="1"/>
      </contour>
    </TTGlyph>
    <TTGlyph name="shaddadammatanarabic" xMin="142" yMin="226" xMax="842" yMax="1588">
      <contour>
        <pt x="142" y="226" on="1"/>
        <pt x="142" y="1588" on="1"/>
        <pt x="842" y="1588" on="1"/>
        <pt x="842" y="226" on="1"/>
      </contour>
      <contour>
        <pt x="284" y="368" on="1"/>
        <pt x="700" y="368" on="1"/>
        <pt x="700" y="1447" on="1"/>
        <pt x="284" y="1447" on="1"/>
      </contour>
    </TTGlyph>
    <TTGlyph name="shaddafathaarabic" xMin="142" yMin="226" xMax="842" yMax="1588">
      <contour>
        <pt x="142" y="226" on="1"/>
        <pt x="142" y="1588" on="1"/>
        <pt x="842" y="1588" on="1"/>
        <pt x="842" y="226" on="1"/>
      </contour>
      <contour>
        <pt x="284" y="368" on="1"/>
        <pt x="700" y="368" on="1"/>
        <pt x="700" y="1447" on="1"/>
        <pt x="284" y="1447" on="1"/>
      </contour>
    </TTGlyph>
    <TTGlyph name="shaddakasraarabic" xMin="142" yMin="226" xMax="842" yMax="1588">
      <contour>
        <pt x="142" y="226" on="1"/>
        <pt x="142" y="1588" on="1"/>
        <pt x="842" y="1588" on="1"/>
        <pt x="842" y="226" on="1"/>
      </contour>
      <contour>
        <pt x="284" y="368" on="1"/>
        <pt x="700" y="368" on="1"/>
        <pt x="700" y="1447" on="1"/>
        <pt x="284" y="1447" on="1"/>
      </contour>
    </TTGlyph>
    <TTGlyph name="shaddakasratanarabic" xMin="142" yMin="226" xMax="842" yMax="1588">
      <contour>
        <pt x="142" y="226" on="1"/>
        <pt x="142" y="1588" on="1"/>
        <pt x="842" y="1588" on="1"/>
        <pt x="842" y="226" on="1"/>
      </contour>
      <contour>
        <pt x="284" y="368" on="1"/>
        <pt x="700" y="368" on="1"/>
        <pt x="700" y="1447" on="1"/>
        <pt x="284" y="1447" on="1"/>
      </contour>
    </TTGlyph>
    <TTGlyph name="slash" xMin="142" yMin="226" xMax="842" yMax="1588">
      <contour>
        <pt x="142" y="226" on="1"/>
        <pt x="142" y="1588" on="1"/>
        <pt x="842" y="1588" on="1"/>
        <pt x="842" y="226" on="1"/>
      </contour>
      <contour>
        <pt x="284" y="368" on="1"/>
        <pt x="700" y="368" on="1"/>
        <pt x="700" y="1447" on="1"/>
        <pt x="284" y="1447" on="1"/>
      </contour>
    </TTGlyph>
    <TTGlyph name="space" xMin="142" yMin="226" xMax="842" yMax="1588">
      <contour>
        <pt x="142" y="226" on="1"/>
        <pt x="142" y="1588" on="1"/>
        <pt x="842" y="1588" on="1"/>
        <pt x="842" y="226" on="1"/>
      </contour>
      <contour>
        <pt x="284" y="368" on="1"/>
        <pt x="700" y="368" on="1"/>
        <pt x="700" y="1447" on="1"/>
        <pt x="284" y="1447" on="1"/>
      </contour>
    </TTGlyph>
    <TTGlyph name="tchehfinalarabic" xMin="142" yMin="226" xMax="842" yMax="1588">
      <contour>
        <pt x="142" y="226" on="1"/>
        <pt x="142" y="1588" on="1"/>
        <pt x="842" y="1588" on="1"/>
        <pt x="842" y="226" on="1"/>
      </contour>
      <contour>
        <pt x="284" y="368" on="1"/>
        <pt x="700" y="368" on="1"/>
        <pt x="700" y="1447" on="1"/>
        <pt x="284" y="1447" on="1"/>
      </contour>
    </TTGlyph>
    <TTGlyph name="tchehinitialarabic" xMin="142" yMin="226" xMax="842" yMax="1588">
      <contour>
        <pt x="142" y="226" on="1"/>
        <pt x="142" y="1588" on="1"/>
        <pt x="842" y="1588" on="1"/>
        <pt x="842" y="226" on="1"/>
      </contour>
      <contour>
        <pt x="284" y="368" on="1"/>
        <pt x="700" y="368" on="1"/>
        <pt x="700" y="1447" on="1"/>
        <pt x="284" y="1447" on="1"/>
      </contour>
    </TTGlyph>
    <TTGlyph name="tchehmedialarabic" xMin="142" yMin="226" xMax="842" yMax="1588">
      <contour>
        <pt x="142" y="226" on="1"/>
        <pt x="142" y="1588" on="1"/>
        <pt x="842" y="1588" on="1"/>
        <pt x="842" y="226" on="1"/>
      </contour>
      <contour>
        <pt x="284" y="368" on="1"/>
        <pt x="700" y="368" on="1"/>
        <pt x="700" y="1447" on="1"/>
        <pt x="284" y="1447" on="1"/>
      </contour>
    </TTGlyph>
    <TTGlyph name="tehhahisolatedarabic" xMin="142" yMin="226" xMax="842" yMax="1588">
      <contour>
        <pt x="142" y="226" on="1"/>
        <pt x="142" y="1588" on="1"/>
        <pt x="842" y="1588" on="1"/>
        <pt x="842" y="226" on="1"/>
      </contour>
      <contour>
        <pt x="284" y="368" on="1"/>
        <pt x="700" y="368" on="1"/>
        <pt x="700" y="1447" on="1"/>
        <pt x="284" y="1447" on="1"/>
      </contour>
    </TTGlyph>
    <TTGlyph name="tehjeemisolatedarabic" xMin="142" yMin="226" xMax="842" yMax="1588">
      <contour>
        <pt x="142" y="226" on="1"/>
        <pt x="142" y="1588" on="1"/>
        <pt x="842" y="1588" on="1"/>
        <pt x="842" y="226" on="1"/>
      </contour>
      <contour>
        <pt x="284" y="368" on="1"/>
        <pt x="700" y="368" on="1"/>
        <pt x="700" y="1447" on="1"/>
        <pt x="284" y="1447" on="1"/>
      </contour>
    </TTGlyph>
    <TTGlyph name="tehmeemisolatedarabic" xMin="142" yMin="226" xMax="842" yMax="1588">
      <contour>
        <pt x="142" y="226" on="1"/>
        <pt x="142" y="1588" on="1"/>
        <pt x="842" y="1588" on="1"/>
        <pt x="842" y="226" on="1"/>
      </contour>
      <contour>
        <pt x="284" y="368" on="1"/>
        <pt x="700" y="368" on="1"/>
        <pt x="700" y="1447" on="1"/>
        <pt x="284" y="1447" on="1"/>
      </contour>
    </TTGlyph>
    <TTGlyph name="tehnoonfinalarabic" xMin="142" yMin="226" xMax="842" yMax="1588">
      <contour>
        <pt x="142" y="226" on="1"/>
        <pt x="142" y="1588" on="1"/>
        <pt x="842" y="1588" on="1"/>
        <pt x="842" y="226" on="1"/>
      </contour>
      <contour>
        <pt x="284" y="368" on="1"/>
        <pt x="700" y="368" on="1"/>
        <pt x="700" y="1447" on="1"/>
        <pt x="284" y="1447" on="1"/>
      </contour>
    </TTGlyph>
    <TTGlyph name="tehringfinal" xMin="142" yMin="226" xMax="842" yMax="1588">
      <contour>
        <pt x="142" y="226" on="1"/>
        <pt x="142" y="1588" on="1"/>
        <pt x="842" y="1588" on="1"/>
        <pt x="842" y="226" on="1"/>
      </contour>
      <contour>
        <pt x="284" y="368" on="1"/>
        <pt x="700" y="368" on="1"/>
        <pt x="700" y="1447" on="1"/>
        <pt x="284" y="1447" on="1"/>
      </contour>
    </TTGlyph>
    <TTGlyph name="tehringinitial" xMin="142" yMin="226" xMax="842" yMax="1588">
      <contour>
        <pt x="142" y="226" on="1"/>
        <pt x="142" y="1588" on="1"/>
        <pt x="842" y="1588" on="1"/>
        <pt x="842" y="226" on="1"/>
      </contour>
      <contour>
        <pt x="284" y="368" on="1"/>
        <pt x="700" y="368" on="1"/>
        <pt x="700" y="1447" on="1"/>
        <pt x="284" y="1447" on="1"/>
      </contour>
    </TTGlyph>
    <TTGlyph name="tehringmedial" xMin="142" yMin="226" xMax="842" yMax="1588">
      <contour>
        <pt x="142" y="226" on="1"/>
        <pt x="142" y="1588" on="1"/>
        <pt x="842" y="1588" on="1"/>
        <pt x="842" y="226" on="1"/>
      </contour>
      <contour>
        <pt x="284" y="368" on="1"/>
        <pt x="700" y="368" on="1"/>
        <pt x="700" y="1447" on="1"/>
        <pt x="284" y="1447" on="1"/>
      </contour>
    </TTGlyph>
    <TTGlyph name="ttehfinalarabic" xMin="142" yMin="226" xMax="842" yMax="1588">
      <contour>
        <pt x="142" y="226" on="1"/>
        <pt x="142" y="1588" on="1"/>
        <pt x="842" y="1588" on="1"/>
        <pt x="842" y="226" on="1"/>
      </contour>
      <contour>
        <pt x="284" y="368" on="1"/>
        <pt x="700" y="368" on="1"/>
        <pt x="700" y="1447" on="1"/>
        <pt x="284" y="1447" on="1"/>
      </contour>
    </TTGlyph>
    <TTGlyph name="ttehinitialarabic" xMin="142" yMin="226" xMax="842" yMax="1588">
      <contour>
        <pt x="142" y="226" on="1"/>
        <pt x="142" y="1588" on="1"/>
        <pt x="842" y="1588" on="1"/>
        <pt x="842" y="226" on="1"/>
      </contour>
      <contour>
        <pt x="284" y="368" on="1"/>
        <pt x="700" y="368" on="1"/>
        <pt x="700" y="1447" on="1"/>
        <pt x="284" y="1447" on="1"/>
      </contour>
    </TTGlyph>
    <TTGlyph name="ttehmedialarabic" xMin="142" yMin="226" xMax="842" yMax="1588">
      <contour>
        <pt x="142" y="226" on="1"/>
        <pt x="142" y="1588" on="1"/>
        <pt x="842" y="1588" on="1"/>
        <pt x="842" y="226" on="1"/>
      </contour>
      <contour>
        <pt x="284" y="368" on="1"/>
        <pt x="700" y="368" on="1"/>
        <pt x="700" y="1447" on="1"/>
        <pt x="284" y="1447" on="1"/>
      </contour>
    </TTGlyph>
    <TTGlyph name="uni000D" xMin="142" yMin="226" xMax="842" yMax="1588">
      <contour>
        <pt x="142" y="226" on="1"/>
        <pt x="142" y="1588" on="1"/>
        <pt x="842" y="1588" on="1"/>
        <pt x="842" y="226" on="1"/>
      </contour>
      <contour>
        <pt x="284" y="368" on="1"/>
        <pt x="700" y="368" on="1"/>
        <pt x="700" y="1447" on="1"/>
        <pt x="284" y="1447" on="1"/>
      </contour>
    </TTGlyph>
    <TTGlyph name="uni00A0" xMin="142" yMin="226" xMax="842" yMax="1588">
      <contour>
        <pt x="142" y="226" on="1"/>
        <pt x="142" y="1588" on="1"/>
        <pt x="842" y="1588" on="1"/>
        <pt x="842" y="226" on="1"/>
      </contour>
      <contour>
        <pt x="284" y="368" on="1"/>
        <pt x="700" y="368" on="1"/>
        <pt x="700" y="1447" on="1"/>
        <pt x="284" y="1447" on="1"/>
      </contour>
    </TTGlyph>
    <TTGlyph name="uni00AD" xMin="142" yMin="226" xMax="842" yMax="1588">
      <contour>
        <pt x="142" y="226" on="1"/>
        <pt x="142" y="1588" on="1"/>
        <pt x="842" y="1588" on="1"/>
        <pt x="842" y="226" on="1"/>
      </contour>
      <contour>
        <pt x="284" y="368" on="1"/>
        <pt x="700" y="368" on="1"/>
        <pt x="700" y="1447" on="1"/>
        <pt x="284" y="1447" on="1"/>
      </contour>
    </TTGlyph>
    <TTGlyph name="uni0653" xMin="142" yMin="226" xMax="842" yMax="1588">
      <contour>
        <pt x="142" y="226" on="1"/>
        <pt x="142" y="1588" on="1"/>
        <pt x="842" y="1588" on="1"/>
        <pt x="842" y="226" on="1"/>
      </contour>
      <contour>
        <pt x="284" y="368" on="1"/>
        <pt x="700" y="368" on="1"/>
        <pt x="700" y="1447" on="1"/>
        <pt x="284" y="1447" on="1"/>
      </contour>
    </TTGlyph>
    <TTGlyph name="uni0654" xMin="142" yMin="226" xMax="842" yMax="1588">
      <contour>
        <pt x="142" y="226" on="1"/>
        <pt x="142" y="1588" on="1"/>
        <pt x="842" y="1588" on="1"/>
        <pt x="842" y="226" on="1"/>
      </contour>
      <contour>
        <pt x="284" y="368" on="1"/>
        <pt x="700" y="368" on="1"/>
        <pt x="700" y="1447" on="1"/>
        <pt x="284" y="1447" on="1"/>
      </contour>
    </TTGlyph>
    <TTGlyph name="uni0655" xMin="142" yMin="226" xMax="842" yMax="1588">
      <contour>
        <pt x="142" y="226" on="1"/>
        <pt x="142" y="1588" on="1"/>
        <pt x="842" y="1588" on="1"/>
        <pt x="842" y="226" on="1"/>
      </contour>
      <contour>
        <pt x="284" y="368" on="1"/>
        <pt x="700" y="368" on="1"/>
        <pt x="700" y="1447" on="1"/>
        <pt x="284" y="1447" on="1"/>
      </contour>
    </TTGlyph>
    <TTGlyph name="uni066B" xMin="142" yMin="226" xMax="842" yMax="1588">
      <contour>
        <pt x="142" y="226" on="1"/>
        <pt x="142" y="1588" on="1"/>
        <pt x="842" y="1588" on="1"/>
        <pt x="842" y="226" on="1"/>
      </contour>
      <contour>
        <pt x="284" y="368" on="1"/>
        <pt x="700" y="368" on="1"/>
        <pt x="700" y="1447" on="1"/>
        <pt x="284" y="1447" on="1"/>
      </contour>
    </TTGlyph>
    <TTGlyph name="uni066C" xMin="142" yMin="226" xMax="842" yMax="1588">
      <contour>
        <pt x="142" y="226" on="1"/>
        <pt x="142" y="1588" on="1"/>
        <pt x="842" y="1588" on="1"/>
        <pt x="842" y="226" on="1"/>
      </contour>
      <contour>
        <pt x="284" y="368" on="1"/>
        <pt x="700" y="368" on="1"/>
        <pt x="700" y="1447" on="1"/>
        <pt x="284" y="1447" on="1"/>
      </contour>
    </TTGlyph>
    <TTGlyph name="uni0671" xMin="142" yMin="226" xMax="842" yMax="1588">
      <contour>
        <pt x="142" y="226" on="1"/>
        <pt x="142" y="1588" on="1"/>
        <pt x="842" y="1588" on="1"/>
        <pt x="842" y="226" on="1"/>
      </contour>
      <contour>
        <pt x="284" y="368" on="1"/>
        <pt x="700" y="368" on="1"/>
        <pt x="700" y="1447" on="1"/>
        <pt x="284" y="1447" on="1"/>
      </contour>
    </TTGlyph>
    <TTGlyph name="uni067C" xMin="142" yMin="226" xMax="842" yMax="1588">
      <contour>
        <pt x="142" y="226" on="1"/>
        <pt x="142" y="1588" on="1"/>
        <pt x="842" y="1588" on="1"/>
        <pt x="842" y="226" on="1"/>
      </contour>
      <contour>
        <pt x="284" y="368" on="1"/>
        <pt x="700" y="368" on="1"/>
        <pt x="700" y="1447" on="1"/>
        <pt x="284" y="1447" on="1"/>
      </contour>
    </TTGlyph>
    <TTGlyph name="uni0681" xMin="142" yMin="226" xMax="842" yMax="1588">
      <contour>
        <pt x="142" y="226" on="1"/>
        <pt x="142" y="1588" on="1"/>
        <pt x="842" y="1588" on="1"/>
        <pt x="842" y="226" on="1"/>
      </contour>
      <contour>
        <pt x="284" y="368" on="1"/>
        <pt x="700" y="368" on="1"/>
        <pt x="700" y="1447" on="1"/>
        <pt x="284" y="1447" on="1"/>
      </contour>
    </TTGlyph>
    <TTGlyph name="uni0685" xMin="142" yMin="226" xMax="842" yMax="1588">
      <contour>
        <pt x="142" y="226" on="1"/>
        <pt x="142" y="1588" on="1"/>
        <pt x="842" y="1588" on="1"/>
        <pt x="842" y="226" on="1"/>
      </contour>
      <contour>
        <pt x="284" y="368" on="1"/>
        <pt x="700" y="368" on="1"/>
        <pt x="700" y="1447" on="1"/>
        <pt x="284" y="1447" on="1"/>
      </contour>
    </TTGlyph>
    <TTGlyph name="uni0689" xMin="142" yMin="226" xMax="842" yMax="1588">
      <contour>
        <pt x="142" y="226" on="1"/>
        <pt x="142" y="1588" on="1"/>
        <pt x="842" y="1588" on="1"/>
        <pt x="842" y="226" on="1"/>
      </contour>
      <contour>
        <pt x="284" y="368" on="1"/>
        <pt x="700" y="368" on="1"/>
        <pt x="700" y="1447" on="1"/>
        <pt x="284" y="1447" on="1"/>
      </contour>
    </TTGlyph>
    <TTGlyph name="uni0693" xMin="142" yMin="226" xMax="842" yMax="1588">
      <contour>
        <pt x="142" y="226" on="1"/>
        <pt x="142" y="1588" on="1"/>
        <pt x="842" y="1588" on="1"/>
        <pt x="842" y="226" on="1"/>
      </contour>
      <contour>
        <pt x="284" y="368" on="1"/>
        <pt x="700" y="368" on="1"/>
        <pt x="700" y="1447" on="1"/>
        <pt x="284" y="1447" on="1"/>
      </contour>
    </TTGlyph>
    <TTGlyph name="uni0696" xMin="142" yMin="226" xMax="842" yMax="1588">
      <contour>
        <pt x="142" y="226" on="1"/>
        <pt x="142" y="1588" on="1"/>
        <pt x="842" y="1588" on="1"/>
        <pt x="842" y="226" on="1"/>
      </contour>
      <contour>
        <pt x="284" y="368" on="1"/>
        <pt x="700" y="368" on="1"/>
        <pt x="700" y="1447" on="1"/>
        <pt x="284" y="1447" on="1"/>
      </contour>
    </TTGlyph>
    <TTGlyph name="uni069A" xMin="142" yMin="226" xMax="842" yMax="1588">
      <contour>
        <pt x="142" y="226" on="1"/>
        <pt x="142" y="1588" on="1"/>
        <pt x="842" y="1588" on="1"/>
        <pt x="842" y="226" on="1"/>
      </contour>
      <contour>
        <pt x="284" y="368" on="1"/>
        <pt x="700" y="368" on="1"/>
        <pt x="700" y="1447" on="1"/>
        <pt x="284" y="1447" on="1"/>
      </contour>
    </TTGlyph>
    <TTGlyph name="uni06A9" xMin="142" yMin="226" xMax="842" yMax="1588">
      <contour>
        <pt x="142" y="226" on="1"/>
        <pt x="142" y="1588" on="1"/>
        <pt x="842" y="1588" on="1"/>
        <pt x="842" y="226" on="1"/>
      </contour>
      <contour>
        <pt x="284" y="368" on="1"/>
        <pt x="700" y="368" on="1"/>
        <pt x="700" y="1447" on="1"/>
        <pt x="284" y="1447" on="1"/>
      </contour>
    </TTGlyph>
    <TTGlyph name="uni06AB" xMin="142" yMin="226" xMax="842" yMax="1588">
      <contour>
        <pt x="142" y="226" on="1"/>
        <pt x="142" y="1588" on="1"/>
        <pt x="842" y="1588" on="1"/>
        <pt x="842" y="226" on="1"/>
      </contour>
      <contour>
        <pt x="284" y="368" on="1"/>
        <pt x="700" y="368" on="1"/>
        <pt x="700" y="1447" on="1"/>
        <pt x="284" y="1447" on="1"/>
      </contour>
    </TTGlyph>
    <TTGlyph name="uni06B7" xMin="142" yMin="226" xMax="842" yMax="1588">
      <contour>
        <pt x="142" y="226" on="1"/>
        <pt x="142" y="1588" on="1"/>
        <pt x="842" y="1588" on="1"/>
        <pt x="842" y="226" on="1"/>
      </contour>
      <contour>
        <pt x="284" y="368" on="1"/>
        <pt x="700" y="368" on="1"/>
        <pt x="700" y="1447" on="1"/>
        <pt x="284" y="1447" on="1"/>
      </contour>
    </TTGlyph>
    <TTGlyph name="uni06BC" xMin="142" yMin="226" xMax="842" yMax="1588">
      <contour>
        <pt x="142" y="226" on="1"/>
        <pt x="142" y="1588" on="1"/>
        <pt x="842" y="1588" on="1"/>
        <pt x="842" y="226" on="1"/>
      </contour>
      <contour>
        <pt x="284" y="368" on="1"/>
        <pt x="700" y="368" on="1"/>
        <pt x="700" y="1447" on="1"/>
        <pt x="284" y="1447" on="1"/>
      </contour>
    </TTGlyph>
    <TTGlyph name="uni06BE" xMin="142" yMin="226" xMax="842" yMax="1588">
      <contour>
        <pt x="142" y="226" on="1"/>
        <pt x="142" y="1588" on="1"/>
        <pt x="842" y="1588" on="1"/>
        <pt x="842" y="226" on="1"/>
      </contour>
      <contour>
        <pt x="284" y="368" on="1"/>
        <pt x="700" y="368" on="1"/>
        <pt x="700" y="1447" on="1"/>
        <pt x="284" y="1447" on="1"/>
      </contour>
    </TTGlyph>
    <TTGlyph name="uni06C2" xMin="142" yMin="226" xMax="842" yMax="1588">
      <contour>
        <pt x="142" y="226" on="1"/>
        <pt x="142" y="1588" on="1"/>
        <pt x="842" y="1588" on="1"/>
        <pt x="842" y="226" on="1"/>
      </contour>
      <contour>
        <pt x="284" y="368" on="1"/>
        <pt x="700" y="368" on="1"/>
        <pt x="700" y="1447" on="1"/>
        <pt x="284" y="1447" on="1"/>
      </contour>
    </TTGlyph>
    <TTGlyph name="uni06C7" xMin="142" yMin="226" xMax="842" yMax="1588">
      <contour>
        <pt x="142" y="226" on="1"/>
        <pt x="142" y="1588" on="1"/>
        <pt x="842" y="1588" on="1"/>
        <pt x="842" y="226" on="1"/>
      </contour>
      <contour>
        <pt x="284" y="368" on="1"/>
        <pt x="700" y="368" on="1"/>
        <pt x="700" y="1447" on="1"/>
        <pt x="284" y="1447" on="1"/>
      </contour>
    </TTGlyph>
    <TTGlyph name="uni06C9" xMin="142" yMin="226" xMax="842" yMax="1588">
      <contour>
        <pt x="142" y="226" on="1"/>
        <pt x="142" y="1588" on="1"/>
        <pt x="842" y="1588" on="1"/>
        <pt x="842" y="226" on="1"/>
      </contour>
      <contour>
        <pt x="284" y="368" on="1"/>
        <pt x="700" y="368" on="1"/>
        <pt x="700" y="1447" on="1"/>
        <pt x="284" y="1447" on="1"/>
      </contour>
    </TTGlyph>
    <TTGlyph name="uni06CC" xMin="142" yMin="226" xMax="842" yMax="1588">
      <contour>
        <pt x="142" y="226" on="1"/>
        <pt x="142" y="1588" on="1"/>
        <pt x="842" y="1588" on="1"/>
        <pt x="842" y="226" on="1"/>
      </contour>
      <contour>
        <pt x="284" y="368" on="1"/>
        <pt x="700" y="368" on="1"/>
        <pt x="700" y="1447" on="1"/>
        <pt x="284" y="1447" on="1"/>
      </contour>
    </TTGlyph>
    <TTGlyph name="uni06CD" xMin="142" yMin="226" xMax="842" yMax="1588">
      <contour>
        <pt x="142" y="226" on="1"/>
        <pt x="142" y="1588" on="1"/>
        <pt x="842" y="1588" on="1"/>
        <pt x="842" y="226" on="1"/>
      </contour>
      <contour>
        <pt x="284" y="368" on="1"/>
        <pt x="700" y="368" on="1"/>
        <pt x="700" y="1447" on="1"/>
        <pt x="284" y="1447" on="1"/>
      </contour>
    </TTGlyph>
    <TTGlyph name="uni06D0" xMin="142" yMin="226" xMax="842" yMax="1588">
      <contour>
        <pt x="142" y="226" on="1"/>
        <pt x="142" y="1588" on="1"/>
        <pt x="842" y="1588" on="1"/>
        <pt x="842" y="226" on="1"/>
      </contour>
      <contour>
        <pt x="284" y="368" on="1"/>
        <pt x="700" y="368" on="1"/>
        <pt x="700" y="1447" on="1"/>
        <pt x="284" y="1447" on="1"/>
      </contour>
    </TTGlyph>
    <TTGlyph name="uni06D1" xMin="142" yMin="226" xMax="842" yMax="1588">
      <contour>
        <pt x="142" y="226" on="1"/>
        <pt x="142" y="1588" on="1"/>
        <pt x="842" y="1588" on="1"/>
        <pt x="842" y="226" on="1"/>
      </contour>
      <contour>
        <pt x="284" y="368" on="1"/>
        <pt x="700" y="368" on="1"/>
        <pt x="700" y="1447" on="1"/>
        <pt x="284" y="1447" on="1"/>
      </contour>
    </TTGlyph>
    <TTGlyph name="uni06D3" xMin="142" yMin="226" xMax="842" yMax="1588">
      <contour>
        <pt x="142" y="226" on="1"/>
        <pt x="142" y="1588" on="1"/>
        <pt x="842" y="1588" on="1"/>
        <pt x="842" y="226" on="1"/>
      </contour>
      <contour>
        <pt x="284" y="368" on="1"/>
        <pt x="700" y="368" on="1"/>
        <pt x="700" y="1447" on="1"/>
        <pt x="284" y="1447" on="1"/>
      </contour>
    </TTGlyph>
    <TTGlyph name="uni06D4" xMin="142" yMin="226" xMax="842" yMax="1588">
      <contour>
        <pt x="142" y="226" on="1"/>
        <pt x="142" y="1588" on="1"/>
        <pt x="842" y="1588" on="1"/>
        <pt x="842" y="226" on="1"/>
      </contour>
      <contour>
        <pt x="284" y="368" on="1"/>
        <pt x="700" y="368" on="1"/>
        <pt x="700" y="1447" on="1"/>
        <pt x="284" y="1447" on="1"/>
      </contour>
    </TTGlyph>
    <TTGlyph name="uni06F0" xMin="142" yMin="226" xMax="842" yMax="1588">
      <contour>
        <pt x="142" y="226" on="1"/>
        <pt x="142" y="1588" on="1"/>
        <pt x="842" y="1588" on="1"/>
        <pt x="842" y="226" on="1"/>
      </contour>
      <contour>
        <pt x="284" y="368" on="1"/>
        <pt x="700" y="368" on="1"/>
        <pt x="700" y="1447" on="1"/>
        <pt x="284" y="1447" on="1"/>
      </contour>
    </TTGlyph>
    <TTGlyph name="uni06F1" xMin="142" yMin="226" xMax="842" yMax="1588">
      <contour>
        <pt x="142" y="226" on="1"/>
        <pt x="142" y="1588" on="1"/>
        <pt x="842" y="1588" on="1"/>
        <pt x="842" y="226" on="1"/>
      </contour>
      <contour>
        <pt x="284" y="368" on="1"/>
        <pt x="700" y="368" on="1"/>
        <pt x="700" y="1447" on="1"/>
        <pt x="284" y="1447" on="1"/>
      </contour>
    </TTGlyph>
    <TTGlyph name="uni06F2" xMin="142" yMin="226" xMax="842" yMax="1588">
      <contour>
        <pt x="142" y="226" on="1"/>
        <pt x="142" y="1588" on="1"/>
        <pt x="842" y="1588" on="1"/>
        <pt x="842" y="226" on="1"/>
      </contour>
      <contour>
        <pt x="284" y="368" on="1"/>
        <pt x="700" y="368" on="1"/>
        <pt x="700" y="1447" on="1"/>
        <pt x="284" y="1447" on="1"/>
      </contour>
    </TTGlyph>
    <TTGlyph name="uni06F3" xMin="142" yMin="226" xMax="842" yMax="1588">
      <contour>
        <pt x="142" y="226" on="1"/>
        <pt x="142" y="1588" on="1"/>
        <pt x="842" y="1588" on="1"/>
        <pt x="842" y="226" on="1"/>
      </contour>
      <contour>
        <pt x="284" y="368" on="1"/>
        <pt x="700" y="368" on="1"/>
        <pt x="700" y="1447" on="1"/>
        <pt x="284" y="1447" on="1"/>
      </contour>
    </TTGlyph>
    <TTGlyph name="uni06F4" xMin="142" yMin="226" xMax="842" yMax="1588">
      <contour>
        <pt x="142" y="226" on="1"/>
        <pt x="142" y="1588" on="1"/>
        <pt x="842" y="1588" on="1"/>
        <pt x="842" y="226" on="1"/>
      </contour>
      <contour>
        <pt x="284" y="368" on="1"/>
        <pt x="700" y="368" on="1"/>
        <pt x="700" y="1447" on="1"/>
        <pt x="284" y="1447" on="1"/>
      </contour>
    </TTGlyph>
    <TTGlyph name="uni06F5" xMin="142" yMin="226" xMax="842" yMax="1588">
      <contour>
        <pt x="142" y="226" on="1"/>
        <pt x="142" y="1588" on="1"/>
        <pt x="842" y="1588" on="1"/>
        <pt x="842" y="226" on="1"/>
      </contour>
      <contour>
        <pt x="284" y="368" on="1"/>
        <pt x="700" y="368" on="1"/>
        <pt x="700" y="1447" on="1"/>
        <pt x="284" y="1447" on="1"/>
      </contour>
    </TTGlyph>
    <TTGlyph name="uni06F6" xMin="142" yMin="226" xMax="842" yMax="1588">
      <contour>
        <pt x="142" y="226" on="1"/>
        <pt x="142" y="1588" on="1"/>
        <pt x="842" y="1588" on="1"/>
        <pt x="842" y="226" on="1"/>
      </contour>
      <contour>
        <pt x="284" y="368" on="1"/>
        <pt x="700" y="368" on="1"/>
        <pt x="700" y="1447" on="1"/>
        <pt x="284" y="1447" on="1"/>
      </contour>
    </TTGlyph>
    <TTGlyph name="uni06F7" xMin="142" yMin="226" xMax="842" yMax="1588">
      <contour>
        <pt x="142" y="226" on="1"/>
        <pt x="142" y="1588" on="1"/>
        <pt x="842" y="1588" on="1"/>
        <pt x="842" y="226" on="1"/>
      </contour>
      <contour>
        <pt x="284" y="368" on="1"/>
        <pt x="700" y="368" on="1"/>
        <pt x="700" y="1447" on="1"/>
        <pt x="284" y="1447" on="1"/>
      </contour>
    </TTGlyph>
    <TTGlyph name="uni06F8" xMin="142" yMin="226" xMax="842" yMax="1588">
      <contour>
        <pt x="142" y="226" on="1"/>
        <pt x="142" y="1588" on="1"/>
        <pt x="842" y="1588" on="1"/>
        <pt x="842" y="226" on="1"/>
      </contour>
      <contour>
        <pt x="284" y="368" on="1"/>
        <pt x="700" y="368" on="1"/>
        <pt x="700" y="1447" on="1"/>
        <pt x="284" y="1447" on="1"/>
      </contour>
    </TTGlyph>
    <TTGlyph name="uni06F9" xMin="142" yMin="226" xMax="842" yMax="1588">
      <contour>
        <pt x="142" y="226" on="1"/>
        <pt x="142" y="1588" on="1"/>
        <pt x="842" y="1588" on="1"/>
        <pt x="842" y="226" on="1"/>
      </contour>
      <contour>
        <pt x="284" y="368" on="1"/>
        <pt x="700" y="368" on="1"/>
        <pt x="700" y="1447" on="1"/>
        <pt x="284" y="1447" on="1"/>
      </contour>
    </TTGlyph>
</ttFont>
